<?xml version="1.0" encoding="utf-8"?>
<!-- Generator: Adobe Illustrator 27.9.0, SVG Export Plug-In . SVG Version: 6.00 Build 0)  -->
<svg version="1.1" id="Layer_1" xmlns="http://www.w3.org/2000/svg" xmlns:xlink="http://www.w3.org/1999/xlink" x="0px" y="0px"
	 viewBox="0 0 40.5 47.06" style="enable-background:new 0 0 40.5 47.06;" xml:space="preserve">
<path d="M16.06,9.72c0.15-2.67,0.28-5.34,0.47-8.01c0.1-1.43,0.45-1.75,1.58-1.71c1.86,0.07,2.65,0.57,2.59,1.93
	c-0.09,2.25-0.39,4.49-0.52,6.74c-0.22,3.83-0.38,7.67-0.56,11.5c-0.02,0.47-0.27,1.06,0.34,1.31c0.55,0.23,0.94-0.26,1.29-0.57
	c2.29-2.07,4.66-4.06,6.77-6.29c0.97-1.02,1.83-1.27,3.05-0.95c1.6,0.41,1.91,1.39,0.77,2.68c-1.77,2-3.58,3.97-5.93,5.35
	c-0.43,0.25-0.82,0.58-1.18,0.93c-0.34,0.33-0.83,0.69-0.52,1.26c0.23,0.42,0.71,0.3,1.12,0.34c3.97,0.48,8,0.43,11.95,1.1
	c0.65,0.11,1.32,0.22,1.94,0.45c0.61,0.23,1.39,0.52,1.25,1.33c-0.15,0.87-0.75,1.5-1.73,1.52c-0.58,0.02-1.17-0.02-1.75-0.08
	c-3.9-0.4-7.8-0.81-11.7-1.24c-0.41-0.04-0.87-0.22-1.13,0.2c-0.24,0.38-0.07,0.82,0.22,1.15c1.69,1.96,3.38,3.92,5.09,5.87
	c0.99,1.13,2.03,2.21,3.02,3.34c0.72,0.82,1.06,1.73,0.36,2.73c-0.53,0.75-2.26,0.82-3.23,0.16c-0.27-0.18-0.51-0.44-0.69-0.71
	c-2.39-3.64-5.79-6.48-8.01-10.25c-0.21-0.35-0.48-0.75-0.96-0.66c-0.56,0.11-0.45,0.63-0.45,1.02c0.03,2.25-0.11,4.53,0.17,6.76
	c0.34,2.67,0.26,5.33,0.36,7.99c0.06,1.49-0.34,2.02-1.43,2.15c-1.36,0.16-2.69-0.61-2.94-1.77c-0.1-0.48-0.05-1-0.05-1.5
	c0-3.42,0.02-6.85,0.01-10.27c0-0.47,0.15-1.08-0.48-1.27c-0.48-0.14-0.71,0.33-1,0.61c-1.91,1.87-3.84,3.72-5.73,5.62
	c-0.94,0.94-1.92,1.6-3.32,1.13c-1.76-0.59-2.2-2.38-0.68-3.45c2.27-1.6,4.06-3.71,6.23-5.42c1.24-0.98,2.28-2.2,3.4-3.33
	c0.16-0.16,0.31-0.39,0.19-0.67c-0.15-0.34-0.4-0.5-0.78-0.48c-4.06,0.21-7.91-0.75-11.67-2.15c-0.39-0.14-0.79-0.27-1.16-0.46
	c-0.5-0.25-0.74-0.72-0.62-1.25c0.13-0.59,0.48-1.12,1.17-1.12c1.33,0.01,2.67-0.03,3.96,0.44c2.76,0.99,5.69,1.21,8.53,1.83
	c0.43,0.09,0.85,0.15,1.1-0.29c0.34-0.6-0.18-0.86-0.53-1.21c-1.44-1.4-2.78-2.9-4.31-4.2c-2.39-2.04-3.86-4.8-5.87-7.13
	c-0.5-0.58-0.56-1.18-0.17-1.84c0.35-0.58,0.86-0.68,1.49-0.68c1.57,0,2.72,0.61,3.41,2.07c1.22,2.61,3.22,4.65,5.02,6.84
	c0.31,0.38,0.68,0.74,1.09,1.01c0.6,0.39,1.19,0.05,1.13-0.65C15.83,14.87,16.02,12.3,16.06,9.72z"/>
</svg>
