<?xml version="1.0" encoding="utf-8"?>
<!-- Generator: Adobe Illustrator 27.9.0, SVG Export Plug-In . SVG Version: 6.00 Build 0)  -->
<svg version="1.1" id="Layer_1" xmlns="http://www.w3.org/2000/svg" xmlns:xlink="http://www.w3.org/1999/xlink" x="0px" y="0px"
	 viewBox="0 0 43.37 46.02" style="enable-background:new 0 0 43.37 46.02;" xml:space="preserve">
<path d="M10.44,24.17c-1.67,0-3.33-0.01-5,0c-1.55,0.02-2.99-0.32-4.31-1.14c-0.7-0.44-1.27-1.01-1.09-1.94
	c0.18-0.99,0.9-1.49,1.83-1.61c0.62-0.08,1.28-0.05,1.89,0.08c2.43,0.52,4.89,0.36,7.34,0.54c0.3,0.02,0.64,0.19,0.83-0.16
	c0.18-0.33-0.05-0.61-0.26-0.84c-1.29-1.4-2.61-2.77-3.87-4.2c-1.05-1.19-1.8-2.6-2.46-4.04c-0.32-0.7-0.82-1.47-0.01-2.17
	c0.76-0.66,1.66-0.97,2.65-0.57c1.21,0.49,2.25,1.24,2.78,2.47c1.35,3.16,3.9,5.34,6.21,7.72c0.32,0.33,0.63,0.79,1.18,0.56
	c0.55-0.24,0.48-0.8,0.42-1.25c-0.48-3.71-0.34-7.45-0.64-11.16c-0.11-1.42-0.16-2.86-0.04-4.27c0.08-0.92,0.34-2.05,1.48-2.19
	c1.1-0.13,1.64,0.92,2.08,1.7c0.37,0.65,0.41,1.52,0.5,2.3c0.48,4.27,0.51,8.55,0.49,12.83c0,0.56-0.01,1.11,0.01,1.67
	c0.01,0.51,0.23,0.95,0.74,1.08c0.47,0.12,0.71-0.29,0.91-0.62c2.41-3.95,5.4-7.43,8.63-10.71c0.17-0.17,0.34-0.34,0.48-0.53
	c0.91-1.27,2.33-1.59,3.48-0.78c1.25,0.89,1.47,2.47,0.39,3.69c-1.73,1.95-3.57,3.82-5.32,5.75c-0.74,0.82-1.45,1.68-2.08,2.59
	c-0.55,0.8-0.29,1.44,0.66,1.47c2.12,0.07,4.24,0.49,6.36,0.17c1.27-0.19,2.54-0.08,3.79,0.01c1.23,0.09,2.24,0.76,2.72,2.02
	c0.47,1.26-0.05,2.24-1.42,2.38c-1.82,0.19-3.64-0.11-5.45-0.25c-3.31-0.26-6.63-0.49-9.95-0.63c-1.64-0.07-1.97,0.61-1.11,2.01
	c0.89,1.46,2.32,2.37,3.53,3.51c2.07,1.97,4.21,3.86,6.32,5.78c0.12,0.11,0.23,0.22,0.34,0.34c0.99,1.08,1.21,2.2,0.61,2.97
	c-0.61,0.77-2.54,1.09-3.51,0.56c-1.27-0.7-2.3-1.72-3.18-2.84c-1.64-2.07-3.86-3.54-5.51-5.59c-0.24-0.3-0.61-0.62-1.02-0.34
	c-0.36,0.24-0.32,0.73-0.22,1.09c1,3.53,0.85,7.22,1.58,10.79c0.42,2.05-0.44,3.35-2.11,3.55c-1.69,0.2-2.76-0.57-2.91-2.3
	c-0.22-2.52-0.32-5.06-0.46-7.59c-0.02-0.4,0.02-0.8-0.02-1.19c-0.07-0.85,0.17-1.98-0.8-2.31c-1.03-0.34-1.37,0.81-1.93,1.44
	c-0.95,1.06-1.89,2.14-2.89,3.16c-1.04,1.06-2.32,1.66-3.84,1.59c-1.08-0.05-2.21-0.77-2.45-1.6c-0.32-1.11,0.33-1.82,1.13-2.4
	c3.3-2.37,6-5.42,9.08-8.02c0.52-0.44,1.28-0.84,0.89-1.73c-0.37-0.84-1.14-1.02-1.98-1.02c-1.82,0-3.65,0-5.47,0
	C10.44,24.07,10.44,24.12,10.44,24.17z"/>
</svg>
