<?xml version="1.0" encoding="utf-8"?>
<!-- Generator: Adobe Illustrator 27.9.0, SVG Export Plug-In . SVG Version: 6.00 Build 0)  -->
<svg version="1.1" id="Layer_1" xmlns="http://www.w3.org/2000/svg" xmlns:xlink="http://www.w3.org/1999/xlink" x="0px" y="0px"
	 viewBox="0 0 34.56 47.31" style="enable-background:new 0 0 34.56 47.31;" xml:space="preserve">
<path d="M14.1,37.23c0-2.59,0-5.18-0.01-7.76c0-0.4,0.05-0.93-0.5-0.96c-0.26-0.02-0.61,0.26-0.79,0.51
	c-0.94,1.28-1.77,2.64-2.77,3.86c-1.16,1.42-2.24,1.62-3.46,0.87c-1.43-0.89-1.58-2-0.22-3.22c1.7-1.53,2.89-3.45,4.25-5.24
	c0.9-1.17,0.73-1.27-0.81-1.58c-1.76-0.36-3.48,0.14-5.23,0.04c-1.26-0.07-2.5-0.15-3.67-0.67c-0.46-0.21-0.86-0.51-0.9-1.1
	c-0.05-0.73,0.48-1,0.99-1.29c0.62-0.36,1.3-0.26,1.96-0.25c2.09,0.04,4.18,0.11,6.26,0.17c0.32,0.01,0.71,0.09,0.81-0.36
	c0.08-0.37-0.16-0.62-0.43-0.83c-1.98-1.53-3.94-3.09-5.71-4.88c-0.35-0.36-0.76-0.67-1.04-1.08c-0.4-0.59-0.39-1.29-0.04-1.9
	c0.35-0.6,0.99-0.55,1.58-0.48c1.4,0.16,2.49,0.9,3.45,1.87c1.48,1.48,2.95,2.96,4.43,4.44c0.29,0.28,0.59,0.67,1.06,0.46
	c0.51-0.23,0.31-0.73,0.26-1.1c-0.4-2.9-0.48-5.81-0.53-8.73c-0.03-2.03,0.41-3.98,0.58-5.96c0.12-1.43,1.21-2.17,2.63-2.01
	c1.31,0.14,1.86,0.86,1.75,2.45c-0.27,4.08-0.63,8.16-0.39,12.25c0.02,0.42-0.01,0.84,0.03,1.25c0.04,0.48-0.11,1.09,0.44,1.34
	c0.69,0.31,1.08-0.3,1.45-0.71c0.79-0.86,1.54-1.76,2.27-2.67c0.79-0.98,2.42-1.42,3.5-0.89c0.81,0.4,1,1.09,0.71,1.9
	c-0.34,0.97-0.92,1.76-1.75,2.39c-1.06,0.81-2.11,1.64-3.13,2.51c-0.42,0.36-1.04,0.76-0.72,1.43c0.28,0.58,0.93,0.63,1.53,0.64
	c2.99,0.03,5.98,0.47,8.99,0.05c0.91-0.13,1.84-0.15,2.67,0.39c0.51,0.33,0.99,0.67,0.92,1.36c-0.09,0.8-0.64,1.07-1.38,1.17
	c-2.9,0.41-5.79,0.72-8.7,0.05c-0.24-0.06-0.5-0.08-0.74-0.09c-0.25-0.01-0.49,0.04-0.6,0.3c-0.12,0.27,0.02,0.51,0.2,0.67
	c1.67,1.52,3.34,3.03,5.03,4.53c0.43,0.39,0.96,0.69,1.34,1.12c0.85,0.99,0.4,2.19-0.9,2.39c-1.09,0.17-2.13,0.02-3.07-0.71
	c-1.79-1.38-3.38-2.94-4.87-4.64c-0.63-0.72-1.31-2.04-2.24-1.74c-1.15,0.37-0.41,1.76-0.43,2.67c-0.1,4.76-0.01,9.51,0.58,14.24
	c0.06,0.49,0,1-0.05,1.5c-0.17,1.61-0.82,2.15-2.47,2.12c-1.63-0.03-2.09-0.55-2.15-2.35c-0.08-2.58-0.19-5.16-0.29-7.74
	C13.9,37.23,14,37.23,14.1,37.23z"/>
</svg>
