<?xml version="1.0" encoding="utf-8"?>
<!-- Generator: Adobe Illustrator 27.9.0, SVG Export Plug-In . SVG Version: 6.00 Build 0)  -->
<svg version="1.1" id="Layer_1" xmlns="http://www.w3.org/2000/svg" xmlns:xlink="http://www.w3.org/1999/xlink" x="0px" y="0px"
	 viewBox="0 0 56.68 55.47" style="enable-background:new 0 0 56.68 55.47;" xml:space="preserve">
<path d="M12.4,24.79c-2.84,0-5.69-0.02-8.53,0.01c-1.12,0.01-2.14-0.26-3.1-0.82c-0.57-0.33-0.85-0.83-0.75-1.45
	c0.11-0.69,0.71-0.88,1.29-1c0.32-0.06,0.67-0.04,1-0.04c3.34,0,6.7-0.15,10.03,0.05c2.15,0.13,4.29,0.55,6.47,0.45
	c0.45-0.02,1.07,0.3,1.29-0.36c0.16-0.46-0.31-0.71-0.58-1.01c-3.34-3.62-6.68-7.23-10.01-10.87C9,9.19,8.52,8.6,8.12,7.97
	C7.59,7.11,8.06,6.24,9.08,6.27c1.53,0.06,2.9,0.45,3.99,1.74c2.74,3.26,5.58,6.44,8.37,9.65c0.27,0.31,0.49,0.68,0.8,0.95
	c0.15,0.13,0.45,0.16,0.67,0.12c0.3-0.05,0.27-0.36,0.3-0.6c0.01-0.08-0.02-0.17-0.02-0.25c-0.05-4.34-0.1-8.68-0.15-13.03
	c-0.01-1.17-0.09-2.35,0.25-3.49c0.41-1.39,0.75-1.57,2.17-1.2c2.1,0.54,2.13,0.54,1.89,2.87c-0.17,1.69,0.31,3.31,0.35,4.98
	c0.1,3.86-0.42,7.68-0.52,11.52c-0.02,0.78-0.39,1.86,0.56,2.25c1,0.41,2.15,0.43,3.04-0.44c3.87-3.79,8.09-7.23,11.4-11.57
	c0.7-0.92,1.08-2.03,1.97-2.87c0.96-0.9,1.89-0.94,2.98-0.51c1.23,0.49,1.59,1.27,0.87,2.34c-1.39,2.07-2.69,4.26-4.51,5.98
	c-1.94,1.82-3.52,4.02-5.81,5.48c-0.33,0.21-0.8,0.49-0.7,0.94c0.14,0.67,0.79,0.48,1.24,0.47c3.44-0.07,6.78,0.8,10.2,0.91
	c1.92,0.06,3.83-0.27,5.75,0.03c1.47,0.23,2.51,0.84,2.51,1.63c0,0.74-1.17,1.49-2.55,1.6c-3.77,0.32-7.5,0.12-11.22-0.55
	c-3.06-0.56-6.15-0.35-9.24-0.31c-0.93,0.01-1.54,0.54-2.18,1.08c-0.8,0.66-0.9,1.24-0.13,2.07c4.81,5.2,9.2,10.8,14.39,15.66
	c0.39,0.36,1.1,0.65,0.75,1.38c-0.33,0.67-0.74,1.31-1.63,1.39c-1.49,0.13-2.55-0.62-3.48-1.64c-2.53-2.78-5.07-5.55-7.55-8.37
	c-1.65-1.88-3.2-3.85-4.79-5.78c-0.32-0.39-0.6-0.9-1.19-0.67c-0.56,0.22-0.49,0.82-0.5,1.31c-0.02,1.17-0.14,2.36,0.02,3.51
	c0.56,4,0.17,8.01,0.3,12.02c0.06,2,0.18,4.01,0.2,6.01c0.02,1.47-0.75,2.51-1.79,2.59c-1.14,0.09-2.33-0.88-2.6-2.23
	c-0.15-0.73-0.16-1.49-0.16-2.24c-0.04-4.59-0.07-9.19-0.1-13.78c0-0.25,0.04-0.5,0.02-0.75c-0.07-1.03-0.39-1.24-1.18-0.69
	c-0.82,0.57-1.61,1.19-2.34,1.87c-1.77,1.65-3.55,3.28-5.58,4.62c-1.75,1.16-3.33,2.55-4.67,4.15c-0.84,1.01-1.76,1.12-2.89,0.94
	c-0.92-0.14-1.56-0.65-1.8-1.51c-0.25-0.88,0.44-1.32,1.03-1.82c5.17-4.35,10.63-8.36,15.6-12.97c1.27-1.18,1.87-2.48,1.85-4.17
	c-0.02-1.6-0.25-1.94-1.84-1.96c-3.01-0.04-6.02-0.01-9.02-0.01C12.4,24.89,12.4,24.84,12.4,24.79z"/>
</svg>
