<?xml version="1.0" encoding="utf-8"?>
<!-- Generator: Adobe Illustrator 27.9.0, SVG Export Plug-In . SVG Version: 6.00 Build 0)  -->
<svg version="1.1" id="Layer_1" xmlns="http://www.w3.org/2000/svg" xmlns:xlink="http://www.w3.org/1999/xlink" x="0px" y="0px"
	 viewBox="0 0 54.13 48.95" style="enable-background:new 0 0 54.13 48.95;" xml:space="preserve">
<path d="M4.2,22.06c0.62-0.05,1.13-0.06,1.62-0.14c2.63-0.43,5.23-0.89,7.93-0.47c1.47,0.23,3.01,0.24,4.48-0.22
	c0.37-0.12,0.89-0.1,0.83-0.7c-0.04-0.38-0.42-0.43-0.7-0.6c-3.9-2.28-8.21-3.63-12.3-5.47c-0.75-0.34-1.81-0.47-1.83-1.45
	c-0.03-1.07,1.21-0.95,1.86-1.39c1.07-0.73,2.02-0.53,3.21,0.12c2.47,1.36,5.11,2.4,7.68,3.56c0.12,0.06,0.32,0.03,0.45-0.03
	c0.28-0.14,0.29-0.45,0.17-0.65c-0.33-0.58-0.67-1.16-1.09-1.67c-1.37-1.68-2.81-3.31-4.17-5c-1.02-1.27-0.82-1.84,0.71-2.32
	c1.91-0.6,2.72-0.34,4.11,1.3c2.07,2.43,3.53,5.27,5.47,7.79c0.2,0.26,0.34,0.58,0.54,0.84c0.35,0.45,0.7,1.12,1.36,0.81
	c0.57-0.26,0.22-0.92,0.11-1.35c-0.97-3.89-1.51-7.86-2.27-11.79c-0.41-2.12,1.34-3.75,3.41-3.1c0.89,0.28,1.24,1.01,1.25,1.96
	c0.05,4.27,1.27,8.4,1.51,12.65c0.03,0.48-0.07,1.1,0.58,1.21c0.58,0.1,0.86-0.42,1.12-0.84c2.05-3.33,4.09-6.67,6.14-10
	c0.35-0.57,0.74-1.12,1.15-1.64c0.83-1.05,1.92-1.55,3.27-1.53c1.61,0.03,2.19,0.87,1.33,2.22c-1.3,2.04-2.5,4.17-3.91,6.11
	c-1.8,2.48-3.08,5.38-5.5,7.41c-0.3,0.25-0.66,0.68-0.46,1.09c0.28,0.56,0.87,0.38,1.33,0.25c3.19-0.87,6.36-1.82,9.57-2.64
	c2.49-0.64,5.07-0.98,7.47-1.97c0.64-0.26,1.31-0.31,1.97-0.21c0.71,0.1,1.29,0.47,1.46,1.19c0.18,0.77-0.3,1.32-0.95,1.58
	c-1.62,0.65-3.23,1.43-4.92,1.76c-2.21,0.43-4.4,0.89-6.57,1.48c-2,0.54-4.09,0.76-6.15,1.11c-0.41,0.07-0.83,0.09-1.24,0.15
	c-0.45,0.07-0.8,0.31-0.78,0.8c0.01,0.35,0.27,0.62,0.63,0.69c3.93,0.84,7.12,3.18,10.49,5.14c0.86,0.5,1.77,0.9,2.77,1.11
	c0.97,0.2,1.91,0.58,2.86,0.89c0.73,0.24,1.58,0.55,1.38,1.47C51.44,32.43,50.75,33,49.79,33c-0.5,0-1.02,0.02-1.5-0.11
	c-3.2-0.9-6.46-1.62-9.23-3.65c-2.29-1.68-4.84-2.95-7.38-4.22c-0.34-0.17-0.78-0.47-1.14-0.04c-0.33,0.41-0.04,0.79,0.22,1.11
	c1.21,1.49,2.3,3.06,3.61,4.48c2.83,3.07,5.2,6.54,8.23,9.44c0.3,0.28,0.56,0.63,0.75,0.99c0.57,1.08,0.16,1.96-1.02,2.31
	c-1.27,0.37-3.07-0.25-3.98-1.41c-1.9-2.43-4.09-4.63-5.77-7.24c-0.22-0.34-0.53-0.74-1-0.46c-0.31,0.18-0.21,0.56-0.15,0.9
	c0.49,2.96,0.95,5.92,1.41,8.88c0.15,0.99,0.33,1.98,0.4,2.97c0.09,1.34-0.36,1.84-1.66,1.97c-0.5,0.05-1,0.02-1.5-0.01
	c-0.95-0.07-1.49-0.45-1.52-1.55c-0.15-5.43-1.28-10.76-1.94-16.13c-0.11-0.91-0.3-1.81-0.46-2.71c-0.05-0.31-0.01-0.7-0.42-0.8
	c-0.37-0.1-0.66,0.13-0.85,0.4c-2.16,2.99-5.14,5.24-7.28,8.26c-1.39,1.96-3.15,3.67-4.78,5.47c-0.94,1.03-3.52,1.01-4.47-0.01
	c-0.38-0.41-0.19-0.87,0.13-1.09c2.77-1.96,4.49-4.91,6.73-7.35c2.5-2.72,5.59-5.01,7.36-8.39c0.19-0.36,0.59-0.65,0.37-1.11
	c-0.26-0.57-0.8-0.49-1.3-0.46c-0.25,0.01-0.51,0.01-0.75,0.08c-2.83,0.91-5.75,0.89-8.68,0.84c-1.58-0.03-3.18,0.02-4.72,0.49
	c-2.05,0.62-4.13,0.29-6.19,0.11c-0.62-0.05-1.14-0.34-1.29-0.99c-0.18-0.75,0.4-1.1,0.94-1.26C2.06,22.37,3.04,21.4,4.2,22.06z"/>
</svg>
