<?xml version="1.0" encoding="utf-8"?>
<!-- Generator: Adobe Illustrator 27.9.0, SVG Export Plug-In . SVG Version: 6.00 Build 0)  -->
<svg version="1.1" id="Layer_1" xmlns="http://www.w3.org/2000/svg" xmlns:xlink="http://www.w3.org/1999/xlink" x="0px" y="0px"
	 viewBox="0 0 56.64 97.3" style="enable-background:new 0 0 56.64 97.3;" xml:space="preserve">
<path d="M24.75,35.86c0.03-3.73-0.2-7.45-0.41-11.17c-0.4-6.81-0.75-13.62-0.54-20.45c0.02-0.64,0.13-1.25,0.3-1.87
	c0.5-1.79,1.46-2.51,3.21-2.35c1.52,0.14,2.39,1.1,2.44,2.91c0.08,2.7,0.13,5.4,0.09,8.1c-0.05,3.49,0.2,6.96,0.5,10.43
	c0.52,6.17,0.65,12.34,0.5,18.52c-0.02,0.78-0.56,1.99,0.47,2.3c0.72,0.22,1.16-0.89,1.68-1.48c1.83-2.1,3.39-4.38,4.86-6.74
	c1.31-2.08,4.25-2.21,5.79-0.33c0.69,0.85,0.56,1.63-0.09,2.57c-2.56,3.75-5.45,7.2-8.63,10.43c-0.17,0.17-0.33,0.35-0.5,0.51
	c-0.39,0.39-0.9,0.77-0.64,1.41c0.27,0.66,0.9,0.88,1.54,0.91c1.03,0.05,2.08-0.09,3.09,0.04c3.72,0.49,7.44,0.16,11.16,0.1
	c1.37-0.02,2.67,0.27,4,0.46c0.66,0.1,1.21,0.42,1.67,0.85c0.67,0.64,1.71,1.26,1.29,2.33c-0.41,1.05-1.39,1.71-2.56,1.9
	c-0.38,0.06-0.81,0.05-1.18-0.06c-2.09-0.65-4.25-0.46-6.38-0.47c-2.31,0-4.57-0.27-6.83-0.81c-1.29-0.31-2.68-0.21-4.02-0.31
	c-0.31-0.02-0.65-0.14-0.81,0.23c-0.18,0.43,0.02,0.7,0.38,0.99c2.24,1.76,4.47,3.54,6.68,5.34c1.47,1.2,2.91,2.45,4.34,3.71
	c0.41,0.36,0.78,0.8,1.07,1.27c0.98,1.56,0.13,3.26-1.71,3.47c-1.69,0.19-3.26-0.19-4.26-1.58c-2.21-3.08-5.51-5.01-7.99-7.79
	c-0.21-0.23-0.48-0.43-0.74-0.59c-0.75-0.47-1.21-0.26-1.22,0.63c-0.04,2.22-0.04,4.44,0.01,6.66c0.08,3.95,0.59,7.89,0.3,11.85
	c-0.09,1.24,0.21,2.51,0.27,3.77c0.19,3.95,0.36,7.9,0.5,11.85c0.09,2.54-2.47,4.45-4.94,3.73c-1.16-0.34-1.91-1.44-1.84-3
	c0.14-2.86,0.15-5.71-0.05-8.57c-0.37-5.23-0.46-10.46-0.47-15.7c0-2.54,0.1-5.08,0.13-7.62c0.01-0.38,0.08-0.84-0.37-1.04
	c-0.51-0.23-0.65,0.26-0.88,0.55c-0.78,1-1.6,1.97-2.31,3.02c-1.56,2.32-3.73,4.1-5.54,6.18c-1.64,1.88-4.75,1.7-6.38-0.16
	c-0.42-0.48-0.43-0.99-0.16-1.54c0.36-0.74,1.03-1.19,1.64-1.7c3.48-2.92,6.45-6.32,9.14-9.97c0.75-1.02,1.57-2,2.38-2.97
	c0.37-0.44,0.76-0.87,0.46-1.47c-0.27-0.54-0.82-0.29-1.27-0.33c-2.79-0.2-5.53,0.34-8.31,0.43c-2.93,0.1-5.86,0.26-8.8,0.03
	c-1.63-0.13-3.09-0.61-4.24-1.83c-0.78-0.83-0.76-1.45,0.1-2.2c0.69-0.6,1.48-0.85,2.42-0.74c4.6,0.53,9.2-0.02,13.8,0.12
	c0.32,0.01,0.63-0.02,0.95-0.05c0.33-0.03,0.63-0.17,0.74-0.5c0.15-0.45-0.09-0.8-0.46-0.97c-1.9-0.91-3.19-2.6-4.83-3.85
	c-1.83-1.4-3.42-3.07-4.73-4.99c-0.5-0.73-0.76-1.41-0.33-2.2c0.45-0.83,1.19-1.25,2.16-1.21c1.66,0.07,3.06,0.54,4.03,2.06
	c2.28,3.54,5.75,5.86,8.87,8.55c0.81,0.7,1.42,0.35,1.44-0.81C24.78,41.74,24.75,38.8,24.75,35.86z"/>
</svg>
