<?xml version="1.0" encoding="utf-8"?>
<!-- Generator: Adobe Illustrator 27.9.0, SVG Export Plug-In . SVG Version: 6.00 Build 0)  -->
<svg version="1.1" id="Layer_1" xmlns="http://www.w3.org/2000/svg" xmlns:xlink="http://www.w3.org/1999/xlink" x="0px" y="0px"
	 viewBox="0 0 41.28 80.7" style="enable-background:new 0 0 41.28 80.7;" xml:space="preserve">
<path d="M19.91,60.11c0-1.74,0.01-3.49-0.01-5.23c0-0.45,0.16-1.04-0.44-1.21c-0.52-0.15-0.87,0.31-1.18,0.65
	c-0.84,0.95-1.63,1.94-2.47,2.89c-1.32,1.51-3.37,1.99-5.12,1.24c-0.79-0.34-0.99-0.98-0.88-1.75c0.13-0.99,0.72-1.73,1.38-2.44
	c1.96-2.08,4.08-3.99,6.32-5.75c0.37-0.29,0.74-0.6,1.06-0.95c0.52-0.56,1.43-1.09,1.02-1.96c-0.43-0.89-1.06-1.67-2.27-1.86
	c-3.12-0.49-6.22-1.17-9.33-1.73c-2.27-0.4-4.43-1.13-6.6-1.88c-0.69-0.24-1.43-0.57-1.4-1.4c0.03-0.75,0.66-1.21,1.34-1.53
	c1.37-0.64,2.81-0.6,4.16-0.14c2.18,0.74,4.47,0.99,6.66,1.65c0.47,0.14,1.17,0.43,1.48-0.23c0.25-0.52-0.33-0.83-0.64-1.15
	c-1.67-1.71-2.96-3.72-4.4-5.6c-0.43-0.56-0.79-1.19-1.07-1.84c-0.75-1.75-0.22-2.66,1.68-3.01c1.65-0.3,2.94,0.25,3.94,1.6
	c1.8,2.42,3.63,4.81,5.45,7.21c0.24,0.32,0.44,0.66,0.71,0.95c0.15,0.16,0.41,0.35,0.59,0.33c0.41-0.06,0.35-0.45,0.34-0.75
	c-0.03-3.18,0.06-6.36-0.14-9.52c-0.41-6.66-0.36-13.32-0.25-19.99c0.02-1.35,0.04-2.7,0.09-4.05C20,0.88,20.4,0.44,22.09,0.08
	c0.64-0.13,1.26-0.1,1.89,0.03c1.53,0.3,2.04,0.8,2.06,2.39c0.02,2.14-0.01,4.29-0.18,6.42c-0.22,2.78-0.13,5.53,0.02,8.31
	c0.21,3.88,0.13,7.77,0.1,11.66c-0.02,2.37,0.2,4.76-0.28,7.12c-0.06,0.3,0.01,0.63,0.05,0.95c0.04,0.33,0.22,0.63,0.53,0.72
	c0.32,0.09,0.6-0.08,0.81-0.36c1.89-2.54,4.34-4.63,5.98-7.39c0.78-1.31,1.85-2.14,3.49-2.04c2.09,0.12,2.93,1.54,1.95,3.41
	c-1.49,2.85-3.75,5.07-5.94,7.36c-0.63,0.65-1.89,1.17-1.55,2.17c0.41,1.2,1.79,0.62,2.74,0.72c1.34,0.14,2.69,0.14,4.04,0.18
	c0.81,0.03,1.56,0.27,2.29,0.57c0.84,0.35,1.19,1.08,1.19,1.9c0,0.83-0.69,1.26-1.38,1.44c-1.45,0.36-2.87,0.74-4.43,0.25
	c-2.12-0.67-4.33-0.96-6.54-1.13c-0.53-0.04-1.17-0.21-1.5,0.4c-0.31,0.59,0.07,1.06,0.46,1.48c2.5,2.64,4.53,5.71,7.43,7.99
	c0.87,0.68,1.58,1.56,2.38,2.34c0.71,0.69,0.86,1.53,0.54,2.4c-0.33,0.93-1.1,1.2-2.07,1.26c-2.2,0.13-3.99-0.32-5.36-2.31
	c-1.12-1.62-2.62-2.97-3.95-4.44c-0.22-0.24-0.49-0.47-0.82-0.39c-0.48,0.11-0.51,0.54-0.5,0.94c0.04,2.14,0.31,4.27,0.4,6.4
	c0.23,5.39,0.86,10.73,1.44,16.08c0.14,1.32,0.14,2.65-1.26,3.28c-1.41,0.64-2.92,0.73-4.35-0.01c-0.79-0.41-0.87-1.2-0.92-2.05
	c-0.11-1.89-0.21-3.79-0.31-5.69C20.32,68.33,19.63,64.25,19.91,60.11z"/>
</svg>
