<?xml version="1.0" encoding="utf-8"?>
<!-- Generator: Adobe Illustrator 27.9.0, SVG Export Plug-In . SVG Version: 6.00 Build 0)  -->
<svg version="1.1" id="Layer_1" xmlns="http://www.w3.org/2000/svg" xmlns:xlink="http://www.w3.org/1999/xlink" x="0px" y="0px"
	 viewBox="0 0 66.65 123.67" style="enable-background:new 0 0 66.65 123.67;" xml:space="preserve">
<path d="M12.86,58.67c3.9-0.09,8.02,0.03,12.13,0.45c0.89,0.09,2.22,0.5,2.64-0.36c0.51-1.07-0.92-1.44-1.55-2.05
	c-3.77-3.63-7.61-7.19-10.61-11.52c-0.45-0.65-0.96-1.27-1.34-1.96c-0.94-1.71,0-3.18,1.99-3.11c1.65,0.06,2.93,0.98,3.73,2.26
	c3.12,4.96,7.47,8.82,11.34,13.11c0.11,0.12,0.21,0.24,0.32,0.35c0.3,0.27,0.61,0.53,1.04,0.31c0.34-0.17,0.33-0.53,0.32-0.83
	c-0.09-2.85-0.2-5.71-0.31-8.56c-0.03-0.71-0.13-1.42-0.13-2.13c-0.06-7.3-0.06-14.61-0.18-21.91C32.14,16.2,31.92,9.7,31.72,3.2
	c-0.07-2.3,0.22-2.96,1.53-3.16c1.69-0.25,3.39,0.75,3.96,2.31c0.48,1.3,0.41,2.66,0.45,3.99c0.15,5.93,0.25,11.86,0.71,17.79
	c0.3,3.86,0.1,7.76,0.11,11.65c0.02,5.79,0.03,11.59,0.04,17.38c0,0.24-0.01,0.48,0,0.71c0.01,0.4,0.02,0.83,0.51,0.94
	c0.33,0.07,0.61-0.14,0.81-0.4c2.49-3.21,5.71-5.71,8.43-8.7c1.54-1.69,3.4-3.09,4.59-5.11c0.63-1.07,1.73-1.1,2.75-0.89
	c1.11,0.23,2.09,0.78,2.53,1.94c0.29,0.75,0.02,1.35-0.46,1.96c-1.02,1.32-2.09,2.59-3.3,3.73c-2.82,2.67-5.66,5.32-8.67,7.8
	c-1.27,1.05-2.31,2.39-3.39,3.66c-0.52,0.62-0.21,1.26,0.65,1.27c1.98,0.03,3.97,0.09,5.94-0.11c3.33-0.33,6.66-0.05,9.99-0.32
	c1.58-0.13,3.12-0.6,4.72-0.49c1.4,0.09,2.76,1.11,2.97,2.27c0.25,1.38-0.18,2.08-1.66,2.32c-1.41,0.23-2.84,0.43-4.26,0.43
	c-5.79,0-11.58,0.33-17.36-0.24c-0.99-0.1-2.42-0.56-2.89,0.3c-0.57,1.06,0.86,1.7,1.57,2.33c4.99,4.46,8.91,9.88,13.5,14.7
	c0.74,0.77,0.97,1.68,0.66,2.62c-0.31,0.94-1.27,1.13-2.13,1.27c-1.58,0.24-2.81-0.5-3.75-1.64c-2.53-3.05-4.99-6.16-7.5-9.23
	c-0.9-1.1-1.86-2.17-2.81-3.22c-0.25-0.27-0.54-0.67-0.99-0.38c-0.3,0.18-0.29,0.54-0.19,0.85c0.35,1.17,0.14,2.37,0.2,3.55
	c0.32,6.64,0.22,13.31,0.76,19.92c0.5,6.18,0.54,12.35,0.89,18.52c0.14,2.52,0.23,5.07,0.59,7.57c0.19,1.28-0.41,1.84-1.35,2.12
	c-0.97,0.3-2.02,0.48-3.03,0.45c-1.02-0.03-1.46-0.87-1.52-1.83c-0.06-1.11-0.02-2.22-0.07-3.33c-0.18-4.36-0.32-8.72-0.59-13.07
	c-0.35-5.61-0.87-11.21-1.19-16.82c-0.2-3.4-0.17-6.82-0.22-10.23c-0.04-2.46-0.02-4.92-0.06-7.38c-0.01-0.55-0.11-1.1-0.24-1.64
	c-0.19-0.78-0.58-0.83-1.14-0.26c-2.81,2.8-5.9,5.28-8.87,7.89c-1.37,1.2-2.99,2.07-4.63,2.82c-1.18,0.54-2.49,0.43-3.64-0.35
	c-1.4-0.95-1.47-2.35-0.01-3.21c3.08-1.82,5.99-3.87,8.75-6.14c2.14-1.76,4.23-3.59,6.33-5.4c0.35-0.3,0.76-0.63,0.45-1.2
	c-0.26-0.47-0.71-0.67-1.2-0.58c-4.11,0.78-8.21-0.25-12.32-0.07c-1.66,0.07-3.31,0.27-4.97,0.37c-3.09,0.19-6.13-0.46-9.2-0.6
	c-1.06-0.05-1.65-0.89-2.29-1.56c-0.37-0.38-0.11-0.88,0.2-1.29c0.75-1.02,1.83-1.14,2.98-1.13C6.45,58.68,9.54,58.67,12.86,58.67z"
	/>
</svg>
