<?xml version="1.0" encoding="utf-8"?>
<!-- Generator: Adobe Illustrator 27.9.0, SVG Export Plug-In . SVG Version: 6.00 Build 0)  -->
<svg version="1.1" id="Layer_1" xmlns="http://www.w3.org/2000/svg" xmlns:xlink="http://www.w3.org/1999/xlink" x="0px" y="0px"
	 viewBox="0 0 75.58 108.33" style="enable-background:new 0 0 75.58 108.33;" xml:space="preserve">
<path d="M39.85,22.83c0,4.09,0,8.19,0,12.28c0,2.09,0.03,4.18-0.28,6.26c-0.15,0.98-0.04,2-0.05,3.01c0,0.43,0.05,0.89,0.46,1.1
	c0.46,0.23,0.77-0.17,1.04-0.46c0.69-0.73,1.45-1.42,2-2.24c1.86-2.81,4.53-4.89,6.71-7.41c1.8-2.08,3.79-3.99,5.68-5.99
	c0.73-0.77,1.41-1.31,2.61-0.83c2.09,0.83,2.41,1.83,0.86,3.45c-3.52,3.68-7.08,7.32-10.62,10.99c-2.03,2.1-3.73,4.51-6.12,6.27
	c-0.19,0.14-0.32,0.38-0.45,0.6c-0.17,0.29-0.28,0.62-0.12,0.95c0.17,0.34,0.53,0.44,0.85,0.34c0.9-0.29,1.82-0.2,2.73-0.27
	c3.19-0.24,6.34,0.21,9.48,0.58c4.4,0.51,8.82,0.57,13.22,0.91c2.08,0.16,4.13,0.45,6.18,0.82c0.92,0.17,1.67,0.37,1.51,1.52
	c-0.13,0.96-0.91,1.63-1.9,1.64c-0.41,0-0.83-0.08-1.24-0.17c-3.69-0.79-7.46-0.65-11.18-0.91c-3.16-0.23-6.3-0.59-9.44-0.94
	c-3.06-0.34-6.17-0.26-9.26-0.31c-0.8-0.01-0.71,0.6-0.38,1.03c1.48,1.91,2.9,3.88,4.55,5.65c1.87,2.01,3.96,3.82,5.93,5.74
	c0.97,0.95,0.95,1.64,0.07,2.57c-0.54,0.57-1.11,0.66-1.8,0.3c-0.75-0.39-1.41-0.88-1.99-1.5c-2.46-2.62-5.17-5-7.41-7.82
	c-0.3-0.37-0.53-1.01-1.1-0.84c-0.8,0.24-0.4,0.98-0.38,1.5c0.12,3.34,0.43,6.67,0.38,10.01c-0.08,6.25,0.26,12.51-0.22,18.76
	c-0.15,1.98,0.17,3.99,0.26,5.98c0.16,3.5,0.61,6.98,0.44,10.49c-0.03,0.58,0,1.13-0.46,1.62c-0.72,0.76-1.6,0.97-2.52,0.75
	c-0.99-0.24-1.43-1.01-1.43-2.07c-0.02-2.84,0-5.69-0.17-8.52c-0.73-12.53-0.09-25.07-0.33-37.6c-0.02-0.88,0.48-2.15-0.38-2.54
	c-1.02-0.46-1.38,0.94-1.91,1.56c-3.28,3.8-6.61,7.53-10.46,10.77c-1.04,0.87-1.63,2.11-2.49,3.13c-1.17,1.37-2.37,1.47-3.7,0.41
	c-0.81-0.65-1.07-1.65-0.36-2.41c1.37-1.46,2.4-3.2,4-4.47c4.12-3.3,7.8-7.06,11.13-11.16c0.32-0.39,0.65-0.77,0.9-1.2
	c0.33-0.55,0.16-0.95-0.49-1.08c-1.23-0.24-2.45-0.5-3.68-0.68c-2.72-0.39-5.4-0.87-8.2-0.78c-4.92,0.15-9.84-0.01-14.76,0
	c-1.84,0-3.43-0.63-4.85-1.73c-0.37-0.29-0.88-0.59-0.61-1.21c0.2-0.46,0.67-0.45,1.08-0.46c0.58-0.02,1.17-0.02,1.76-0.01
	c4.85,0.05,9.7,0.14,14.54,0.15c4.61,0.01,9.15,0.45,13.59,1.75c0.56,0.16,1.15,0.2,1.73,0.26c0.15,0.02,0.36-0.05,0.45-0.15
	c0.18-0.21,0.11-0.49-0.07-0.66c-0.54-0.52-1.13-1-1.67-1.52c-2.47-2.38-4.74-4.94-7.05-7.47c-2.25-2.46-4.75-4.7-7.13-7.04
	c-0.68-0.67-1.83-1.13-1.33-2.4c0.26-0.66,1.6-0.68,2.99-0.07c0.61,0.26,1.27,0.53,1.73,0.97c2.23,2.14,4.49,4.26,6.57,6.54
	c2.36,2.58,4.54,5.33,6.82,8c0.21,0.25,0.48,0.49,0.77,0.6c0.53,0.21,1.05,0.1,1.07-0.58c0.02-0.83-0.08-1.67-0.12-2.5
	c-0.33-6.76,0.34-13.52-0.06-20.27c-0.44-7.18,0.03-14.38-0.55-21.55c-0.07-0.82-0.47-1.72,0.61-2.15c1.01-0.41,2.81,0.31,3.25,1.29
	c0.2,0.44,0.33,0.96,0.35,1.45c0.16,3.57,0.34,7.13,0.42,10.7c0.07,3.09,0.01,6.19,0.01,9.28C39.85,22.83,39.85,22.83,39.85,22.83z"
	/>
</svg>
