<?xml version="1.0" encoding="utf-8"?>
<!-- Generator: Adobe Illustrator 27.9.0, SVG Export Plug-In . SVG Version: 6.00 Build 0)  -->
<svg version="1.1" id="Layer_1" xmlns="http://www.w3.org/2000/svg" xmlns:xlink="http://www.w3.org/1999/xlink" x="0px" y="0px"
	 viewBox="0 0 47.5 49.42" style="enable-background:new 0 0 47.5 49.42;" xml:space="preserve">
<path d="M36.29,23.38c-2.5,0.13-5,0.22-7.48-0.31c-0.41-0.09-0.87-0.09-1.06,0.4c-0.2,0.52,0.25,0.73,0.56,0.98
	c4.12,3.39,8.23,6.79,12.38,10.15c0.74,0.6,1.61,1.08,1.13,2.19c-0.46,1.08-1.43,1.3-2.52,1.18c-1.05-0.11-1.88-0.66-2.61-1.37
	c-2.99-2.92-6.49-5.27-9.35-8.34c-0.17-0.18-0.35-0.36-0.55-0.51c-0.28-0.21-0.59-0.31-0.93-0.18c-0.49,0.19-0.56,0.63-0.47,1.03
	c0.44,1.97,0.26,4.03,0.68,5.95c0.87,3.99,0.85,8.11,1.99,12.05c0.38,1.32-0.31,2.32-1.74,2.72c-1.23,0.35-2.72-0.39-2.93-1.62
	c-0.58-3.37-1.41-6.7-1.59-10.13c-0.11-2.16-0.5-4.31-0.37-6.49c0.02-0.33-0.04-0.68-0.15-0.99c-0.1-0.3-0.25-0.71-0.5-0.82
	c-0.47-0.22-0.72,0.24-0.95,0.57c-1.98,2.79-4.14,5.45-6.38,8.04c-0.87,1.01-1.67,2.08-2.56,3.08c-1.17,1.32-2.98,1.34-4.2,0.09
	c-0.61-0.63-0.75-1.49-0.06-1.99c4.66-3.44,7.37-8.56,11.17-12.74c0.28-0.31,0.61-0.58,0.85-0.92c0.42-0.6,1.08-1.22,0.59-2.02
	c-0.42-0.67-1.23-0.49-1.84-0.34c-2.47,0.57-4.98,0.43-7.48,0.53c-2.69,0.1-5.32-0.21-7.87-1.12c-0.39-0.14-0.8-0.25-1.17-0.43
	C0.42,21.81-0.04,21.51,0,20.94c0.04-0.53,0.43-0.96,0.89-1.13c1.01-0.36,2.03-0.8,3.15-0.39c3.47,1.25,7.07,0.84,10.63,0.8
	c0.55-0.01,1.33,0.22,1.55-0.45c0.28-0.83-0.63-1.06-1.11-1.45c-2.09-1.66-4.23-3.27-6.31-4.93c-1.76-1.4-3.48-2.86-5.23-4.29
	C3.1,8.72,2.66,8.32,2.79,7.65c0.16-0.84,0.93-0.89,1.56-1.02C5.55,6.37,6.59,6.69,7.6,7.48c3.74,2.94,7.45,5.9,10.99,9.08
	c0.58,0.52,1.23,1.56,2.03,1.1c0.71-0.41,0.34-1.53,0.26-2.33c-0.44-4.23-0.91-8.45-1.39-12.67c-0.2-1.76,0.11-2.37,1.49-2.6
	c1.57-0.26,3.07,0.52,3.32,1.91c0.28,1.55,0.4,3.14,0.51,4.72c0.19,2.66,0.32,5.32,0.47,7.98c0.02,0.33,0,0.68,0.38,0.83
	c0.48,0.18,0.78-0.11,1.06-0.44c1.61-1.92,3.24-3.82,4.8-5.77c0.98-1.23,2.1-2.32,2.92-3.72c1-1.72,2.98-1.94,4.3-0.81
	c0.57,0.5,0.78,1,0.31,1.73c-0.99,1.56-2.21,2.94-3.42,4.31c-2.32,2.62-4.7,5.21-7.05,7.81c-0.27,0.3-0.7,0.57-0.59,1.03
	c0.16,0.63,0.75,0.6,1.23,0.56c4.5-0.38,9.02,0.25,13.51-0.45c1.06-0.17,2.16-0.31,3.22,0.09c0.67,0.26,1.6,0.26,1.56,1.31
	c-0.04,1.08-0.74,1.68-1.73,1.83c-1.4,0.21-2.81,0.34-4.22,0.4C39.8,23.43,38.04,23.38,36.29,23.38z"/>
</svg>
