<?xml version="1.0" encoding="utf-8"?>
<!-- Generator: Adobe Illustrator 27.9.0, SVG Export Plug-In . SVG Version: 6.00 Build 0)  -->
<svg version="1.1" id="Layer_1" xmlns="http://www.w3.org/2000/svg" xmlns:xlink="http://www.w3.org/1999/xlink" x="0px" y="0px"
	 viewBox="0 0 49.54 47.55" style="enable-background:new 0 0 49.54 47.55;" xml:space="preserve">
<path d="M40.68,24.06c1.42,0,2.84,0.01,4.26,0c1.28-0.02,2.5,0.28,3.65,0.77c1.13,0.48,1.25,1.58,0.34,2.39
	c-0.75,0.67-1.67,0.79-2.59,0.61c-2.65-0.5-5.31-0.47-7.99-0.34c-1.76,0.09-3.49-0.22-5.22-0.54c-0.4-0.07-0.89-0.2-1.18,0.16
	c-0.4,0.5,0.02,0.94,0.31,1.32c1.82,2.49,3.59,5.03,5.52,7.45c2.34,2.93,4.83,5.75,7.23,8.64c0.52,0.62,1.24,1.31,0.53,2.19
	c-0.65,0.82-1.57,0.88-2.51,0.53c-0.89-0.33-1.6-0.91-2.11-1.7c-2.82-4.36-6.7-7.89-9.58-12.21c-0.83-1.25-1.75-2.44-2.47-3.76
	c-0.33-0.62-0.73-1.19-1.54-0.96c-0.74,0.21-1.01,0.8-1.03,1.53c-0.04,1.57-0.16,3.14-0.11,4.72c0.07,2.32-0.16,4.64-0.28,6.97
	c-0.05,1-0.06,1.99,0.16,2.99c0.31,1.46-0.29,2.51-1.41,2.7c-1.3,0.21-2.67-0.8-2.88-2.17c-0.39-2.58-0.03-5.15,0.06-7.73
	c0.04-1.08,0.26-2.15,0.34-3.23c0.09-1.19-0.45-1.58-1.46-0.96c-3.92,2.37-8.09,4.34-11.79,7.08c-1.56,1.15-2.53,1.05-3.64-0.28
	c-0.88-1.06-0.9-1.73,0.25-2.49c1.87-1.24,3.83-2.34,5.77-3.49c3.23-1.91,6.47-3.81,9.7-5.72c0.91-0.54,1.62-1.16,1.35-2.4
	c-0.16-0.75-0.46-1.19-1.28-1.27c-1.66-0.16-3.3-0.45-4.96-0.56C12,24.03,8.03,22.87,3.92,22.81c-1.08-0.02-2.13-0.43-3.01-1.11
	c-0.51-0.39-1.19-0.8-0.78-1.62c0.35-0.7,0.92-1.3,1.78-1.1c1.8,0.42,3.67,0.34,5.45,0.66c4.35,0.78,8.79,0.91,13.11,1.9
	c0.4,0.09,0.84,0.13,1.24,0.06c0.67-0.1,0.8-0.6,0.45-1.09c-0.44-0.6-1.01-1.11-1.52-1.66c-3.9-4.24-7.81-8.47-11.7-12.71
	C8.48,5.65,8.09,5.11,7.68,4.59C7.2,3.99,7.14,3.31,7.58,2.74c0.37-0.47,0.97-0.56,1.6-0.36c1.2,0.39,2.32,0.83,3.12,1.93
	c2.7,3.72,6.12,6.82,9,10.4c0.16,0.19,0.35,0.37,0.55,0.51c0.53,0.35,1.03,0.3,1.01-0.42c-0.1-3.57,0.82-7.16-0.24-10.72
	c-0.19-0.64-0.3-1.3-0.37-1.97c-0.08-0.78,0.02-1.55,0.79-1.97c0.8-0.43,1.43,0.13,2.08,0.48c0.72,0.38,1.05,1.07,1.24,1.81
	c0.51,2.01,1.07,3.99,1.03,6.13c-0.07,3.68-0.43,7.33-0.72,10.99c-0.05,0.61-0.08,1.15,0.21,1.68c0.87,1.59,1.68,1.66,3.15,0.58
	c2.41-1.78,4.84-3.56,7.4-5.11c2.57-1.55,5.13-3.11,7.49-4.97c0.69-0.55,1.43-0.97,2.29-0.67c0.83,0.29,1.93,0.44,2.15,1.49
	c0.2,0.98-0.67,1.51-1.35,1.93c-3.48,2.13-6.51,4.95-10.29,6.62c-0.83,0.36-1.53,1.01-2.27,1.55c-0.32,0.24-0.74,0.49-0.58,0.98
	c0.15,0.48,0.63,0.51,1.04,0.52c1.59,0.02,3.17,0.01,4.76,0.01C40.68,24.14,40.68,24.1,40.68,24.06z"/>
</svg>
