<?xml version="1.0" encoding="utf-8"?>
<!-- Generator: Adobe Illustrator 27.9.0, SVG Export Plug-In . SVG Version: 6.00 Build 0)  -->
<svg version="1.1" id="Layer_1" xmlns="http://www.w3.org/2000/svg" xmlns:xlink="http://www.w3.org/1999/xlink" x="0px" y="0px"
	 viewBox="0 0 42.93 47.68" style="enable-background:new 0 0 42.93 47.68;" xml:space="preserve">
<path d="M18.03,15.28c0.24-4.5,0.48-9.01,0.71-13.51c0.03-0.69,0.06-1.39,0.84-1.65c0.75-0.25,1.48-0.12,2.11,0.42
	c0.75,0.64,1.06,1.42,1.12,2.41c0.19,3.18-0.2,6.35-0.27,9.52c-0.06,2.67-0.37,5.33-0.59,7.99c-0.04,0.43-0.11,0.86,0.35,1.08
	c0.45,0.22,0.8-0.07,1.1-0.35c2.44-2.29,5.24-4.14,7.55-6.57c0.46-0.48,0.87-1.06,1.62-1.06c1.06-0.01,2.03,0.31,2.54,1.29
	c0.5,0.95,0.05,1.86-0.66,2.48c-1.76,1.53-3.38,3.23-5.36,4.5c-1.05,0.67-2.03,1.47-3.01,2.23c-0.17,0.13-0.32,0.42-0.32,0.63
	c0.02,0.41,0.37,0.48,0.72,0.48c0.67,0,1.35,0.08,2-0.03c3.51-0.56,6.98,0.24,10.48,0.18c1.09-0.02,2.17,0.21,3.07,0.9
	c0.62,0.47,1.09,1.04,0.81,1.92c-0.27,0.83-0.94,0.87-1.62,0.83c-2.66-0.13-5.32-0.28-7.98-0.43c-2.58-0.14-5.16-0.29-7.74-0.42
	c-0.47-0.02-1.05-0.1-1.26,0.52c-0.19,0.56,0.15,0.95,0.52,1.31c3.77,3.67,6.48,8.3,10.56,11.69c0.75,0.63,1.44,1.25,0.62,2.28
	c-0.68,0.85-1.57,1-2.68,0.33c-0.71-0.43-1.42-0.92-1.97-1.53c-2.72-3.05-5.63-5.95-7.89-9.38c-0.23-0.35-0.43-0.73-0.73-1.01
	c-0.49-0.48-1.22-0.24-1.32,0.41c-0.05,0.32-0.02,0.67,0.02,1c0.52,3.92,0.16,7.85,0.25,11.77c0.04,1.82-0.27,2.13-1.62,2.18
	c-1.51,0.05-2.81-0.86-2.83-2.2c-0.02-2.25,0.12-4.51,0.21-6.76c0.05-1.5,0.13-3,0.18-4.51c0.01-0.41,0.02-0.88-0.49-1.02
	c-0.43-0.12-0.79,0.1-1.11,0.41c-1.62,1.58-3.47,2.87-5.2,4.3C8.5,39.76,5.79,41,3.73,43.13c-0.7,0.72-2.65,0.1-3.43-0.96
	c-0.54-0.74-0.4-1.5,0.71-2.3c1.89-1.37,3.86-2.63,5.82-3.91c2.67-1.75,5.09-3.79,7.3-6.08c0.29-0.3,0.6-0.59,0.83-0.94
	c0.52-0.76,0.29-1.32-0.62-1.34c-1.25-0.03-2.51-0.01-3.75,0.15c-2.36,0.31-4.66-0.22-6.99-0.4c-0.71-0.05-1.42-0.46-2.09-0.8
	c-0.74-0.37-1.62-0.79-1.26-1.85c0.32-0.94,1.22-1.2,2.07-1c3.62,0.84,7.33,0.28,10.97,0.84c0.25,0.04,0.5,0.08,0.75,0.05
	c0.22-0.02,0.53-0.03,0.53-0.38c0-0.16-0.03-0.34-0.12-0.46c-0.14-0.2-0.32-0.4-0.52-0.53c-3.92-2.58-6.57-6.34-9.37-9.97
	c-0.45-0.58-0.76-1.17-0.24-1.79c0.44-0.52,1.02-0.8,1.78-0.52c0.79,0.29,1.6,0.54,2.15,1.22c0.68,0.85,1.47,1.65,1.94,2.6
	c1.45,2.96,4.06,4.82,6.33,7.01c0.37,0.36,0.81,0.68,1.33,0.38c0.54-0.31,0.33-0.87,0.33-1.35c0-1.84,0-3.68,0-5.51
	C18.12,15.28,18.08,15.28,18.03,15.28z"/>
</svg>
