<?xml version="1.0" encoding="utf-8"?>
<!-- Generator: Adobe Illustrator 27.9.0, SVG Export Plug-In . SVG Version: 6.00 Build 0)  -->
<svg version="1.1" id="Layer_1" xmlns="http://www.w3.org/2000/svg" xmlns:xlink="http://www.w3.org/1999/xlink" x="0px" y="0px"
	 viewBox="0 0 63.87 91.39" style="enable-background:new 0 0 63.87 91.39;" xml:space="preserve">
<path d="M11.98,44.92c3.5,0,6.75,0.01,10.01-0.01c0.52,0,1.21,0.21,1.45-0.45c0.18-0.52-0.4-0.8-0.72-1.11
	c-2.09-2.06-4.17-4.14-6.31-6.14c-1.58-1.47-2.7-3.31-4.13-4.91c-0.98-1.09-0.3-2.52,1.23-2.75c1.87-0.28,3.47,0.34,4.63,1.84
	c2.77,3.59,5.98,6.77,9.14,10c0.17,0.17,0.33,0.34,0.51,0.49c0.5,0.43,0.89,0.28,1.04-0.31c0.1-0.38,0.07-0.79,0.07-1.18
	c-0.03-7.22,0.52-14.42,0.9-21.62c0.28-5.3,0.6-10.59,1.06-15.87C31.03,0.84,31.8-0.05,33.27,0c1.91,0.06,3.52,1.59,3.49,3.36
	c-0.11,7.45-0.61,14.89-1.1,22.33c-0.29,4.42-0.6,8.85-0.85,13.27c-0.04,0.66-0.36,1.59,0.45,1.92c0.8,0.33,1.22-0.56,1.7-1.04
	c2.99-2.98,6.36-5.49,9.84-7.87c1.91-1.31,3.85-1.17,5.22,0.19c1.03,1.02,1.04,2.03-0.23,2.73c-2.59,1.43-4.69,3.53-7.15,5.1
	c-2.02,1.29-3.47,3.24-5.52,4.48c-0.33,0.2-0.58,0.58-0.38,1.01c0.18,0.39,0.48,0.59,0.95,0.53c4.21-0.53,8.38,0.29,12.58,0.4
	c2.69,0.07,5.38,0.18,8.07,0.31c0.85,0.04,1.72,0.05,2.51,0.58c0.84,0.57,1.1,1.29,1,2.23C63.74,50.57,63,51,62.16,51.32
	c-0.21,0.08-0.48,0.09-0.71,0.05c-3.53-0.58-7.12-0.36-10.67-0.73c-4.49-0.47-9-0.76-13.52-0.84c-0.32-0.01-0.64-0.03-0.83,0.31
	c-0.19,0.35,0.03,0.62,0.23,0.84c0.68,0.77,1.4,1.51,2.09,2.27c3.78,4.17,7.13,8.73,11.29,12.55c0.76,0.69,1.52,1.52,0.93,2.68
	c-0.56,1.12-1.75,1.44-3.26,1.1c-1.53-0.34-2.63-1.15-3.69-2.34c-2.91-3.25-5.91-6.42-8.4-10.02c-0.22-0.32-0.52-0.6-0.83-0.85
	c-0.6-0.5-0.97-0.35-1.09,0.46c-0.05,0.31-0.04,0.63-0.04,0.95c-0.16,6.66-0.24,13.31-0.52,19.96c-0.12,2.92,0.16,5.84-0.21,8.75
	c-0.1,0.76,0.18,1.57,0.22,2.35c0.07,1.43-0.55,2.26-1.99,2.49c-0.77,0.13-1.59,0.1-2.37,0.03c-1.76-0.16-2.19-0.6-2.12-2.42
	c0.28-7.51,0.26-15.03,0.72-22.54c0.18-2.92-0.06-5.86,0.51-8.76c0.16-0.81-0.45-1.2-1.17-0.82c-0.28,0.15-0.54,0.34-0.76,0.56
	c-3.48,3.43-7.95,5.49-11.74,8.48c-0.57,0.45-1.22,0.43-1.81,0.29c-0.92-0.22-1.85-0.49-2.68-0.94c-1.59-0.87-1.58-2.03-0.02-3.01
	c2.82-1.77,5.67-3.49,8.48-5.28c2.61-1.66,4.98-3.65,7.39-5.58c0.44-0.35,0.88-0.69,1.08-1.24c0.2-0.55,0.06-0.94-0.56-1.02
	c-0.39-0.05-0.79-0.04-1.19-0.03c-5.27,0.13-10.55,0.22-15.82,0.42c-2.59,0.1-5.05-0.33-7.44-1.24C0.35,47.68-0.2,47,0.06,46.2
	c0.33-1.03,1.08-1.4,2.18-1.45C5.57,44.58,8.89,45.02,11.98,44.92z"/>
</svg>
