<?xml version="1.0" encoding="utf-8"?>
<!-- Generator: Adobe Illustrator 27.9.0, SVG Export Plug-In . SVG Version: 6.00 Build 0)  -->
<svg version="1.1" id="Layer_1" xmlns="http://www.w3.org/2000/svg" xmlns:xlink="http://www.w3.org/1999/xlink" x="0px" y="0px"
	 viewBox="0 0 44.57 44.92" style="enable-background:new 0 0 44.57 44.92;" xml:space="preserve">
<path d="M23.99,12.96c0,2.21-0.01,3.71,0,5.22c0,0.44,0.11,0.85,0.65,0.88c0.33,0.02,0.65-0.08,0.84-0.42
	c0.44-0.8,0.91-1.6,1.35-2.4c1.38-2.51,3.4-4.54,5.11-6.8c0.15-0.2,0.34-0.37,0.54-0.51c0.83-0.61,2.76-0.7,3.28-0.05
	c0.81,1.01,0.15,1.9-0.46,2.69c-2.1,2.7-4.24,5.38-6.34,8.08c-0.49,0.63-1.54,1.29-1.03,2.08c0.55,0.86,1.71,0.4,2.53,0.12
	c1.06-0.36,2.15-0.41,3.2-0.5c2.33-0.19,4.66-0.36,6.97-0.75c0.65-0.11,1.34-0.06,2-0.04c1.32,0.05,1.98,0.52,1.93,1.41
	c-0.05,1.03-0.78,1.42-1.67,1.53c-2.65,0.32-5.29,0.75-7.95,0.88c-2.83,0.14-5.63,0.72-8.49,0.51c-0.74-0.05-1.6-0.11-1.88,0.83
	c-0.29,0.98,0.3,1.64,1.1,2.01c3.25,1.49,5.76,3.96,8.42,6.23c0.13,0.11,0.27,0.2,0.39,0.31c0.96,0.89,1.32,2.11,0.86,2.85
	c-0.56,0.9-2.29,1.14-3.41,0.25c-1.43-1.14-2.69-2.5-4.07-3.72c-0.95-0.84-1.87-2.53-3.13-1.86c-0.89,0.47-0.27,2.3-0.18,3.5
	c0.18,2.41,0.5,4.81,0.76,7.21c0.14,1.3-0.73,2.23-2.23,2.39c-1.3,0.14-2.03-0.4-2.17-1.79c-0.31-2.99-0.37-5.99-0.35-8.99
	c0-0.69,0.41-1.7-0.55-1.94c-0.81-0.2-1.27,0.68-1.67,1.3c-1.15,1.74-2.2,3.55-3.36,5.28c-0.95,1.41-1.85,1.67-3.18,1.08
	c-1.3-0.57-1.6-1.38-0.75-2.56c1.56-2.16,3.2-4.27,4.85-6.36c0.82-1.04,1.72-2.04,2.64-2.99c0.46-0.48,0.68-1,0.46-1.58
	c-0.28-0.72-0.79-1.35-1.63-1.36c-1.08-0.02-2.18,0-3.25,0.16c-3.76,0.59-7.49,0.2-11.22-0.3c-0.57-0.08-1.15-0.24-1.68-0.47
	c-0.59-0.26-1.38-0.54-1.19-1.37c0.17-0.75,0.78-1.35,1.57-1.41c1.5-0.12,3-0.1,4.49,0.21c2.22,0.46,4.47,0.47,6.72,0.4
	c0.38-0.01,0.93,0.05,0.98-0.49c0.03-0.26-0.24-0.61-0.47-0.82c-0.9-0.87-1.87-1.67-2.74-2.57c-0.87-0.9-1.71-1.84-2.45-2.84
	c-1.05-1.42-1.04-1.95-0.24-2.57c0.99-0.76,3.18-0.59,3.79,0.43c1.58,2.62,3.84,4.62,5.95,6.75c0.35,0.36,0.72,0.71,1.11,1.01
	c0.46,0.35,1.02,0.92,1.54,0.6c0.58-0.36,0.07-1.06,0.02-1.61c-0.38-3.89-0.65-7.79-0.73-11.71c-0.04-1.83-0.33-3.66-0.46-5.49
	c-0.05-0.73-0.14-1.48,0.49-2.11c0.81-0.8,1.8-0.92,2.78-0.67c0.96,0.25,1.09,1.13,1.09,2.03C23.43,5.99,24.19,9.8,23.99,12.96z"/>
</svg>
