<?xml version="1.0" encoding="utf-8"?>
<!-- Generator: Adobe Illustrator 27.9.0, SVG Export Plug-In . SVG Version: 6.00 Build 0)  -->
<svg version="1.1" id="Layer_1" xmlns="http://www.w3.org/2000/svg" xmlns:xlink="http://www.w3.org/1999/xlink" x="0px" y="0px"
	 viewBox="0 0 79.64 78.05" style="enable-background:new 0 0 79.64 78.05;" xml:space="preserve">
<path d="M19.97,42.28c-3.58-0.09-6.74,0-9.89,0.08c-2.06,0.05-4.09,0.27-6.12-0.18c-1.89-0.42-3.67-2.38-3.92-4.28
	c-0.24-1.87,0.7-2.9,2.46-2.29c2.49,0.85,5.01,0.48,7.52,0.7c3.8,0.33,7.61,0.22,11.41,0.31c1.49,0.04,2.99,0.37,4.47,0.67
	c2.65,0.54,5.31,0.81,8.01,0.72c0.5-0.02,1.24,0.24,1.38-0.53c0.1-0.53-0.46-0.78-0.88-0.99c-2.12-1.08-4.24-2.15-6.36-3.23
	c-5.02-2.53-10.39-4.3-15.37-6.92c-1.26-0.67-2.53-1.18-4.02-1.3c-1.94-0.15-3.68-2.95-3.23-4.82c0.2-0.85,0.81-1.09,1.57-1.2
	c2.16-0.31,4.12,0.51,5.94,1.38c5.71,2.74,11.6,5.11,17.18,8.12c1.46,0.79,2.9,1.63,4.35,2.44c0.47,0.27,0.95,0.72,1.48,0.18
	c0.47-0.49,0.23-1.05-0.04-1.55c-0.53-0.98-1.02-1.98-1.65-2.89c-2.68-3.83-5.2-7.76-7.54-11.81c-1.4-2.42-3.41-4.36-5.22-6.46
	c-1.03-1.19-1.97-2.49-1.99-4.21c-0.01-1.61,1.06-2.31,2.47-1.55c0.34,0.18,0.65,0.46,0.93,0.73c2.6,2.58,4.93,5.36,6.72,8.58
	c1.58,2.84,3.14,5.7,5.12,8.29c0.23,0.3,0.32,0.87,0.79,0.72c0.61-0.19,0.36-0.79,0.31-1.21c-0.28-2.28-0.75-4.55-0.84-6.83
	c-0.14-3.64-0.01-7.29-0.04-10.94c-0.01-1.04,0.51-1.66,1.41-1.95c0.81-0.27,1.34,0.3,1.79,0.87c1.26,1.62,1.92,3.47,1.89,5.52
	c-0.03,1.98-0.17,3.95-0.3,5.93c-0.2,2.95,0.22,5.88,0.58,8.78c0.26,2.06,0.31,4.11,0.43,6.16c0.02,0.37,0.09,0.86,0.56,0.88
	c0.33,0.02,0.42-0.43,0.53-0.72c1.61-3.97,3.18-7.94,4.81-11.9c1.5-3.66,3.02-7.32,4.85-10.84c0.22-0.42,0.47-0.83,0.72-1.23
	c1.45-2.25,3.11-2.18,4.38,0.19c0.77,1.42,0.89,2.81,0.04,4.26c-3.47,5.9-5.61,12.4-8.43,18.59c-0.79,1.73-1.61,3.43-2.36,5.17
	c-0.17,0.39-0.55,0.9-0.09,1.31c0.49,0.45,0.89-0.08,1.23-0.31c1.11-0.77,2.13-1.66,3.24-2.42c5.71-3.86,11.31-7.9,16.85-12.01
	c1.14-0.85,2.13-1.9,3.19-2.85c1.86-1.67,2.82-1.5,4.08,0.7c0.98,1.71,0.77,2.99-0.56,4.47c-2.04,2.27-4.6,3.89-7,5.69
	c-4.62,3.48-9.48,6.6-14.52,9.44c-0.69,0.39-2,0.7-1.66,1.72c0.38,1.14,1.47,0.2,2.25,0.2c0.71,0,1.43-0.12,2.14-0.12
	c7.15-0.02,14.29-0.03,21.44-0.04c1.93,0,3.51,1.9,3.17,3.77c-0.15,0.8-0.73,1.18-1.41,1.46c-1.06,0.43-2.19,0.52-3.28,0.41
	c-3.4-0.35-6.79,0.22-10.19-0.04c-3.68-0.27-7.38-0.24-11.07-0.34c-0.24-0.01-0.48-0.04-0.71-0.01c-0.3,0.03-0.66,0-0.79,0.38
	c-0.16,0.46,0.13,0.73,0.46,0.98c0.06,0.05,0.13,0.09,0.2,0.12c5.24,2.7,9.69,6.6,14.68,9.67c1.39,0.86,2.15,2.03,2.69,3.45
	c0.4,1.04,0.11,2.31-0.56,2.81c-0.63,0.47-2.11,0.43-2.91-0.23c-1.04-0.86-2.07-1.71-3.17-2.49c-2.71-1.91-5.25-4.07-8.03-5.87
	c-2.05-1.33-4.33-2.28-6.23-3.86c-0.21-0.17-0.44-0.2-0.6,0.02c-0.07,0.1-0.06,0.29-0.04,0.43c0.04,0.23,0.1,0.47,0.21,0.68
	c2.57,5.17,4.28,10.74,7.35,15.68c1.67,2.69,2.4,5.87,4.13,8.55c0.09,0.13,0.17,0.28,0.21,0.43c0.23,0.86,0.47,1.86-0.36,2.42
	c-0.73,0.49-1.64,0.31-2.48-0.16c-1.1-0.62-1.86-1.53-2.3-2.64c-1.98-5.02-4.64-9.72-6.95-14.58c-1.83-3.85-2.9-8.04-4.99-11.8
	c-0.38-0.69-0.7-1.42-1.07-2.12c-0.2-0.38-0.55-0.57-0.99-0.47c-0.45,0.11-0.63,0.47-0.64,0.89c-0.03,1.59-0.18,3.19-0.02,4.76
	c0.64,6.23,1.1,12.47,1.32,18.74c0.07,1.95,0.69,3.89,1.14,5.81c0.13,0.55,0.2,1.09,0.2,1.64c-0.02,1.83-1.18,2.55-2.82,1.71
	c-1.25-0.64-2.2-1.57-2.48-3.01c-0.27-1.4-0.63-2.79-0.71-4.2c-0.29-5.22-0.78-10.42-0.73-15.66c0-0.08,0.02-0.16,0.01-0.24
	c-0.04-0.41-0.18-0.85-0.61-0.92c-0.29-0.04-0.51,0.32-0.64,0.62c-0.62,1.45-1.17,2.95-1.88,4.35c-2.66,5.25-4.42,10.84-6.29,16.39
	c-0.8,2.37-2.07,2.72-4.01,1.1c-1.48-1.24-1.77-2.09-1.13-3.94c2.13-6.13,4.28-12.26,7.54-17.92c0.08-0.14,0.2-0.26,0.24-0.41
	c0.2-0.87,1.4-1.8,0.45-2.54c-0.63-0.49-1.19,0.81-1.85,1.17c-1.53,0.85-2.93,1.93-4.48,2.68c-3.43,1.67-6.12,4.2-8.77,6.83
	c-1.35,1.34-2.64,2.75-4.16,3.91c-1.27,0.96-2.12,0.88-3.32-0.21c-1.06-0.96-1.7-2.07-1.54-3.56c0.05-0.5,0.17-0.9,0.63-1.19
	c3.43-2.19,5.92-5.5,9.25-7.84c1.37-0.96,2.75-1.9,4.22-2.65c3.12-1.59,5.98-3.58,8.99-5.34c0.27-0.16,0.53-0.34,0.78-0.54
	c0.31-0.25,0.6-0.55,0.4-1c-0.15-0.34-0.5-0.33-0.81-0.37C26.3,42.82,22.99,41.83,19.97,42.28z"/>
</svg>
