<?xml version="1.0" encoding="utf-8"?>
<!-- Generator: Adobe Illustrator 27.9.0, SVG Export Plug-In . SVG Version: 6.00 Build 0)  -->
<svg version="1.1" id="Layer_1" xmlns="http://www.w3.org/2000/svg" xmlns:xlink="http://www.w3.org/1999/xlink" x="0px" y="0px"
	 viewBox="0 0 34.74 53.5" style="enable-background:new 0 0 34.74 53.5;" xml:space="preserve">
<path d="M22.42,43.25c-0.02,2.61-0.2,5.21,0.25,7.82c0.27,1.59-0.67,2.45-2.36,2.44c-0.48,0-0.96,0.01-1.43-0.05
	c-1.82-0.21-2.62-1.08-2.68-2.95c-0.14-4.13,0.1-8.24,0.38-12.36c0.14-2.05,0.04-4.12,0.03-6.19c0-0.2-0.12-0.47-0.27-0.6
	c-0.32-0.25-0.62-0.04-0.8,0.23c-1.68,2.51-4.13,4.37-5.78,6.9c-0.44,0.68-1.01,1.22-1.61,1.74c-1.74,1.49-4.85,0.89-5.96-1.1
	c-0.47-0.84,0-1.3,0.52-1.84c1.78-1.81,3.54-3.64,5.31-5.47c0.33-0.34,0.69-0.66,1-1.02c0.45-0.53,1.17-1.1,0.84-1.81
	c-0.35-0.77-1.26-0.4-1.93-0.4c-1.59-0.01-3.17,0.04-4.73-0.34c-0.63-0.15-1.21-0.38-1.76-0.7c-0.75-0.43-1.67-0.84-1.38-1.95
	c0.25-0.98,1.18-1.21,2.03-1.42c0.38-0.09,0.81-0.11,1.18-0.02c2.45,0.62,4.89,0.13,7.33-0.06c1.43-0.11,1.58-0.4,0.8-1.57
	c-1.81-2.7-3.66-5.37-5.5-8.06c-0.36-0.52-0.79-1.01-1.06-1.58c-0.3-0.63-0.7-1.41-0.01-1.97C5.42,10.46,6.12,9.97,7,10.3
	c1.12,0.42,2.12,0.96,2.97,1.87c1.8,1.94,3.17,4.16,4.49,6.42c0.24,0.41,0.45,0.84,0.73,1.21c0.11,0.15,0.4,0.22,0.61,0.22
	c0.33,0.01,0.34-0.31,0.34-0.52c-0.02-1.27,0.01-2.55-0.14-3.81c-0.53-4.44-0.36-8.86,0.2-13.28c0.27-2.16,1.15-2.77,3.18-2.24
	c2.12,0.55,2.93,1.04,2.84,3.89c-0.07,2.04-0.35,4.09-0.62,6.12c-0.24,1.82-0.13,3.65-0.1,5.47c0.02,1.18,0.48,1.39,1.5,0.64
	c2.12-1.54,3.99-3.38,5.85-5.22c0.28-0.28,0.52-0.6,0.8-0.88c1.28-1.29,3.33-1.21,4.58,0.15c0.48,0.52,0.66,1.1,0.37,1.74
	c-0.35,0.79-0.75,1.56-1.39,2.2c-2.02,2-3.84,4.2-6.47,5.51c-0.82,0.41-1.46,1.2-2.18,1.81c-0.19,0.16-0.26,0.37-0.21,0.62
	c0.06,0.29,0.32,0.37,0.53,0.38c1.11,0.03,2.22-0.01,3.3-0.3c1.68-0.44,3.32-0.18,4.91,0.37c1.33,0.46,1.8,1.23,1.6,2.28
	c-0.23,1.19-0.72,1.69-2.21,1.65c-3.1-0.08-6.15,0.68-9.25,0.52c-0.45-0.02-1.01-0.1-1.28,0.39c-0.32,0.58,0,1.13,0.41,1.5
	c1.88,1.7,3.74,3.43,5.72,5.01c2.01,1.6,3.59,3.58,5.2,5.53c0.7,0.85,0.74,2.17,0.2,2.89c-0.64,0.86-1.57,0.66-2.41,0.51
	c-1.64-0.29-3.03-1.14-3.8-2.62c-0.79-1.52-2.02-2.64-3.1-3.9c-0.35-0.41-0.73-0.95-1.36-0.68c-0.52,0.22-0.4,0.81-0.4,1.28
	C22.41,39.11,22.42,41.18,22.42,43.25z"/>
</svg>
