<?xml version="1.0" encoding="utf-8"?>
<!-- Generator: Adobe Illustrator 27.9.0, SVG Export Plug-In . SVG Version: 6.00 Build 0)  -->
<svg version="1.1" id="Layer_1" xmlns="http://www.w3.org/2000/svg" xmlns:xlink="http://www.w3.org/1999/xlink" x="0px" y="0px"
	 viewBox="0 0 60.27 61.58" style="enable-background:new 0 0 60.27 61.58;" xml:space="preserve">
<path d="M26.3,13.84c-0.35-3.29,0.07-7.22-0.19-11.14c-0.15-2.26,0.1-2.6,1.59-2.68c2.04-0.12,2.85,0.47,2.89,2.43
	c0.09,4.59,0.11,9.18,0.07,13.77c-0.02,2.16-0.28,4.32-0.38,6.49c-0.04,0.74,0.03,1.5,0.12,2.24c0.02,0.2,0.27,0.48,0.46,0.52
	c0.19,0.04,0.54-0.11,0.63-0.28c2.89-5.09,7.41-8.51,12.06-11.8c0.4-0.29,0.72-0.7,1.1-1.02c0.31-0.27,0.64-0.55,1.01-0.73
	c0.8-0.38,2.56,0.01,2.98,0.71c0.58,0.97,0.05,1.78-0.63,2.43c-0.85,0.8-1.73,1.58-2.69,2.23c-4.12,2.79-7.28,6.61-10.74,10.09
	c-0.26,0.27-0.41,0.56-0.32,0.88c0.14,0.46,0.55,0.56,0.99,0.59c4.59,0.24,9.18,0.32,13.77-0.08c3.06-0.26,6.1-0.8,9.19-0.54
	c0.8,0.07,1.77-0.05,2.03,1.02c0.23,0.95-0.62,1.81-1.99,2.12c-0.57,0.13-1.15,0.29-1.72,0.3c-5.17,0.1-10.31,0.98-15.49,0.62
	c-2.74-0.19-5.48-0.45-8.21-0.73c-1.69-0.18-2.13,0.11-2.2,1.75c-0.03,0.74-0.11,1.49,0.37,2.18c1.33,1.92,2.47,4.02,4.19,5.6
	c3.64,3.37,6.46,7.43,9.66,11.17c0.52,0.6,1.15,1.3,0.43,2.21c-0.67,0.85-1.54,1.03-2.69,0.48c-1.42-0.67-2.29-1.93-3.15-3.15
	c-2.08-2.94-4.44-5.64-6.89-8.26c-0.34-0.36-0.69-0.73-1.1-1c-0.28-0.18-0.67-0.11-0.74,0.34c-0.05,0.33-0.07,0.66-0.06,0.99
	c0.25,4.74-0.08,9.51,0.6,14.24c0.07,0.49,0.03,1,0.04,1.5c0.02,0.86-0.03,1.7-0.98,2.11c-0.83,0.35-2.45,0-3.07-0.57
	c-0.42-0.39-0.46-0.86-0.48-1.37c-0.2-5.41-0.73-10.82-0.29-16.25c0.14-1.74,0.16-3.49,0.23-5.24c0.02-0.42-0.01-0.88-0.45-1.07
	c-0.47-0.21-0.79,0.15-1.07,0.44c-4.18,4.33-9.27,7.67-13.32,12.14c-0.8,0.88-1.7,1.29-2.87,1.13c-0.89-0.12-1.63-0.5-1.9-1.38
	c-0.24-0.78,0.1-1.38,0.75-1.96c2.81-2.49,5.54-5.06,8.49-7.4c2.54-2.02,4.9-4.29,7.27-6.51c1.03-0.96,0.72-1.92-0.75-2.36
	c-1.94-0.58-3.91-0.42-5.91-0.2c-4.31,0.49-8.62,0.99-12.97,0.27c-1.19-0.2-2.24-0.64-3.27-1.19c-0.38-0.2-0.69-0.49-0.68-0.97
	c0.01-0.63,0.5-0.81,0.99-0.96c0.89-0.27,1.8-0.44,2.71-0.24c2.65,0.57,5.28,0.38,7.96,0.12c2.4-0.23,4.84-0.11,7.26-0.16
	c0.39-0.01,0.9,0.13,1.04-0.41c0.09-0.35-0.24-0.58-0.45-0.82c-3.65-4.24-7.28-8.49-10.53-13.04c-0.49-0.68-1.62-1.28-0.98-2.3
	c0.64-1.03,1.84-0.55,2.78-0.5c0.85,0.04,1.51,0.57,2.04,1.29c2.48,3.35,4.97,6.69,7.49,10.01c1.41,1.86,2.88,3.67,4.32,5.5
	c0.32,0.41,0.72,0.77,1.27,0.58c0.63-0.21,0.42-0.75,0.42-1.25C26.29,22.65,26.3,18.56,26.3,13.84z"/>
</svg>
