<?xml version="1.0" encoding="utf-8"?>
<!-- Generator: Adobe Illustrator 27.9.0, SVG Export Plug-In . SVG Version: 6.00 Build 0)  -->
<svg version="1.1" id="Layer_1" xmlns="http://www.w3.org/2000/svg" xmlns:xlink="http://www.w3.org/1999/xlink" x="0px" y="0px"
	 viewBox="0 0 54.79 64.73" style="enable-background:new 0 0 54.79 64.73;" xml:space="preserve">
<path d="M30.55,8.43c-0.29,4.18,0.19,8.39-0.25,12.57c-0.05,0.47-0.05,0.96,0.05,1.42c0.2,0.9,0.95,1.24,1.57,0.62
	c2.88-2.91,6.38-5.28,8.15-9.2c0.62-1.38,1.5-1.79,3.08-1.56c1.33,0.2,2.29,1.03,2.98,2.15c0.24,0.38-0.1,0.74-0.23,1.1
	c-1.47,3.92-4.26,6.8-7.47,9.33c-0.75,0.59-1.54,1.11-2.29,1.7c-0.43,0.34-0.9,0.73-0.69,1.39c0.22,0.66,0.82,0.69,1.38,0.66
	c2.7-0.12,5.38,0.22,8.07,0.34c1.96,0.09,3.93,0.25,5.88,0.47c1.58,0.17,2.84,0.97,3.7,2.31c0.72,1.11,0.22,1.99-1.04,2.44
	c-1.88,0.67-3.57-0.34-5.35-0.46c-3-0.21-5.98-0.7-9-0.67c-2.06,0.02-4.11-0.12-6.16-0.31c-1.63-0.15-1.75,0.09-1.72,1.73
	c0.04,1.83,0.61,3.29,2.2,4.47c2.67,1.97,5.24,4.1,7.72,6.31c2.31,2.06,4.31,4.44,6.09,6.98c0.91,1.29,0.45,2.39-1.07,2.93
	c-1.67,0.59-3.96-0.2-5.17-1.99c-1.57-2.32-3.48-4.32-5.48-6.26c-0.79-0.77-1.64-1.5-2.51-2.18c-0.53-0.42-0.88-0.19-0.84,0.48
	c0.17,3.09,0.21,6.19,0.58,9.25c0.3,2.52-0.02,5.08,0.66,7.57c0.25,0.92-0.15,1.79-1.02,2.22c-1.53,0.75-3.11,0.62-4.56-0.2
	c-1.17-0.66-1.42-1.9-1.34-3.11c0.29-4.99-0.12-9.95-0.47-14.91c-0.11-1.58-0.14-3.17-0.22-4.75c-0.02-0.47,0.08-0.96-0.25-1.37
	c-0.32-0.41-0.72-0.72-1.15-0.19c-1.36,1.65-2.8,3.26-3.99,5.02c-1.07,1.59-2.23,3.09-3.56,4.45c-0.85,0.86-1.38,1.94-2.09,2.89
	c-1.16,1.55-1.6,1.7-3.44,1.21c-0.23-0.06-0.47-0.11-0.69-0.19c-2.76-0.99-2.99-1.9-1.24-4.24c3.3-4.38,7.4-8.07,10.61-12.53
	c0.42-0.58,1.58-0.97,0.97-1.92c-0.62-0.98-1.39-1.96-2.68-2.14c-0.47-0.07-0.97-0.08-1.42,0.02c-2.98,0.61-6.01,0.39-9.01,0.42
	c-2.38,0.02-4.48-0.9-6.48-2.08c-0.27-0.16-0.51-0.39-0.72-0.62c-1.01-1.06-0.74-2.16,0.67-2.43c1.22-0.24,2.44-0.55,3.74-0.1
	c2.76,0.96,5.63,0.67,8.48,0.53c0.92-0.05,1.17-0.47,0.6-1.16c-1.2-1.48-2.47-2.9-3.75-4.31c-1.61-1.77-2.98-3.7-4.08-5.81
	c-1.37-2.63-1.04-3.05,1.94-3.04c1.84,0.01,3.22,0.65,4.08,2.32c2.22,4.29,5.9,7.43,8.76,11.22c0.24,0.31,0.56,0.56,0.86,0.82
	c0.68,0.59,1.51,0.58,2.25,0.33c0.87-0.3,0.72-1.21,0.61-1.86c-0.35-2.04-0.29-4.11-0.42-6.16c-0.33-5.13-0.31-10.27-0.04-15.41
	c0.06-1.19-0.01-2.38,0.01-3.57c0.01-0.49,0.16-0.86,0.73-1.06c2.78-1,5.39,0.69,5.48,3.62C30.58,5.42,30.55,6.93,30.55,8.43z"/>
</svg>
