<?xml version="1.0" encoding="utf-8"?>
<!-- Generator: Adobe Illustrator 27.9.0, SVG Export Plug-In . SVG Version: 6.00 Build 0)  -->
<svg version="1.1" id="Layer_1" xmlns="http://www.w3.org/2000/svg" xmlns:xlink="http://www.w3.org/1999/xlink" x="0px" y="0px"
	 viewBox="0 0 56.37 91.16" style="enable-background:new 0 0 56.37 91.16;" xml:space="preserve">
<path d="M30.63,71.68c0,3-0.07,6,0.03,9c0.05,1.28-0.42,2.45-0.39,3.72c0.03,1.41,0,2.83,0.03,4.25c0.05,1.89-1.83,3.06-3.5,2.24
	c-0.73-0.36-1.02-1.05-0.95-1.88c0.8-9.42,0.08-18.87,0.45-28.29c0.06-1.41-0.05-2.83,0.36-4.2c0.11-0.37-0.05-0.66-0.33-0.87
	c-0.32-0.24-0.63-0.08-0.9,0.13c-0.59,0.47-1.18,0.93-1.75,1.41c-3.06,2.59-6.23,5.04-9.5,7.36c-0.69,0.49-1.3,0.98-2.26,0.5
	c-0.74-0.36-1.66-0.4-1.85-1.43c-0.19-1.05,0.61-1.44,1.28-1.93c3.78-2.75,7.55-5.51,11.32-8.27c0.47-0.34,0.95-0.69,1.39-1.07
	c0.16-0.14,0.32-0.41,0.3-0.61c-0.03-0.41-0.4-0.49-0.74-0.5c-1.67-0.06-3.34-0.19-5.01-0.12c-4.11,0.16-8.14-0.43-12.18-1.04
	c-1.47-0.22-3.01-0.22-4.37-0.96c-0.44-0.24-0.91-0.42-1.32-0.7c-0.5-0.34-0.9-0.83-0.71-1.47c0.23-0.77,0.9-1.02,1.6-0.86
	c2.36,0.53,4.77,0.69,7.15,1.01c3.97,0.54,7.97,0.63,11.94,1.08c0.44,0.05,0.87,0,1.11-0.4c0.28-0.47-0.11-0.77-0.39-1.05
	c-3.43-3.44-6.25-7.39-9.29-11.15c-0.47-0.58-0.99-1.13-1.42-1.75c-0.37-0.53-0.93-1.12-0.34-1.78c0.53-0.6,1.27-0.8,2.06-0.51
	c1.28,0.47,2.35,1.21,3.2,2.31c1.68,2.18,3.17,4.49,4.99,6.57c1.54,1.75,2.9,3.66,4.36,5.47c0.34,0.43,0.6,1.16,1.31,0.95
	c0.75-0.22,0.51-0.96,0.48-1.5c-0.17-2.92-0.21-5.84-0.05-8.77c0.25-4.4,0.51-8.81,0.44-13.23c-0.06-3.84,0.05-7.69-0.11-11.53
	C26.97,8.36,27.68,5,27.84,1.58c0.04-0.83,0.49-1.64,1.28-1.58c0.91,0.07,2.09,0,2.59,1.14c0.27,0.61,0.54,1.23,0.39,1.93
	c-1.43,6.87-0.75,13.8-0.7,20.72c0.04,5.08-0.21,10.17-0.63,15.25c-0.16,1.91-0.11,3.84-0.14,5.76c-0.01,0.41,0.01,0.92,0.53,0.96
	c0.27,0.02,0.67-0.18,0.85-0.41c3.65-4.91,8.96-7.95,13.37-12c0.79-0.73,1.69-0.62,2.59-0.5c0.79,0.11,1.44,0.56,1.67,1.32
	c0.2,0.65-0.4,1.05-0.82,1.44c-0.6,0.58-1.17,1.22-1.86,1.67c-4.82,3.21-8.69,7.55-13.2,11.11c-0.18,0.14-0.38,0.38-0.38,0.58
	c-0.02,0.42,0.36,0.5,0.69,0.53c3.65,0.35,7.31,0.76,10.99,0.47c2.76-0.21,5.51-0.08,8.26,0.07c0.68,0.04,1.33,0.17,1.93,0.48
	c0.6,0.31,1.23,0.71,1.08,1.51c-0.16,0.84-0.79,1.24-1.62,1.31c-0.42,0.03-0.84,0-1.25,0c-4.09,0-8.18,0.03-12.28-0.01
	c-2.42-0.03-4.79-0.53-7.18-0.87c-0.98-0.14-2.35-0.6-2.85,0.13c-0.71,1.02,0.55,1.9,1.15,2.74c4.24,5.88,8.81,11.52,13.3,17.21
	c0.59,0.75,1.21,1.48,0.56,2.45c-0.53,0.79-2.28,0.96-3.2,0.3c-0.53-0.38-0.99-0.9-1.39-1.42c-3.28-4.32-6.53-8.65-9.8-12.97
	c-0.15-0.2-0.29-0.41-0.48-0.57c-0.44-0.38-0.79-0.2-0.88,0.31c-0.09,0.57-0.07,1.16-0.08,1.75c-0.01,3.09,0,6.18,0,9.28
	C30.44,71.68,30.54,71.68,30.63,71.68z"/>
</svg>
