<?xml version="1.0" encoding="utf-8"?>
<!-- Generator: Adobe Illustrator 27.9.0, SVG Export Plug-In . SVG Version: 6.00 Build 0)  -->
<svg version="1.1" id="Layer_1" xmlns="http://www.w3.org/2000/svg" xmlns:xlink="http://www.w3.org/1999/xlink" x="0px" y="0px"
	 viewBox="0 0 81.07 87.73" style="enable-background:new 0 0 81.07 87.73;" xml:space="preserve">
<path d="M0.04,43.49c-0.26-1.57,0.61-2.43,2.2-2.08c5.49,1.19,11.09,1.67,16.6,2.77c0.23,0.05,0.47,0.08,0.71,0.08
	c5.09-0.13,10.12,0.6,15.17,0.98c0.59,0.04,1.4,0.48,1.75-0.19c0.37-0.71-0.53-1.04-0.9-1.49c-4.04-4.9-8.52-9.4-12.92-13.98
	c-1.08-1.12-1.73-2.46-2.43-3.78c-0.21-0.39-0.25-0.93-0.22-1.39c0.08-1.22,0.96-1.67,2.15-1.28c0.89,0.29,1.48,0.89,2.07,1.53
	c3.19,3.42,6.39,6.83,9.53,10.29c1.22,1.34,2.29,2.83,3.44,4.24c0.28,0.34,0.47,0.93,1.08,0.63c0.41-0.21,0.31-0.67,0.35-1.06
	c0.35-3.72,0.36-7.44,0.42-11.16c-0.64-6.51,0.89-12.77,2.11-19.07c0.35-1.8,0.49-3.61,0.67-5.42c0.05-0.55,0.07-1.11,0.17-1.66
	c0.31-1.59,1.25-1.91,2.51-0.81c1.07,0.93,1.53,2.15,1.64,3.57c0.21,2.47-0.19,4.91-0.46,7.34c-0.36,3.14-0.95,6.26-1.54,9.36
	c-0.2,1.03-0.29,2.04-0.28,3.07c0.02,5.63,0.25,11.27-0.44,16.88c-0.04,0.31-0.04,0.63-0.06,0.95c-0.02,0.31-0.1,0.65,0.21,0.85
	c0.33,0.2,0.59-0.01,0.83-0.23c0.53-0.48,1.11-0.91,1.59-1.44c2.87-3.18,6.04-6.07,8.93-9.24c3.48-3.83,7.5-7.06,11.88-9.84
	c2.01-1.27,2.46-1.24,3.55,0.31c1.21,1.72,1.59,3.62-0.17,4.78c-2.11,1.4-4.04,3.07-6.08,4.58c-1.92,1.42-3.65,3.06-5.24,4.82
	c-2.51,2.76-5.08,5.45-8.03,7.76c-0.44,0.34-0.82,0.75-1.24,1.12c-0.24,0.21-0.53,0.46-0.42,0.78c0.13,0.4,0.51,0.59,0.94,0.59
	c2.55,0.02,5.03,0.63,7.54,0.94c4.4,0.56,8.82,0.92,13.21,1.57c2.22,0.33,4.43,0.3,6.64,0.36c2.24,0.06,4.2,3.05,3.38,5.14
	c-0.26,0.68-0.76,0.93-1.46,1c-2.22,0.23-4.43,0.09-6.62-0.22c-4.93-0.69-9.85-1.41-14.77-2.16c-3.12-0.48-6.23-0.99-9.39-1.21
	c-0.23-0.02-0.46-0.15-0.69-0.18c-0.48-0.06-0.98-0.09-1.25,0.42c-0.25,0.47-0.07,0.94,0.2,1.34c0.35,0.53,0.75,1.02,1.13,1.53
	c2.37,3.27,5.03,6.34,7.06,9.86c0.87,1.51,1.75,3.02,2.64,4.51c0.34,0.57,0.44,1.19,0.44,1.82c0,1.53-1.06,2.29-2.53,1.89
	c-0.91-0.25-1.5-0.9-2.02-1.59c-0.53-0.69-1.05-1.43-1.35-2.23c-1.57-4.25-4.56-7.59-7.06-11.24c-0.54-0.79-1.09-1.55-1.5-2.41
	c-0.14-0.28-0.37-0.57-0.72-0.54c-0.55,0.05-0.5,0.53-0.51,0.9c-0.07,2.86-0.11,5.71-0.19,8.57c-0.12,4.6-0.54,9.16-1.25,13.71
	c-0.34,2.18-0.35,4.42-0.48,6.63c-0.05,0.96,0.07,2.05-0.97,2.49c-1.2,0.51-2.08-0.26-2.92-1.08c-1.53-1.5-1.91-3.19-1.65-5.36
	c0.86-6.99,2.03-13.95,2.18-21.02c0.02-0.7,0.25-1.41,0.23-2.11c-0.02-0.78-0.69-1.08-1.34-0.68c-0.2,0.12-0.38,0.29-0.54,0.47
	c-3.27,3.58-7.23,6.41-10.62,9.87c-1.1,1.12-1.94,1.17-3.05,0.13c-0.57-0.53-1.03-1.2-1.44-1.88c-0.79-1.29-0.65-2.1,0.51-3.13
	c1.01-0.89,2.01-1.81,3.11-2.57c3.42-2.35,6.21-5.4,9.37-8.05c0.29-0.24,0.68-0.52,0.59-0.96c-0.1-0.51-0.61-0.35-0.96-0.44
	c-1.63-0.42-3.31-0.43-4.96-0.44c-6.19-0.03-12.31-0.74-18.41-1.72c-1.94-0.31-3.89-0.5-5.8-1.02C2.3,47.15,0.31,45.14,0.04,43.49"
	/>
</svg>
