<?xml version="1.0" encoding="utf-8"?>
<!-- Generator: Adobe Illustrator 27.9.0, SVG Export Plug-In . SVG Version: 6.00 Build 0)  -->
<svg version="1.1" id="Layer_1" xmlns="http://www.w3.org/2000/svg" xmlns:xlink="http://www.w3.org/1999/xlink" x="0px" y="0px"
	 viewBox="0 0 58.77 69.5" style="enable-background:new 0 0 58.77 69.5;" xml:space="preserve">
<path d="M49.94,33.81c-3.34-0.16-6.67-0.33-10.01-0.48c-0.75-0.04-1.51-0.09-2.25-0.06c-0.62,0.03-1.46-0.3-1.74,0.55
	c-0.23,0.69,0.53,0.94,0.93,1.33c3.66,3.66,7.61,7.02,11.43,10.51c2.28,2.08,4.34,4.39,6.51,6.59c0.57,0.58,0.94,1.23,0.56,2.01
	c-0.34,0.7-1.08,0.67-1.75,0.72c-1.09,0.08-1.95-0.41-2.71-1.09c-1.12-1-2.19-2.05-3.14-3.23c-2.22-2.75-4.98-4.94-7.65-7.21
	c-1.92-1.63-3.65-3.43-5.13-5.47c-0.24-0.33-0.53-0.64-0.84-0.91c-0.18-0.16-0.44-0.24-0.69-0.1c-0.34,0.19-0.45,0.47-0.3,0.83
	c1.61,3.95,2.3,8.17,3.66,12.2c1.09,3.23,2.1,6.5,2.98,9.79c0.62,2.34,1.3,4.65,2.14,6.92c0.28,0.77,0.82,1.54-0.03,2.28
	c-0.79,0.68-2.4,0.67-3.28,0.06c-0.88-0.62-1.26-1.56-1.55-2.51c-0.83-2.7-1.56-5.43-2.35-8.14c-1.12-3.83-2.28-7.66-3.36-11.5
	c-0.47-1.68-0.75-3.41-1.12-5.11c-0.14-0.65-0.24-1.32-0.45-1.95c-0.09-0.27-0.41-0.61-0.67-0.65c-0.28-0.04-0.61,0.23-0.72,0.59
	c-0.46,1.51-1.02,3.01-1.38,4.55c-1.11,4.71-2.62,9.29-4.27,13.82c-0.37,1.01-0.62,2.25-2.12,2.52c-1.84,0.34-2.87-0.48-2.81-2.35
	c0.05-1.48,0.97-2.63,1.38-3.98c1.38-4.54,2.94-9.02,4.44-13.52c0.16-0.47,0.45-1.03-0.06-1.35c-0.46-0.29-0.91,0.12-1.37,0.34
	c-5.57,2.68-10.1,6.79-14.69,10.79c-1.03,0.9-2.08,0.98-3.24,0.81c-0.89-0.13-1.48-0.83-1.78-1.62c-0.29-0.76,0.42-1.23,0.91-1.63
	c2-1.64,4.05-3.21,6.07-4.82c4.26-3.39,9.09-5.82,13.84-8.39c0.71-0.38,2.14-0.43,1.71-1.69c-0.32-0.92-1.47-0.46-2.26-0.45
	c-4.43,0.04-8.84-0.32-13.24-0.84c-1.4-0.16-2.84-0.2-4.25-0.13c-1.79,0.09-3.28-0.41-4.52-1.7c-0.32-0.33-1-0.45-0.7-1.11
	c0.23-0.51,0.74-0.61,1.27-0.64c3.4-0.17,6.77-0.23,10.18,0.31c4.1,0.65,8.28,0.82,12.43,1.15c0.71,0.06,1-0.6,0.59-1.18
	c-0.19-0.27-0.4-0.58-0.67-0.73c-3.29-1.68-5.61-4.43-7.91-7.19c-2.58-3.1-5.7-5.62-8.64-8.33c-0.31-0.28-0.62-0.56-0.92-0.85
	c-0.57-0.57-0.89-1.26-0.52-2.03c0.31-0.65,0.99-0.47,1.56-0.53c1.33-0.12,2.33,0.36,3.39,1.22c4.71,3.81,8.37,8.61,12.53,12.95
	c0.63,0.66,1.27,1.81,2.17,1.3c0.97-0.55,0.14-1.72-0.15-2.48c-2.04-5.39-3.36-10.97-4.6-16.57c-0.19-0.89-0.65-1.72-0.8-2.61
	c-0.22-1.3,0.41-1.88,1.7-1.76c2.05,0.2,2.86,0.96,3.37,2.99c1.29,5.17,2.58,10.35,3.96,15.5c0.29,1.07,0.26,2.15,0.48,3.21
	c0.12,0.57,0.31,1.26,0.96,1.34c0.77,0.09,0.78-0.69,0.96-1.2c1.22-3.54,2.39-7.11,3.77-10.59c1.41-3.55,3.05-7.02,3.92-10.78
	c0.29-1.28,1.29-1.72,2.51-1.42c1.6,0.39,2.37,1.24,2.22,2.54c-0.05,0.41-0.24,0.79-0.34,1.2c-1.17,4.46-3.2,8.59-4.93,12.83
	c-1.22,3.01-2.53,5.98-3.8,8.97c-0.13,0.31-0.27,0.63-0.01,0.93c0.4,0.47,0.79,0.12,1.08-0.11c2.13-1.6,4.27-3.2,6.35-4.87
	c3.77-3.03,7.51-6.1,11.24-9.19c0.88-0.72,1.77-1.22,2.95-1.04c0.51,0.08,0.97,0.21,1.39,0.51c1.23,0.85,1.36,1.58,0.23,2.58
	c-1.68,1.5-3.39,2.98-5.23,4.28c-1.91,1.36-3.68,2.87-5.49,4.35c-2.46,2.01-5.19,3.64-7.83,5.39c-0.49,0.32-1.45,0.44-1.03,1.39
	c0.28,0.65,0.96,0.57,1.55,0.48c3.56-0.58,7.13-0.09,10.69-0.02c0.6,0.01,1.15-0.12,1.72-0.18c1.36-0.15,2.67,0.08,3.92,0.61
	c0.64,0.27,1.2,0.69,1.07,1.5c-0.12,0.77-0.7,1.11-1.42,1.19c-1.16,0.13-2.33,0.24-3.49,0.31c-0.83,0.05-1.67,0.01-2.51,0.01
	C49.95,33.77,49.95,33.79,49.94,33.81z"/>
</svg>
