<?xml version="1.0" encoding="utf-8"?>
<!-- Generator: Adobe Illustrator 27.9.0, SVG Export Plug-In . SVG Version: 6.00 Build 0)  -->
<svg version="1.1" id="Layer_1" xmlns="http://www.w3.org/2000/svg" xmlns:xlink="http://www.w3.org/1999/xlink" x="0px" y="0px"
	 viewBox="0 0 30.54 28.41" style="enable-background:new 0 0 30.54 28.41;" xml:space="preserve">
<path d="M12.66,22.58c0-1.17,0.01-2.33-0.01-3.5c-0.01-0.41-0.08-0.87-0.56-1c-0.44-0.12-0.78,0.12-1.1,0.43
	c-1.73,1.68-3.51,3.32-5.2,5.04c-0.7,0.72-1.39,1.32-2.38,0.79c-0.99-0.53-1.55-1.52-1.86-2.56c-0.15-0.51,0.33-0.88,0.77-1.17
	c1.75-1.16,3.2-2.67,4.77-4.04c0.44-0.38,0.82-0.83,1.23-1.25c0.24-0.24,0.45-0.52,0.33-0.87c-0.16-0.5-0.61-0.5-1.02-0.52
	c-0.76-0.05-1.5,0.08-2.22,0.3c-0.89,0.28-1.8,0.3-2.72,0.33c-0.81,0.03-1.47-0.29-2.06-0.78c-0.92-0.76-0.82-1.66,0.28-2.09
	c1.48-0.59,3.04-0.88,4.63-0.92c1.16-0.03,2.33,0.04,3.49,0.14c0.52,0.04,1.05,0.18,1.26-0.43c0.2-0.59-0.33-0.9-0.7-1.19
	C8.53,8.47,7.36,7.79,6.39,6.9C4.75,5.39,2.78,4.17,1.9,1.96C1.46,0.88,1.62,0.6,2.72,0.53C3.5,0.47,4.31,0.55,4.87,1.05
	c1.41,1.26,3.29,2.01,4.19,3.8c0.36,0.7,1.03,1.09,1.47,1.69c0.26,0.35,0.56,0.66,1.03,0.44c0.44-0.21,0.57-0.7,0.45-1.07
	c-0.45-1.42-0.02-2.81,0.06-4.21c0.1-1.6,0.48-1.83,2.32-1.65c1.57,0.15,2.22,0.81,2.11,2.16c-0.11,1.33-0.3,2.65-0.39,3.98
	c-0.03,0.46-0.17,1.05,0.44,1.3C17.01,7.67,17.29,7.26,17.6,7c0.71-0.57,1.42-1.07,1.97-1.87c0.75-1.09,1.75-2.02,2.72-2.92
	c0.83-0.77,1.71-0.77,2.69-0.02c1.85,1.43,1.92,1.92,0.41,3.79c-1.02,1.26-2.35,2.11-3.63,3.04c-0.33,0.24-0.72,0.57-0.64,1.01
	c0.13,0.67,0.76,0.54,1.22,0.52c1-0.05,1.99-0.18,2.98-0.25c1.25-0.09,2.51-0.1,3.72,0.3c0.83,0.28,1.64,0.73,1.46,1.73
	c-0.15,0.86-0.82,1.48-1.77,1.51c-1.17,0.04-2.37,0.15-3.5-0.08c-1.53-0.31-2.99,0.22-4.48,0.12c-0.2-0.01-0.51,0.16-0.6,0.33
	c-0.17,0.34,0.06,0.63,0.33,0.85c2.32,1.81,4.15,4.1,6.18,6.2c0.71,0.74,1.18,1.6,1.66,2.49c0.32,0.59,0.35,1.1-0.14,1.59
	c-0.52,0.52-1.12,0.72-1.82,0.39c-1.01-0.48-1.69-1.34-2.37-2.18c-1.85-2.26-3.53-4.66-5.77-6.57c-0.25-0.22-0.45-0.51-0.72-0.68
	c-0.52-0.32-0.98-0.29-1,0.46c-0.01,0.58,0.02,1.18,0.15,1.74c0.54,2.48,0.46,4.98,0.42,7.49c-0.03,1.87-0.29,2.28-1.47,2.4
	c-1.46,0.15-2.63-0.67-2.97-2.06c-0.04-0.16-0.06-0.33-0.06-0.5c-0.01-1.09,0-2.17,0-3.26C12.6,22.58,12.63,22.58,12.66,22.58z"/>
</svg>
