<?xml version="1.0" encoding="utf-8"?>
<!-- Generator: Adobe Illustrator 27.9.0, SVG Export Plug-In . SVG Version: 6.00 Build 0)  -->
<svg version="1.1" id="Layer_1" xmlns="http://www.w3.org/2000/svg" xmlns:xlink="http://www.w3.org/1999/xlink" x="0px" y="0px"
	 viewBox="0 0 70.64 102.69" style="enable-background:new 0 0 70.64 102.69;" xml:space="preserve">
<path d="M39.86,28.43c0,2.62,0.03,5.24-0.01,7.86c-0.04,2.85,0.2,5.71-0.28,8.55c-0.13,0.77-0.03,1.59-0.02,2.38
	c0.01,0.55-0.14,1.25,0.44,1.51c0.67,0.3,0.94-0.45,1.25-0.83c2.36-2.9,4.95-5.59,7.66-8.15c1.79-1.69,3.62-3.33,5.18-5.24
	c0.9-1.1,1.51-2.42,2.57-3.42c1.77-1.67,3.68-1.24,4.77,0.97c0.46,0.92,0,1.47-0.32,2.18c-2.05,4.53-5.51,7.87-9.21,11.02
	c-1.26,1.08-2.4,2.3-3.55,3.51c-0.6,0.64-0.37,1.19,0.53,1.25c3.63,0.24,7.25,0.53,10.86-0.34c2-0.48,4.05-0.75,6.07-1.12
	c1.78-0.32,3.08,0.53,4.15,1.8c1.29,1.53,0.63,3.47-1.32,3.72c-4.78,0.61-9.51,1.68-14.38,1.44c-1.67-0.08-3.34-0.27-4.93-0.57
	c-1.74-0.33-3.48-0.11-5.19-0.43c-0.08-0.01-0.16,0-0.24,0c-1.06,0.06-1.8,0.73-2.25,1.55c-0.47,0.85,0.29,1.5,0.83,2.04
	c3.18,3.13,5.65,6.82,8.16,10.47c0.84,1.22,1.4,2.61,2.6,3.63c0.7,0.59,1.29,1.69,0.63,2.79c-0.57,0.96-1.83,1.27-3.2,0.67
	c-1.31-0.58-2.44-1.43-3.33-2.58c-1.26-1.64-2.09-3.54-3.2-5.27c-0.98-1.53-2.04-3.02-3.06-4.52c-0.18-0.26-0.42-0.54-0.76-0.45
	c-0.56,0.15-0.31,0.65-0.28,0.98c0.3,3.24,0.65,6.47,0.93,9.7c0.29,3.31,0.47,6.64,0.8,9.94c0.53,5.36,0.49,10.76,1.52,16.08
	c0.49,2.52-1.13,3.73-3.58,2.83c-1.54-0.57-2.54-1.58-2.71-3.28c-0.26-2.6-0.62-5.19-0.79-7.79c-0.46-6.87-0.96-13.74-1.16-20.63
	c-0.05-1.82-0.31-3.63-0.48-5.44c-0.04-0.4-0.12-0.81-0.58-0.9c-0.36-0.07-0.55,0.26-0.76,0.48c-2.07,2.18-4.18,4.31-5.96,6.76
	c-1.32,1.82-2.37,1.87-4.2,0.55c-0.19-0.14-0.37-0.3-0.55-0.45c-1.62-1.31-1.71-2.21-0.37-3.75c3.25-3.7,6.8-7.12,10.33-10.54
	c0.8-0.77,1.88-1.42,1.25-2.76c-0.56-1.19-1.41-1.83-2.93-1.97c-6.41-0.61-12.84-0.2-19.25-0.77c-1.87-0.17-3.78,0.23-5.68,0.34
	c-2,0.12-3.73-0.51-5.2-1.9c-0.65-0.62-0.85-1.29-0.53-2.14C0.47,47.31,1.1,47.05,2,47.05c4.11-0.03,8.21-0.35,12.34-0.17
	c3.86,0.17,7.72,0.21,11.57,0.65c0.39,0.04,0.8,0.02,1.19-0.01c0.59-0.05,0.63-0.48,0.4-0.84c-0.38-0.6-0.84-1.15-1.3-1.69
	c-3.33-3.93-6.63-7.89-9.23-12.36c-0.74-1.27-1.64-2.52-1.46-4.18c0.11-0.97,0.44-1.43,1.46-1.43c0.93,0,1.71,0.29,2.4,0.87
	c0.99,0.83,1.84,1.79,2.31,2.99c0.78,2.03,2.02,3.78,3.36,5.45c2.67,3.35,5.42,6.64,7.9,10.13c0.19,0.27,0.39,0.55,0.73,0.39
	c0.29-0.14,0.42-0.46,0.42-0.8c0.01-1.99,0.02-3.97,0.02-5.96c0-4.17,0.05-8.35-0.01-12.52c-0.09-5.55,0.26-11.11-0.22-16.67
	c-0.27-3.08-0.18-6.19-0.21-9.29c-0.01-1.38,0.63-1.84,1.97-1.52c1.95,0.48,3.96,2.8,3.96,4.8c-0.01,5.86,0.26,11.73,0.4,17.59
	c0.05,1.98,0.01,3.96,0.01,5.94C39.96,28.44,39.91,28.44,39.86,28.43z"/>
</svg>
