<?xml version="1.0" encoding="utf-8"?>
<!-- Generator: Adobe Illustrator 27.9.0, SVG Export Plug-In . SVG Version: 6.00 Build 0)  -->
<svg version="1.1" id="Layer_1" xmlns="http://www.w3.org/2000/svg" xmlns:xlink="http://www.w3.org/1999/xlink" x="0px" y="0px"
	 viewBox="0 0 55.57 57.51" style="enable-background:new 0 0 55.57 57.51;" xml:space="preserve">
<path d="M25.68,39.52c0.11-1.75-0.17-3.59,0.24-5.42c0.09-0.42-0.06-0.87-0.49-1.06c-0.47-0.21-0.77,0.15-1.02,0.48
	c-2.44,3.22-5.47,5.84-8.53,8.44c-0.51,0.43-1.04,0.86-1.63,1.15c-1.26,0.62-3.04-0.09-3.6-1.37c-0.41-0.93,0.27-1.38,0.89-1.82
	c3.81-2.75,7-6.18,10.31-9.48c0.53-0.53,1.03-1.1,1.45-1.71c0.56-0.83,0.37-1.22-0.59-1.28c-0.92-0.06-1.84,0.01-2.76-0.03
	c-5.25-0.21-10.5-0.44-15.76-0.63c-1.41-0.05-2.58-0.59-3.61-1.52c-0.39-0.35-0.69-0.75-0.53-1.31c0.2-0.68,0.79-0.88,1.38-0.83
	c1.15,0.09,2.3,0.08,3.46,0.1c2.73,0.04,5.47,0.26,8.19,0.58c1.58,0.19,3.13-0.2,4.72,0.06c1.21,0.2,2.48-0.04,3.67,0.5
	c0.44,0.2,1.02,0.24,1.3-0.34c0.22-0.46-0.14-0.78-0.41-1.08c-1.12-1.23-2.34-2.36-3.33-3.73c-1.46-2.03-3.07-3.95-4.41-6.08
	c-1.12-1.77-2.64-3.2-4.31-4.49C9.68,8.18,8.76,7.6,9.34,6.61c0.56-0.94,1.43-0.45,2.24-0.24c1.84,0.48,3.31,1.47,4.58,2.88
	c2.58,2.88,4.44,6.26,6.7,9.36c0.57,0.78,1.14,2.26,1.93,1.97c0.94-0.35,0.23-1.74,0.14-2.67c-0.44-4.65-0.42-9.34-1.16-13.97
	c-0.14-0.87,0.15-1.82,0.28-2.73c0.15-1.06,0.79-1.36,1.8-1.16c1.99,0.38,2.69,1.14,2.67,3.23c-0.06,5.68,0.94,11.33,0.4,17.02
	c-0.05,0.55-0.05,1.28,0.71,1.39c0.52,0.08,0.78-0.39,1.09-0.83c0.87-1.21,1.79-2.42,2.86-3.45c2.76-2.66,5.17-5.67,8.1-8.17
	c1.14-0.97,3.24-0.81,4.16,0.36c0.49,0.62,0.46,1.24-0.09,1.8c-0.59,0.6-1.2,1.17-1.8,1.74c-3.64,3.45-6.94,7.24-10.76,10.5
	c-0.25,0.22-0.49,0.46-0.68,0.73c-0.4,0.54-0.26,0.97,0.39,1.08c0.74,0.13,1.49,0.17,2.24,0.18c2.42,0.02,4.85-0.09,7.27,0.02
	c2.06,0.09,4.13,0.33,6.17,0.67c1.49,0.25,3.02-0.04,4.47,0.51c0.47,0.18,0.96,0.29,1.42,0.49c0.56,0.24,1.03,0.63,1.07,1.28
	c0.04,0.79-0.54,1.18-1.16,1.47c-1.12,0.51-2.35,0.41-3.44,0.1c-4.41-1.25-8.97-0.65-13.44-1.19c-1.4-0.17-2.85,0.05-4.23-0.34
	c-0.28-0.08-0.54-0.04-0.63,0.18c-0.09,0.2-0.08,0.52,0.02,0.71c0.16,0.28,0.46,0.47,0.68,0.71c1.83,2.06,3.41,4.31,4.63,6.78
	c1.06,2.14,2.55,3.9,4.24,5.54c0.3,0.29,0.58,0.6,0.88,0.89c0.7,0.67,0.91,1.47,0.31,2.24c-0.63,0.81-1.45,0.96-2.43,0.41
	c-0.75-0.42-1.35-0.95-1.95-1.54c-2.53-2.48-4.59-5.27-6.04-8.53c-0.57-1.29-1.33-2.51-2.04-3.74c-0.2-0.35-0.57-0.69-1.02-0.53
	c-0.5,0.18-0.35,0.67-0.33,1.07c0.21,4.5,0.67,9,0.62,13.51c-0.03,2.92,0.11,5.82,0.44,8.71c0.1,0.88,0.27,1.94-0.87,2.36
	c-1.1,0.4-2.59-0.3-3.22-1.37c-0.31-0.53-0.4-1.08-0.42-1.67c-0.11-3.75-0.29-7.51-0.32-11.26C25.83,41.93,25.74,40.77,25.68,39.52z
	"/>
</svg>
