<?xml version="1.0" encoding="utf-8"?>
<!-- Generator: Adobe Illustrator 27.9.0, SVG Export Plug-In . SVG Version: 6.00 Build 0)  -->
<svg version="1.1" id="Layer_1" xmlns="http://www.w3.org/2000/svg" xmlns:xlink="http://www.w3.org/1999/xlink" x="0px" y="0px"
	 viewBox="0 0 51.72 43.79" style="enable-background:new 0 0 51.72 43.79;" xml:space="preserve">
<path d="M30.66,37.87c0,1.5,0.04,3.01-0.01,4.51c-0.05,1.25-0.56,1.59-1.78,1.32c-1.71-0.38-2.5-1.42-2.46-3.54
	c0.04-2.25,0.21-4.5,0.31-6.75c0.06-1.41,0.09-2.82,0.09-4.23c0-0.38,0.06-0.9-0.44-1.04c-0.36-0.1-0.59,0.24-0.81,0.48
	c-1.19,1.29-2.46,2.52-3.57,3.87c-3.08,3.77-6.62,7.05-10.4,10.09c-1.26,1.01-3,0.61-3.77-0.84c-0.34-0.64-0.36-1.29,0.19-1.85
	c0.29-0.3,0.57-0.62,0.91-0.86c3.86-2.7,6.89-6.29,10.2-9.57c0.57-0.56,1.55-1.16,1.21-2c-0.43-1.04-1.47-0.11-2.23-0.18
	c-4.72-0.45-9.48-0.23-14.19-0.84c-1.23-0.16-2.21-0.71-3.18-1.35c-0.63-0.42-0.86-1.08-0.61-1.76c0.29-0.79,0.95-0.66,1.68-0.55
	c5.04,0.79,10.12,0.92,15.2,1.14c1.33,0.06,2.66,0.21,3.99,0.35c0.57,0.06,1.22,0.31,1.59-0.31c0.42-0.71-0.26-0.99-0.66-1.4
	c-2.99-3.04-5.96-6.08-8.93-9.14c-0.64-0.66-1.21-1.38-1.54-2.26c-0.12-0.33-0.2-0.65,0.04-0.94c0.32-0.37,0.69-0.32,1.12-0.13
	c1.46,0.62,2.88,1.27,4,2.48c2.72,2.94,5.49,5.84,8.24,8.75c0.38,0.4,0.51,1.27,1.24,1.02c0.8-0.28,0.52-1.14,0.53-1.76
	c0.03-2.66-0.07-5.32,0.03-7.98c0.15-3.83,0.41-7.67,0.66-11.5c0.08-1.19,0.5-1.35,1.64-0.87c1.72,0.71,2.52,1.76,2.45,3.8
	c-0.13,3.84-0.88,7.63-0.92,11.47c-0.01,0.9-0.56,2.12,0.29,2.55c1,0.51,1.76-0.69,2.34-1.36c2.08-2.41,4.32-4.64,6.78-6.65
	c0.84-0.68,1.67-0.92,2.72-0.24c2.18,1.42,2.28,2.13,0.03,3.45c-1.22,0.72-1.89,1.86-2.78,2.82c-2.06,2.22-4.49,3.99-6.88,5.79
	c-0.47,0.35-0.96,0.68-1.37,1.09c-0.47,0.46-0.38,0.88,0.29,1.07c0.24,0.07,0.5,0.06,0.75,0.05c4.85-0.26,9.64,0.76,14.49,0.56
	c1.42-0.06,2.79,0.38,3.96,1.3c0.44,0.35,0.72,0.7,0.64,1.24c-0.1,0.68-0.58,0.99-1.22,1.03c-0.67,0.04-1.35,0.12-2,0.02
	c-1.98-0.3-3.99-0.28-5.96-0.54c-2.08-0.28-4.14-0.4-6.23-0.47c-1.07-0.03-2.15,0.02-3.23-0.26c-0.57-0.15-1.43-0.41-1.75,0.4
	c-0.26,0.65,0.41,1.04,0.83,1.41c1.76,1.54,3.46,3.17,5.35,4.52c2.81,2.01,4.78,4.91,7.57,6.92c0.51,0.37,0.58,0.95,0.32,1.58
	c-0.28,0.67-0.85,0.8-1.43,0.78c-0.67-0.02-1.31-0.28-1.82-0.75c-0.68-0.61-1.41-1.19-2.01-1.88c-2.37-2.71-5.27-4.87-7.83-7.38
	c-0.29-0.29-0.62-0.68-1.06-0.53c-0.59,0.2-0.51,0.82-0.52,1.29c-0.03,1.5-0.01,3.01-0.01,4.51C30.69,37.87,30.68,37.87,30.66,37.87
	z"/>
</svg>
