<?xml version="1.0" encoding="utf-8"?>
<!-- Generator: Adobe Illustrator 27.9.0, SVG Export Plug-In . SVG Version: 6.00 Build 0)  -->
<svg version="1.1" id="Layer_1" xmlns="http://www.w3.org/2000/svg" xmlns:xlink="http://www.w3.org/1999/xlink" x="0px" y="0px"
	 viewBox="0 0 82.18 104.81" style="enable-background:new 0 0 82.18 104.81;" xml:space="preserve">
<path d="M45.28,74.62c0.16,7.45-0.69,14.87-0.49,22.32c0.05,1.98,0.35,3.96,0.08,5.95c-0.19,1.38-0.55,1.76-1.9,1.9
	c-1.97,0.21-3.31-0.84-4.48-2.23c-0.3-0.35-0.19-0.68-0.08-1.09c0.4-1.55,0.31-3.13,0.25-4.72c-0.16-4.05,0.13-8.09,0.24-12.14
	c0.13-4.6,0.23-9.2,0.33-13.8c0.01-0.37,0.12-0.85-0.3-1.06c-0.48-0.24-0.63,0.27-0.91,0.51c-1.53,1.29-2.65,2.92-3.8,4.53
	c-0.83,1.16-1.66,2.32-2.5,3.47c-0.33,0.45-0.71,0.82-1.32,0.91c-1.35,0.21-3.81-1.28-4.18-2.6c-0.26-0.92-0.05-1.75,0.65-2.4
	c4.24-3.94,7.12-9.14,11.68-12.79c0.73-0.59,1-1.41,1.06-2.31c0.09-1.25-0.28-1.73-1.55-1.85c-3.7-0.34-7.45-0.43-11.11-1.03
	c-4.7-0.77-9.46-0.77-14.17-1.4c-1.95-0.26-3.96-0.08-5.95-0.11c-2.11-0.03-4.05-0.57-5.75-1.88c-0.76-0.58-1.29-1.28-0.99-2.23
	c0.34-1.07,1.26-1.27,2.31-1.21c6.55,0.42,13.12,0.27,19.66,1.13c4.22,0.56,8.5,0.74,12.71,1.54c0.31,0.06,0.63,0.11,0.95,0.09
	c0.31-0.02,0.72-0.04,0.88-0.24c0.29-0.35,0.01-0.73-0.23-1.06c-2.33-3.3-4.66-6.61-7-9.91c-2.28-3.23-4.57-6.45-6.86-9.67
	c-0.59-0.83-0.89-1.7-0.23-2.62c0.71-1,1.7-0.65,2.59-0.39c1.1,0.33,1.85,1.18,2.58,2.03c2.29,2.64,3.99,5.7,6.01,8.54
	c1.61,2.25,3.49,4.32,4.75,6.82c0.17,0.34,0.48,0.7,0.93,0.55c0.46-0.16,0.36-0.64,0.39-1.02c0.35-4.66,0.76-9.32,1.01-13.99
	c0.17-3.24,0.01-6.49-0.27-9.73c-0.38-4.44-0.1-8.88,0.56-13.28c0.31-2.07,0.22-4.11,0.3-6.17c0.08-2.11,0.41-2.34,2.45-1.64
	c2.67,0.92,3.08,1.72,3.33,4.5c0.32,3.51-0.46,6.92-0.57,10.39c-0.12,3.65,0.04,7.28,0.27,10.92c0.24,3.86,0.37,7.77-0.24,11.64
	c-0.28,1.8-0.46,3.62-0.55,5.43c-0.13,2.76-0.83,5.49-0.55,8.28c0.05,0.52-0.18,1.17,0.51,1.44c0.66,0.26,1.02-0.24,1.39-0.64
	c0.65-0.69,1.4-1.32,1.93-2.1c2.48-3.63,5.58-6.71,8.59-9.86c1.92-2.01,3.9-3.94,5.6-6.15c0.38-0.49,0.91-0.88,1.43-1.23
	c1.2-0.82,2.28-0.68,3.4,0.38c1.11,1.06,1.33,2.17,0.46,3.39c-1.01,1.42-2.09,2.8-3.26,4.08c-2.41,2.64-4.9,5.2-7.34,7.8
	c-1.19,1.27-2.4,2.54-3.53,3.86c-0.63,0.73-0.33,1.34,0.66,1.4c0.95,0.06,1.91,0.05,2.86,0.02c6.85-0.23,13.62,0.56,20.39,1.43
	c1.16,0.15,2.12,0.62,2.94,1.42c0.92,0.89,1.07,1.85,0.63,3.02c-0.42,1.1-1.23,1.23-2.27,1.26c-1.38,0.04-2.68-0.36-3.99-0.57
	c-6.9-1.1-13.86-1.28-20.81-1.51c-1.5-0.05-3-0.23-4.49-0.43c-1.04-0.14-1.61,0.41-2.16,1.14c-0.62,0.81,0.02,1.34,0.41,1.89
	c2.01,2.84,3.96,5.72,6.09,8.48c1.5,1.94,2.73,4.08,4.06,6.14c0.21,0.32,0.42,0.74,0.4,1.1c-0.05,0.91,0.38,2.15-0.55,2.62
	c-0.93,0.47-2.14,0.56-3.18-0.16c-1.2-0.83-2.15-1.86-2.77-3.19c-1.68-3.62-4.32-6.62-6.42-9.97c-0.1-0.16-0.37-0.33-0.56-0.32
	c-0.44,0.03-0.39,0.44-0.39,0.73c-0.02,2.14-0.01,4.29-0.02,6.43C45.28,73.83,45.28,74.23,45.28,74.62z"/>
</svg>
