<?xml version="1.0" encoding="utf-8"?>
<!-- Generator: Adobe Illustrator 27.9.0, SVG Export Plug-In . SVG Version: 6.00 Build 0)  -->
<svg version="1.1" id="Layer_1" xmlns="http://www.w3.org/2000/svg" xmlns:xlink="http://www.w3.org/1999/xlink" x="0px" y="0px"
	 viewBox="0 0 47.11 54.13" style="enable-background:new 0 0 47.11 54.13;" xml:space="preserve">
<path d="M22.01,41.84c0.03-2.78-0.08-4.77-0.41-6.75c-0.05-0.32-0.03-0.71-0.36-0.86c-0.48-0.22-0.81,0.14-1.05,0.46
	c-1.48,2.03-3.01,4.01-4.74,5.83c-1.72,1.81-3.43,3.64-5.21,5.41c-1.37,1.36-2.21,1.42-3.51,0.45c-1.56-1.15-1.64-1.94-0.03-3.08
	c3.32-2.37,5.51-5.79,8.26-8.69c1.2-1.27,2.37-2.58,3.58-3.84c0.33-0.34,0.88-0.61,0.64-1.21c-0.25-0.61-0.77-0.42-1.28-0.35
	c-3.68,0.47-7.33-0.08-10.96-0.55c-1.55-0.2-3.17,0.04-4.66-0.77C1.25,27.33,0.02,27.01,0,25.57c-0.01-0.78,1.13-1.01,3.07-0.63
	c4.76,0.93,9.62,0.95,14.42,1.47c0.51,0.06,0.99-0.03,1.44-0.29c0.57-0.33,0.65-0.71,0.17-1.17c-0.18-0.17-0.38-0.33-0.59-0.47
	c-4.44-2.99-7.8-7.01-10.87-11.32c-0.44-0.61-0.92-1.19-1.36-1.8c-0.24-0.34-0.48-0.72-0.21-1.15c0.3-0.48,0.74-0.56,1.3-0.48
	c1.72,0.24,3.19,0.8,4.11,2.43c1.2,2.12,2.86,3.9,4.36,5.8c1.16,1.46,2.77,2.41,3.96,3.82c0.21,0.25,0.56,0.35,0.91,0.16
	c0.37-0.2,0.34-0.55,0.29-0.87c-0.81-6.22,0.01-12.52-0.9-18.74c-0.07-0.49-0.01-1,0.06-1.49C20.25,0.41,20.56,0.1,21,0.02
	c1.32-0.22,3.44,1.27,3.42,2.57c-0.06,3.25,0.42,6.46,0.37,9.73c-0.05,3.22-0.06,6.46-0.05,9.69c0,0.34-0.05,0.7,0.28,0.89
	c0.4,0.24,0.81,0.15,1.16-0.14c0.26-0.21,0.54-0.43,0.71-0.7c1.89-3.24,5.01-5.35,7.45-8.08c0.68-0.77,3.39-0.61,4.09,0.18
	c0.54,0.61,0.32,1.24-0.1,1.82c-0.98,1.36-2.2,2.52-3.43,3.64c-1.72,1.58-3.47,3.13-5.23,4.67c-0.33,0.29-0.67,0.57-0.51,1.03
	c0.14,0.41,0.53,0.62,0.98,0.66c0.17,0.02,0.34,0.05,0.5,0.03c4.19-0.34,8.31,0.76,12.49,0.65c1.04-0.03,1.98,0.23,2.9,0.64
	c0.77,0.34,1.26,0.87,1.05,1.75c-0.19,0.78-0.83,0.93-1.56,0.95c-2.25,0.05-4.46-0.31-6.69-0.53c-2.81-0.28-5.62-0.66-8.43-0.93
	c-0.64-0.06-1.31,0.18-1.97,0.15c-0.49-0.02-1.01-0.31-1.28,0.32c-0.22,0.53,0.11,0.99,0.4,1.38c2.36,3.14,4.86,6.16,7.77,8.82
	c0.55,0.51,1.11,1.03,1.55,1.63c0.45,0.62,0.78,1.39,0.09,2.04c-0.64,0.6-1.49,0.88-2.31,0.42c-0.64-0.37-1.29-0.84-1.73-1.42
	c-1.81-2.39-4.52-4-5.91-6.75c-0.18-0.36-0.56-0.66-1.03-0.54c-0.55,0.14-0.49,0.63-0.45,1.02c0.11,1.08,0.32,2.14,0.42,3.22
	c0.38,4.24,0.74,8.47,1.1,12.71c0.08,0.98,0.39,2.09-0.96,2.49c-1.08,0.32-2.35-0.25-2.99-1.35c-0.25-0.42-0.46-0.92-0.5-1.39
	C22.34,47.89,22.16,44.47,22.01,41.84z"/>
</svg>
