<?xml version="1.0" encoding="utf-8"?>
<!-- Generator: Adobe Illustrator 27.9.0, SVG Export Plug-In . SVG Version: 6.00 Build 0)  -->
<svg version="1.1" id="Layer_1" xmlns="http://www.w3.org/2000/svg" xmlns:xlink="http://www.w3.org/1999/xlink" x="0px" y="0px"
	 viewBox="0 0 46.43 50.07" style="enable-background:new 0 0 46.43 50.07;" xml:space="preserve">
<path d="M23.52,10.13c0,2.76-0.01,5.52,0,8.28c0,0.5,0.01,1.03,0.67,1.16c0.51,0.1,0.71-0.3,0.98-0.61c2.21-2.5,4.46-4.97,6.63-7.5
	c0.98-1.15,2.16-1.5,3.57-1.27c1.54,0.25,1.86,0.99,0.93,2.21c-2.44,3.19-5.16,6.13-8.11,8.85c-0.31,0.28-0.67,0.51-0.94,0.82
	c-0.41,0.47-0.39,0.92,0.31,1.07c0.49,0.1,1,0.11,1.49,0.16c4.64,0.49,9.27,1.23,13.96,0.84c0.77-0.07,1.5,0.07,2.2,0.35
	c1.42,0.56,1.6,1.66,0.44,2.65c-0.53,0.45-1.13,0.67-1.83,0.69c-3.84,0.15-7.66-0.01-11.45-0.69c-2.37-0.43-4.77-0.73-7.16-1.07
	c-0.32-0.05-0.68-0.05-0.99,0.04c-0.66,0.2-1.01,0.66-0.55,1.31c0.38,0.54,0.85,1.03,1.34,1.48c4.84,4.39,8.82,9.56,13.18,14.39
	c0.81,0.9,0.68,1.78-0.22,2.59c-1.11,0.99-2.79,1.05-3.55-0.12c-1.64-2.55-4.01-4.48-5.67-6.98c-1.16-1.76-3.04-2.85-4.16-4.65
	c-0.36-0.58-0.92-0.24-1.02,0.36c-0.1,0.57-0.07,1.17,0,1.75c0.46,3.82,0.46,7.66,0.42,11.5c-0.02,1.87-1.51,2.82-3.21,2.15
	c-0.88-0.34-1.38-0.93-1.3-1.9c0.3-3.56-0.26-7.13,0.19-10.7c0.2-1.54-0.1-3.15-0.24-4.72c-0.08-0.9-0.64-1.07-1.35-0.36
	c-2.54,2.54-5.06,5.1-7.56,7.68c-1.16,1.2-2.21,2.5-3.38,3.69C6,44.71,5.07,44.85,3.79,44.21c-1.67-0.83-1.86-1.83-0.38-3.02
	c1.57-1.27,2.98-2.68,4.33-4.15c2.55-2.76,5.4-5.19,8.13-7.76c0.49-0.46,0.99-0.91,1.43-1.41c0.87-0.98,0.66-1.57-0.67-1.83
	c-0.57-0.11-1.17-0.18-1.75-0.15c-3.25,0.15-6.48-0.31-9.72-0.39c-1.43-0.03-2.78-0.44-4.13-0.92C0.4,24.34,0.02,23.96,0,23.34
	c-0.02-0.68,0.5-1.11,1.09-1.17c1.07-0.1,2.1-0.52,3.21-0.28c2.54,0.54,5.18,0.07,7.72,0.65c0.16,0.04,0.33,0.02,0.5,0
	c0.31-0.04,0.68,0.03,0.85-0.36c0.15-0.37-0.06-0.63-0.28-0.88c-2.19-2.51-4.42-4.98-6.81-7.31c-1.13-1.1-2.38-2.11-3.12-3.56
	C2.75,9.62,2.53,8.88,3.45,8.24c1.3-0.9,3.07-1.07,3.6-0.16c1.68,2.87,4.53,4.67,6.47,7.29c1.44,1.94,2.99,3.81,4.49,5.71
	c0.3,0.37,0.5,1.02,1.1,0.82c0.54-0.18,0.57-0.76,0.49-1.28c-0.5-3.31-0.16-6.66-0.58-9.99c-0.38-2.99,0.48-5.98,0.19-9
	c-0.1-1.12,0.84-1.65,2.35-1.63c1.41,0.02,2.22,0.64,2.12,1.86C23.44,4.62,23.54,7.37,23.52,10.13z"/>
</svg>
