<?xml version="1.0" encoding="UTF-8"?><svg id="Layer_1" xmlns="http://www.w3.org/2000/svg" viewBox="0 0 60.48 90.11"><defs><style>.cls-1{stroke-width:0px;}</style></defs><path class="cls-1" d="m28.02,68.43c0-4.27,0-8.53,0-12.8,0-.5.01-1,0-1.51-.01-.4.07-.88-.4-1.08-.53-.23-.99,0-1.35.38-1.32,1.4-2.61,2.82-3.93,4.22-1.21,1.27-2.46,2.51-3.66,3.79-.87.93-1.94,1.26-3.17,1.18-.71-.05-1.32-.28-1.59-1.01-.22-.6-.06-1.15.4-1.6.24-.24.45-.49.69-.72,3.15-2.98,6.29-5.97,9.45-8.93.67-.62,1.47-1.1,2.13-1.74,1.06-1.02.74-2.18-.68-2.63-.31-.1-.66-.14-.99-.11-5.68.39-11.34-.52-17.01-.39-1.84.04-3.68.05-5.51.02-.57,0-1.16,0-1.68-.37-.96-.68-.96-1.5.06-2.14,1.1-.69,2.3-.85,3.59-.88,5.41-.11,10.83-.27,16.21.49.39.06.92.12,1.13-.28.3-.57-.24-.91-.57-1.25-2.84-2.82-5.69-5.64-8.55-8.44-.35-.35-.82-.58-1.03-1.06-.46-1.06-.08-1.8,1.06-1.98,1.53-.23,2.9-.06,4.17,1.08,2.67,2.42,5,5.15,7.41,7.8.56.62,1,1.36,1.75,1.77.59.32,1.04.09,1-.56-.05-.91-.37-1.8-.39-2.71-.07-2.67-.2-5.36-.01-8.01.22-3.09.19-6.19.5-9.25.33-3.27-.09-6.45-.32-9.68-.19-2.7.06-5.49.07-8.24,0-1.09.66-1.66,1.73-1.76,1.13-.1,2.16.37,2.42,1.32.24.88.44,1.83.36,2.72-.28,3.18.03,6.34.05,9.51.05,5.93-.38,11.85-.71,17.77-.18,3.32.08,6.67.27,9.99.1,1.76,1.08,2.26,2.52,1.22,1.47-1.07,2.69-2.49,4.06-3.7,1.74-1.53,3.23-3.39,5.46-4.32.63-.26,1.25-.49,1.93-.45,1.22.07,1.76.95,1.3,2.08-.26.64-.72,1.05-1.28,1.47-1.81,1.34-3.41,2.94-5.3,4.19-.8.53-.67,1.07.19,1.41.55.22,1.11.26,1.7.31,3.94.35,7.85,0,11.76-.35,1.52-.14,3,.08,4.51.1.49,0,.98.2,1.45.34.81.25,1.25.86,1.24,1.68,0,.75-.59,1.24-1.23,1.44-.95.3-1.97.48-2.96.17-1.73-.54-3.45-.32-5.21-.14-4.33.43-8.67.7-12.94-.49-.91-.25-1.82-.22-2.73-.27-.73-.04-1.34.29-1.59.98-.24.65.23,1.08.66,1.49,1.33,1.26,2.79,2.38,4.02,3.76,1.93,2.19,3.86,4.37,5.63,6.71,1.15,1.52,2.58,2.83,3.98,4.14.66.61,1.31,1.12.81,2.08-.45.87-2.4,1.55-3.27,1.2-1.12-.46-1.94-1.31-2.7-2.19-2.02-2.34-4-4.71-5.97-7.09-1.34-1.6-2.63-3.24-3.97-4.84-.25-.3-.55-.71-1.03-.47-.44.22-.43.7-.36,1.1.86,4.46.68,9,.59,13.47-.12,5.84.06,11.69-.24,17.53-.08,1.59-.63,3.1-1.32,4.54-.22.45-.45.88-.92,1.15-1.87,1.09-2.99.56-3.3-1.6-.17-1.24-.34-2.39.91-3.38.78-.62.48-1.88.49-2.86.03-4.43.02-8.86.02-13.29.06,0,.11,0,.17,0Z"/></svg>