<?xml version="1.0" encoding="utf-8"?>
<!-- Generator: Adobe Illustrator 27.9.0, SVG Export Plug-In . SVG Version: 6.00 Build 0)  -->
<svg version="1.1" id="Layer_1" xmlns="http://www.w3.org/2000/svg" xmlns:xlink="http://www.w3.org/1999/xlink" x="0px" y="0px"
	 viewBox="0 0 72.7 73.34" style="enable-background:new 0 0 72.7 73.34;" xml:space="preserve">
<path d="M33.05,15.22c0-4.34,0-8.68,0-13.03c0-0.92-0.12-1.92,1.15-2.15c1.43-0.26,2.94,0.51,3.23,1.73
	c0.17,0.72,0.15,1.5,0.11,2.24c-0.21,5.01-0.56,10.01-0.49,15.02c0.06,4.17,0.15,8.35-0.5,12.5c-0.03,0.16-0.03,0.33-0.03,0.5
	c0.01,0.42,0.02,0.87,0.52,1.01c0.35,0.09,0.65-0.12,0.88-0.36c2.55-2.66,5.63-4.69,8.37-7.13c4.68-4.17,9.9-7.66,14.72-11.65
	c1.22-1.01,2.48-0.86,3.75-0.27c0.94,0.43,1.1,1.23,0.44,2.04c-0.47,0.58-1.04,1.1-1.63,1.56c-3.17,2.45-6.37,4.86-9.54,7.31
	c-1.51,1.18-2.94,2.47-4.46,3.64c-2.57,1.99-4.87,4.34-7.75,5.92c-0.41,0.23-0.93,0.53-0.67,1.15c0.2,0.47,0.71,0.35,1.1,0.36
	c4.35,0.07,8.7,0.29,13.03,0.13c4.78-0.17,9.49,0.7,14.26,0.56c0.86-0.03,1.66,0.26,2.37,0.7c1.02,0.63,1.01,1.72,0.04,2.45
	c-0.64,0.47-1.35,0.53-2.13,0.57c-2.19,0.11-4.37-0.1-6.48-0.52c-3.21-0.64-6.42-0.1-9.63-0.33c-4.31-0.31-8.66-0.1-12.97-0.51
	c-0.33-0.03-0.67-0.07-1-0.03c-0.78,0.08-1,0.57-0.72,1.23c0.16,0.37,0.45,0.7,0.75,0.99c4.46,4.32,7.95,9.45,11.81,14.26
	c1.04,1.3,2.11,2.59,3.25,3.8c3.5,3.71,6.26,8.02,9.55,11.91c0.89,1.06,0.51,2.01-0.81,2.39c-1.19,0.35-2.45-0.08-3.28-1.27
	c-4.45-6.38-9.75-12.06-14.59-18.12c-2.6-3.25-5-6.67-7.74-9.82c-0.22-0.25-0.42-0.52-0.62-0.79c-0.21-0.27-0.46-0.54-0.81-0.37
	c-0.31,0.15-0.44,0.49-0.44,0.84c0.01,1.17-0.02,2.34,0.05,3.51c0.3,5.25,0.33,10.5,0.16,15.76c-0.03,1-0.16,1.97-0.01,2.98
	c0.23,1.46-0.15,1.98-1.33,2.21c-1.35,0.27-2.66-0.44-2.92-1.65c-0.12-0.57-0.18-1.17-0.15-1.74c0.37-6.26-0.11-12.53,0.15-18.8
	c0.04-0.92,0.16-1.83,0.23-2.74c0.03-0.35-0.09-0.66-0.37-0.88c-0.44-0.34-0.77-0.07-1.09,0.21c-2.29,1.96-4.78,3.63-7.21,5.39
	c-4.6,3.32-9.32,6.46-14.06,9.58C7.93,58.6,6.5,59.86,5.12,61.2c-1.2,1.16-2.71,1.34-4.09,0.55c-1.22-0.69-1.4-1.48-0.31-2.32
	c3.03-2.35,5.89-4.94,9.18-6.95c2.99-1.82,5.88-3.77,8.67-5.89c2.65-2.02,5.47-3.83,8.22-5.72c0.41-0.28,0.87-0.51,1.26-0.82
	c0.57-0.45,1.58-0.78,1.4-1.59c-0.21-0.94-1.27-0.37-1.93-0.54c-1.72-0.46-3.48-0.29-5.23-0.35c-5.34-0.19-10.67-0.43-16.01-0.59
	c-1.81-0.06-3.43-0.65-4.97-1.53c-0.43-0.25-0.88-0.6-0.72-1.18c0.14-0.49,0.54-0.87,1.05-1c0.82-0.2,1.67-0.24,2.49-0.06
	c3.05,0.65,6.16,0.45,9.24,0.52c3.59,0.09,7.17,0.43,10.76,0.52c1.76,0.04,3.48,0.31,5.19,0.74c0.48,0.12,1.02,0.27,1.32-0.31
	c0.24-0.46-0.14-0.77-0.4-1.08c-1.55-1.86-3.02-3.8-4.68-5.55c-2.88-3.05-5.33-6.42-7.56-9.95c-2.33-3.7-5.55-6.66-8.27-10.04
	C9.1,7.32,7.97,6.61,8.56,5.53c0.68-1.24,1.96-0.37,2.98-0.4c0.84-0.02,1.33,0.63,1.75,1.27c1.34,2.03,3.06,3.75,4.62,5.6
	c1.51,1.78,3.02,3.55,4.19,5.61c2.52,4.47,6.32,7.97,9.3,12.1c0.24,0.34,0.57,0.76,0.99,0.63c0.42-0.12,0.49-0.63,0.49-1.06
	c0-0.59,0.01-1.17,0.01-1.76c0-4.1,0-8.19,0-12.29C32.94,15.22,33,15.22,33.05,15.22z"/>
</svg>
