<?xml version="1.0" encoding="utf-8"?>
<!-- Generator: Adobe Illustrator 27.9.0, SVG Export Plug-In . SVG Version: 6.00 Build 0)  -->
<svg version="1.1" id="Layer_1" xmlns="http://www.w3.org/2000/svg" xmlns:xlink="http://www.w3.org/1999/xlink" x="0px" y="0px"
	 viewBox="0 0 62.21 80.52" style="enable-background:new 0 0 62.21 80.52;" xml:space="preserve">
<path d="M28.46,19.4c0-4.51,0-9.02,0-13.53c0-1.11,0.04-2.22,0.05-3.33c0.01-1.7,0.47-2.23,2.17-2.47c2.72-0.39,4.45,1.06,4.38,3.86
	c-0.06,2.45-0.23,4.9-0.33,7.35c-0.29,7.54,0.4,15.07-0.06,22.6c-0.01,0.24,0.01,0.48,0.04,0.71c0.04,0.32,0.13,0.66,0.47,0.75
	c0.33,0.09,0.6-0.11,0.81-0.38c1.61-2.08,3.56-3.83,5.3-5.78c1.47-1.65,3.06-3.2,4.28-5.09c0.86-1.33,2.73-1.43,4.25-0.48
	c1.29,0.8,1.4,1.49,0.8,3.25c-0.32,0.95-0.87,1.67-1.54,2.35c-2.84,2.89-5.68,5.76-8.5,8.67c-0.42,0.43-1.24,0.78-0.99,1.49
	c0.26,0.75,1.16,0.74,1.84,0.82c1.96,0.23,3.94,0.35,5.91,0.58c3.15,0.37,6.3,0.46,9.45,0.14c1.06-0.11,2.05,0.15,3.06,0.33
	c0.52,0.09,1.05,0.4,1.45,0.75c1.3,1.14,1.17,2.34-0.26,3.3c-0.61,0.41-1.26,0.6-2.01,0.6c-4.28,0.02-8.54-0.18-12.78-0.9
	c-2.73-0.46-5.49-0.69-8.24-1.02c-0.31-0.04-0.7-0.09-0.86,0.21c-0.23,0.41,0.05,0.76,0.38,1.01c2.05,1.5,4.23,2.8,6.08,4.57
	c1.2,1.15,2.5,2.2,3.75,3.3c0.24,0.21,0.47,0.43,0.68,0.66c1.2,1.35,1.42,2.95,0.54,3.81c-1.52,1.47-3.85,1.55-5.06-0.01
	c-1.81-2.34-3.99-4.3-6.16-6.27c-0.47-0.43-0.96-0.84-1.48-1.19c-0.88-0.59-1.2-0.41-1.26,0.72c-0.04,0.63-0.02,1.27,0,1.91
	c0.23,7.28,0.68,14.55,0.46,21.84c-0.03,0.86,0.17,1.73,0.31,2.59c0.23,1.42-0.18,2.26-1.45,2.87c-2.94,1.41-5.34-0.02-5.37-3.28
	c-0.05-4.37,0.01-8.73-0.02-13.1c-0.02-2.94-0.1-5.87-0.16-8.81c-0.01-0.38,0.1-0.85-0.32-1.07c-0.56-0.3-0.88,0.21-1.16,0.54
	c-1.96,2.29-3.9,4.59-5.84,6.89c-1.35,1.61-4.07,1.93-5.74,0.67c-1.21-0.92-1.24-1.72-0.2-2.88c3.93-4.36,7.86-8.72,11.77-13.1
	c1.07-1.2,0.98-1.72-0.36-2.56c-0.75-0.47-1.57-0.68-2.48-0.69c-3.73-0.03-7.46-0.02-11.18-0.19c-3.16-0.14-6.33-0.2-9.44-0.9
	c-0.85-0.19-1.72-0.34-2.42-0.92c-0.48-0.4-1.13-0.73-1-1.49c0.15-0.85,0.76-1.47,1.55-1.63c0.92-0.18,1.87-0.29,2.84-0.18
	c2.04,0.22,4.09,0.41,6.13,0.51c3.01,0.15,6.02,0.04,9.02,0.37c0.21,0.02,0.54-0.03,0.64-0.17c0.18-0.28,0.07-0.63-0.15-0.87
	c-3.11-3.38-5.69-7.25-9.38-10.08c-0.5-0.39-0.99-0.8-1.46-1.22c-0.64-0.56-1.05-1.26-0.72-2.1c0.32-0.85,1.13-1,1.94-1.12
	c1.69-0.24,3.12,0.32,4.41,1.36c2.93,2.33,5.66,4.88,7.87,7.91c1.41,1.94,3.21,3.51,4.67,5.4c0.2,0.26,0.4,0.55,0.74,0.49
	c0.51-0.1,0.46-0.56,0.46-0.95c-0.02-3.97-0.05-7.94-0.07-11.91c-0.01-1.82,0-3.65,0-5.47C28.49,19.4,28.47,19.4,28.46,19.4z"/>
</svg>
