<?xml version="1.0" encoding="utf-8"?>
<!-- Generator: Adobe Illustrator 27.9.0, SVG Export Plug-In . SVG Version: 6.00 Build 0)  -->
<svg version="1.1" id="Layer_1" xmlns="http://www.w3.org/2000/svg" xmlns:xlink="http://www.w3.org/1999/xlink" x="0px" y="0px"
	 viewBox="0 0 46.55 51.86" style="enable-background:new 0 0 46.55 51.86;" xml:space="preserve">
<path d="M39.75,27.27c-2.33-0.18-4.66-0.13-7-0.36c-1.8-0.18-3.65,0.15-5.48,0.25c-0.33,0.02-0.71,0.02-0.88,0.34
	c-0.24,0.46,0.09,0.83,0.41,1.06c1.89,1.37,3.8,2.71,5.71,4.05c2.19,1.54,4.29,3.16,5.99,5.26c0.49,0.61,0.88,1.23,0.43,2.04
	c-0.49,0.89-1.31,0.92-2.17,0.86c-1-0.08-1.73-0.64-2.26-1.41c-1.5-2.19-3.61-3.67-5.74-5.15c-1.38-0.95-2.7-1.97-3.84-3.2
	c-0.4-0.43-0.85-0.89-1.51-0.53c-0.56,0.3-0.38,0.86-0.35,1.34c0.18,3,0.3,6,0.59,8.98c0.27,2.81,0.05,5.62,0.1,8.43
	c0.04,2.03-0.49,2.7-1.81,2.63c-1.58-0.08-3.06-1.42-2.81-2.92c0.39-2.34,0.05-4.67,0.21-7c0.16-2.48-0.34-4.96-0.02-7.44
	c0.03-0.19-0.16-0.48-0.33-0.61c-0.31-0.24-0.68-0.1-0.89,0.15c-0.58,0.7-1.2,1.41-1.66,2.19c-1.81,3.05-4.43,5.41-6.79,7.99
	C9,44.93,8.19,45,7.37,44.66C6.5,44.3,5.75,43.75,5.46,42.8c-0.17-0.56,0.25-0.93,0.6-1.29c1.06-1.07,2.06-2.2,3.2-3.18
	c1.53-1.33,2.79-2.89,3.89-4.56c0.88-1.33,1.86-2.56,3.01-3.67c0.36-0.34,0.68-0.74,0.94-1.16c0.69-1.16,0.43-1.65-0.95-1.63
	c-3.92,0.05-7.82-0.17-11.72-0.53c-1.34-0.12-2.67-0.32-3.68-1.33c-0.4-0.4-0.92-0.82-0.69-1.5c0.26-0.76,0.95-0.96,1.62-0.9
	c1.83,0.16,3.64,0.43,5.46,0.62c2.65,0.28,5.3,0.53,7.96,0.77c0.46,0.04,1.09,0.17,1.23-0.49c0.1-0.48-0.4-0.67-0.72-0.91
	c-4.51-3.35-8.53-7.22-12.16-11.5c-0.38-0.44-0.75-0.9-1.04-1.4C1.85,9.22,2.25,8.41,3.32,8.51c1.45,0.14,2.87,0.23,3.96,1.66
	c2.79,3.66,6.46,6.51,9.54,9.91c0.27,0.29,0.64,0.56,1.02,0.67c0.62,0.18,1.21,0.08,1.19-0.78c-0.02-0.92-0.03-1.84-0.14-2.75
	c-0.54-4.57-0.45-9.16-0.32-13.75c0.01-0.33,0.1-0.66,0.15-0.99c0.41-2.59,1.01-2.93,3.48-2.07c0.8,0.28,1.34,0.69,1.16,1.63
	c-0.87,4.64-0.3,9.33-0.44,14c-0.04,1.25,0.15,2.51-0.21,3.74c-0.15,0.49-0.14,1.04,0.36,1.34c0.56,0.34,1-0.06,1.26-0.46
	c2.36-3.64,6.05-6.24,7.97-10.25c0.8-1.67,1.42-1.7,3.2-0.69c1.27,0.73,1.34,1.27,0.51,2.86c-1.92,3.68-4.64,6.7-7.72,9.43
	c-0.37,0.33-0.83,0.59-1.11,0.99c-0.33,0.48-0.25,0.98,0.47,1.04c0.33,0.03,0.66-0.11,0.99-0.11c4.9-0.04,9.81-0.08,14.71-0.1
	c0.58,0,1.18-0.08,1.71,0.26c0.67,0.42,1.7,0.56,1.44,1.73c-0.23,1.05-0.9,1.49-2,1.45C42.92,27.23,41.34,27.27,39.75,27.27z"/>
</svg>
