<?xml version="1.0" encoding="utf-8"?>
<!-- Generator: Adobe Illustrator 27.9.0, SVG Export Plug-In . SVG Version: 6.00 Build 0)  -->
<svg version="1.1" id="Layer_1" xmlns="http://www.w3.org/2000/svg" xmlns:xlink="http://www.w3.org/1999/xlink" x="0px" y="0px"
	 viewBox="0 0 45.08 52.77" style="enable-background:new 0 0 45.08 52.77;" xml:space="preserve">
<path d="M9.35,29.12c-1.84,0-3.68-0.07-5.52,0.02c-1.44,0.07-2.34-0.66-3.19-1.64c-0.61-0.7-0.87-1.48-0.38-2.28
	c0.42-0.68,1.22-0.45,1.85-0.35c4.57,0.67,9.16,0.49,13.75,0.37c0.33-0.01,0.67-0.03,1-0.05c0.99-0.05,2.46-0.07,2.71-0.77
	c0.38-1.07-1.13-1.44-1.85-2.04c-2.94-2.46-5.85-4.97-9.03-7.13c-1.2-0.81-1.97-2.04-2.75-3.23c-0.38-0.57-0.68-1.24-0.11-1.83
	c0.64-0.65,1.22-0.14,1.75,0.28c3.71,2.95,7.74,5.51,11.08,8.93c0.29,0.3,0.58,0.61,0.91,0.86c0.7,0.55,1.04,0.24,1.14-0.54
	c0.05-0.41,0.15-0.84,0.12-1.25c-0.47-5.45,0.87-10.81,0.77-16.23c0-0.25,0.05-0.5,0.1-0.75c0.12-0.67,0.29-1.47,1.07-1.5
	c0.96-0.03,0.66,0.92,0.87,1.5c1.91,5.04,1.14,10.18,0.66,15.31c-0.08,0.91-0.06,1.84-0.08,2.76c-0.01,0.39-0.16,0.87,0.39,1.04
	c0.43,0.13,0.82-0.02,1.13-0.35c2.41-2.54,5.17-4.75,7.31-7.55c0.81-1.06,1.65-2.1,2.57-3.07c0.91-0.97,1.39-0.92,2.27,0.03
	c1.13,1.22,1.28,2.45,0.31,3.82c-2.09,2.95-4.66,5.46-7.33,7.88c-0.31,0.28-0.67,0.51-0.96,0.8c-0.34,0.34-0.92,0.73-0.62,1.23
	c0.26,0.43,0.92,0.29,1.41,0.21c3.73-0.68,7.5-0.11,11.24-0.44c0.08-0.01,0.17,0,0.25,0c1.48,0.16,3.09,1.63,2.88,2.63
	c-0.19,0.9-1.64,1.5-3.16,1.47c-3.92-0.08-7.85-0.11-11.77-0.15c-0.39,0-0.89-0.11-1.07,0.4c-0.17,0.49,0.23,0.78,0.54,1.02
	c1.97,1.55,3.94,3.1,5.94,4.6c0.54,0.41,1.07,0.81,1.36,1.43c0.26,0.55,0.31,1.13-0.16,1.63c-0.41,0.44-0.87,0.74-1.54,0.61
	c-0.86-0.17-1.55-0.62-2.14-1.23c-2.09-2.18-4.46-4.04-6.73-6.01c-0.46-0.4-0.8-1.26-1.61-0.77c-0.68,0.4-0.55,1.21-0.46,1.84
	c0.4,2.66,0.2,5.34,0.37,8.01c0.25,3.82,0.29,7.66,1.49,11.37c0.26,0.82,0.38,1.88-0.49,2.53c-0.7,0.52-1.84-0.02-2.7-1.22
	c-1.21-1.69-1.47-3.71-1.7-5.67c-0.49-4.14-0.53-8.31-0.46-12.48c0.01-0.48,0.35-1.09-0.3-1.3c-0.55-0.18-0.86,0.42-1.15,0.78
	c-1.96,2.38-3.87,4.81-5.83,7.19c-1.97,2.38-3.07,2.17-4.41-0.61c-0.44-0.92-0.06-1.37,0.44-1.95c1.81-2.08,3.61-4.17,5.4-6.26
	c0.42-0.49,1.17-1.01,0.96-1.63c-0.28-0.82-1.16-0.27-1.77-0.29C12.53,29.09,10.94,29.12,9.35,29.12z"/>
</svg>
