<?xml version="1.0" encoding="utf-8"?>
<!-- Generator: Adobe Illustrator 27.9.0, SVG Export Plug-In . SVG Version: 6.00 Build 0)  -->
<svg version="1.1" id="Layer_1" xmlns="http://www.w3.org/2000/svg" xmlns:xlink="http://www.w3.org/1999/xlink" x="0px" y="0px"
	 viewBox="0 0 86.82 88.6" style="enable-background:new 0 0 86.82 88.6;" xml:space="preserve">
<path d="M45.46,70.54c0.02,5.23-0.2,10.47,0.19,15.7c0.09,1.24-0.44,1.75-1.43,2.1c-1.01,0.36-2.04,0.33-3.04,0.03
	c-1.19-0.37-2.03-1.49-1.91-2.71c0.57-5.94,0.06-11.89,0.35-17.83c0.22-4.44-0.16-8.89,0.32-13.31c0.04-0.41,0.1-0.84-0.28-1.08
	c-0.53-0.32-0.87,0.1-1.2,0.44c-2.34,2.48-5.11,4.49-7.43,6.99c-1.53,1.66-4.65,0.88-5.45-1.25c-0.41-1.08,0.05-1.87,0.79-2.53
	c1.47-1.32,2.93-2.67,4.49-3.89c2.44-1.91,4.62-4.11,6.94-6.15c0.24-0.21,0.46-0.44,0.64-0.7c0.39-0.56,0.4-1.15-0.4-1.2
	c-1.34-0.09-2.61-0.52-3.99-0.51c-7.7,0.05-15.4,0.08-23.09-0.08c-2.42-0.05-4.86,0.15-7.28-0.26c-0.88-0.15-1.7-0.33-2.47-0.77
	c-0.82-0.47-1.43-1.11-1.15-2.11c0.26-0.96,1.05-1.34,2-1.37c1.58-0.05,3.17-0.1,4.75-0.1c6.18,0,12.34,0.69,18.54,0.36
	c3.06-0.16,6.15,0.18,9.23,0.31c0.32,0.01,0.64,0.1,0.86-0.19c0.27-0.36-0.06-0.6-0.25-0.81c-1.14-1.32-2.24-2.68-3.46-3.92
	c-2.85-2.91-4.9-6.42-7.39-9.6c-0.57-0.73-0.56-1.67-0.11-2.47c0.39-0.71,1.9-0.97,2.84-0.52c1.3,0.63,2.39,1.5,3.24,2.71
	c2.51,3.56,4.95,7.18,7.75,10.52c0.4,0.48,0.77,1.32,1.39,1.12c0.57-0.18,0.51-1.1,0.53-1.7c0.06-1.98,0.03-3.96,0.06-5.93
	c0.1-6.19-0.17-12.38,0.16-18.56c0.17-3.24,1.08-6.41,1.01-9.68c-0.02-1.05,0.66-1.53,1.69-1.59c1.93-0.11,3.81,1.43,3.87,3.36
	c0.06,2.05,0.16,4.1-0.27,6.15c-0.56,2.64-0.76,5.34-0.69,8.03c0.16,6.26,0.13,12.52-0.37,18.77c-0.03,0.39-0.11,0.8-0.06,1.18
	c0.06,0.5,0.47,0.66,0.87,0.47c0.35-0.16,0.62-0.48,0.92-0.75c3.32-3.06,6.65-6.12,9.95-9.2c0.69-0.65,1.22-1.46,1.89-2.13
	c1.36-1.36,2.77-1.22,4.33,0.34c1.35,1.36,1.37,2.11-0.08,3.6c-2.71,2.79-5.48,5.51-8.58,7.88c-1.13,0.86-2.18,1.84-3.23,2.81
	c-0.63,0.59-0.45,1.16,0.39,1.34c0.38,0.08,0.79,0.07,1.18,0.07c3.17,0.01,6.36,0.4,9.49,0.3c4.04-0.12,8.08,0.04,12.12-0.22
	c2.53-0.17,5.07-0.29,7.6-0.45c1.44-0.09,2.61,0.49,3.73,1.31c0.93,0.67,0.99,1.6,0.74,2.55c-0.24,0.9-1.01,1.05-1.87,1.13
	c-6.87,0.59-13.75,0.46-20.63,0.42c-2.92-0.02-5.84-0.41-8.76-0.64c-2.37-0.19-4.74-0.42-7.11-0.61c-0.46-0.04-0.99-0.12-1.22,0.46
	c-0.17,0.43,0.11,0.75,0.34,1.07c1.94,2.71,4.15,5.2,6.28,7.76c0.76,0.91,1.6,1.76,2.35,2.68c0.57,0.7,0.96,1.49,0.42,2.4
	c-0.56,0.95-1.51,1.1-2.47,1.04c-0.8-0.06-1.49-0.48-2.1-1.03c-1.18-1.06-2.31-2.17-3.2-3.51c-0.62-0.92-1.3-1.8-1.98-2.68
	c-0.23-0.3-0.51-0.65-0.97-0.41c-0.34,0.18-0.3,0.54-0.3,0.84c-0.01,2.38-0.01,4.76-0.01,7.15C45.46,64.52,45.46,67.53,45.46,70.54z
	"/>
</svg>
