<?xml version="1.0" encoding="utf-8"?>
<!-- Generator: Adobe Illustrator 27.9.0, SVG Export Plug-In . SVG Version: 6.00 Build 0)  -->
<svg version="1.1" id="Layer_1" xmlns="http://www.w3.org/2000/svg" xmlns:xlink="http://www.w3.org/1999/xlink" x="0px" y="0px"
	 viewBox="0 0 46.68 40.45" style="enable-background:new 0 0 46.68 40.45;" xml:space="preserve">
<path d="M21.45,30.84c0-1.35,0.01-2.7-0.01-4.05c-0.01-0.45,0.09-1-0.45-1.24c-0.44-0.2-0.73,0.17-1.03,0.4
	c-2.73,2.16-5.41,4.38-8.19,6.48c-1.7,1.28-3.55,2.37-5.49,3.3c-1.07,0.51-1.8,0.23-2.52-0.56c-0.49-0.54-0.85-1.12-1.12-1.8
	c-0.74-1.79-0.66-2.23,1-2.99c3.43-1.56,6.37-3.84,9.38-6.03c0.37-0.27,0.91-0.58,0.7-1.09c-0.18-0.44-0.75-0.57-1.24-0.54
	c-2.37,0.14-4.75,0.2-7.11,0.48c-2.58,0.31-3.42,0.03-4.69-2.07c-1.23-2.03-0.88-2.87,1.48-3.15c3.94-0.47,7.9-0.71,11.87-0.31
	c0.71,0.07,1.42,0.09,2.13,0.14c0.44,0.03,0.81-0.12,0.97-0.52c0.18-0.44-0.14-0.72-0.46-0.98c-2-1.69-3.94-3.44-5.99-5.06
	c-1.52-1.2-2.2-2.87-2.96-4.52C7.44,6.11,7.52,5.5,7.99,4.97C8.51,4.39,9.13,4.52,9.76,4.7c0.63,0.18,1.12,0.58,1.57,1.03
	c2.8,2.81,5.99,5.21,8.58,8.24c0.2,0.24,0.44,0.54,0.76,0.42c0.48-0.17,0.34-0.61,0.32-1.01c-0.12-2.53-0.25-5.07,0.18-7.59
	c0.23-1.35-0.29-2.67-0.27-4.02c0.01-0.62-0.1-1.26,0.67-1.62c0.7-0.33,1.25-0.08,1.78,0.27c1.43,0.96,1.92,2.48,2.21,4.06
	c0.35,1.89,0.17,3.79,0.07,5.7c-0.06,1.11-0.12,2.22-0.09,3.33c0.03,1.07,0.34,1.2,1.33,0.65c0.69-0.39,1.36-0.81,2.01-1.26
	c2.8-1.96,5.91-3.39,8.89-5.02c1.76-0.96,2.75-0.54,3.54,1.33c0.94,2.21,0.77,2.86-1.35,4.03c-1.73,0.96-3.54,1.77-5.31,2.65
	c-0.35,0.17-0.81,0.32-0.74,0.78c0.08,0.55,0.62,0.41,0.96,0.37c2.52-0.25,5.05-0.47,7.55-0.83c2.77-0.4,4.42,1.04,4.25,3.8
	c-0.05,0.82-0.35,1.33-1.12,1.63c-0.68,0.26-1.37,0.39-2.09,0.41c-4.67,0.1-9.33,0.7-14.01,0.56c-0.32-0.01-0.64-0.02-0.95,0.02
	c-0.91,0.1-1.15,0.45-0.66,1.23c0.96,1.55,2.11,2.96,3.49,4.19c2.37,2.11,5,3.89,7.17,6.25c0.73,0.79,0.96,1.62,0.96,2.57
	c0,0.8-0.12,1.74-0.96,2.02c-0.81,0.28-1.83,0.14-2.37-0.6c-1.06-1.44-2.6-2.32-3.78-3.61c-1.6-1.76-3.61-3.12-5.06-5.03
	c-0.22-0.29-0.51-0.69-0.95-0.56c-0.5,0.15-0.33,0.66-0.32,1.02c0.05,1.98,0.06,3.97,0.24,5.95c0.09,0.97-0.11,1.89-0.11,2.84
	c0,0.83-0.55,1.23-1.31,1.47c-0.81,0.26-1.44-0.02-1.88-0.64c-1.02-1.44-1.81-2.98-1.75-4.83c0.04-1.35,0.01-2.7,0.01-4.05
	C21.3,30.84,21.37,30.84,21.45,30.84z"/>
</svg>
