<?xml version="1.0" encoding="utf-8"?>
<!-- Generator: Adobe Illustrator 27.9.0, SVG Export Plug-In . SVG Version: 6.00 Build 0)  -->
<svg version="1.1" id="Layer_1" xmlns="http://www.w3.org/2000/svg" xmlns:xlink="http://www.w3.org/1999/xlink" x="0px" y="0px"
	 viewBox="0 0 46.88 66.66" style="enable-background:new 0 0 46.88 66.66;" xml:space="preserve">
<path d="M22.17,58.62c-0.07-4.6-0.71-9.19-0.46-13.8c0.01-0.16-0.01-0.32-0.03-0.48c-0.06-0.4-0.13-0.81-0.59-0.92
	c-0.34-0.08-0.61,0.16-0.81,0.4c-0.73,0.84-1.44,1.69-2.14,2.54c-0.98,1.18-2.32,1.4-3.68,1.11c-2.08-0.44-2.6-2.1-1.19-3.66
	c1.86-2.06,3.78-4.07,5.67-6.1c0.38-0.41,0.82-0.76,1.16-1.2c0.96-1.21,0.63-2.08-0.94-2.22c-1.66-0.15-3.33-0.05-5-0.1
	c-3.72-0.11-7.42-0.35-11.09-0.97C2,33.06,1.12,32.63,0.42,31.78c-0.65-0.8-0.54-1.41,0.29-1.97c1.07-0.72,2.14-1.24,3.54-1.01
	c2.65,0.44,5.34,0.73,8.01,1.08c0.08,0.01,0.15,0.05,0.23,0.06c1.17,0.09,2.35,0.24,3.51-0.09c0.09-1.48-1.31-1.84-2.07-2.65
	c-2.66-2.83-5.69-5.31-8.15-8.34c-1.08-1.34-0.79-3.12,0.63-3.49c1.14-0.3,2.37-0.39,3.37,0.55c0.58,0.55,1.2,1.04,1.75,1.61
	c2.53,2.63,5.02,5.3,7.57,7.91c0.64,0.65,1.36,1.84,2.21,1.49c0.88-0.37,0.44-1.7,0.39-2.59c-0.41-6.97-0.43-13.95-0.61-20.93
	c-0.06-2.31,1.1-3.54,3.19-3.4c1.35,0.09,2.52,1.12,2.54,2.38c0.06,6.4,0.78,12.79,0.49,19.2c-0.05,1.03-0.02,2.06-0.04,3.1
	c-0.01,0.53-0.29,1.25,0.4,1.44c0.59,0.16,0.92-0.5,1.27-0.92c2.33-2.81,4.93-5.38,6.89-8.49c0.62-0.99,1.56-1.67,2.75-1.64
	c2.5,0.08,3.48,1.88,2.26,4.09c-0.97,1.75-2.37,3.17-3.72,4.63c-1.67,1.81-3.39,3.57-5.08,5.36c-0.37,0.39-1.02,0.76-0.75,1.36
	c0.32,0.72,1.06,0.83,1.82,0.75c3.4-0.39,6.81-0.45,10.22-0.24c0.72,0.04,1.46,0.01,2.07,0.44c0.76,0.53,1.7,1,1.43,2.21
	c-0.25,1.1-1.18,1.91-2.38,1.92c-1.27,0.01-2.54-0.06-3.8-0.19c-3.01-0.31-6.02-0.27-9.04-0.21c-0.44,0.01-1.01-0.14-1.21,0.46
	c-0.17,0.51,0.1,0.95,0.45,1.28c1.79,1.68,3.55,3.4,5.43,4.98c1.64,1.38,3.28,2.75,4.76,4.31c0.75,0.8,1.34,1.66,1.01,2.76
	c-0.34,1.14-1.4,1.25-2.41,1.57c-1.93,0.61-3.2-0.35-4.05-1.67c-1.84-2.89-4.88-4.52-6.98-7.11c-0.2-0.25-0.49-0.45-0.82-0.36
	c-0.49,0.13-0.47,0.58-0.47,0.96c0.01,2.3-0.15,4.61,0.18,6.9c0.41,2.76,0.37,5.54,0.46,8.31c0.06,1.9,0.28,3.79,0.3,5.69
	c0.03,2.48-1.39,3.68-3.77,3.32c-1.57-0.24-2.24-0.89-2.3-2.51C22.11,62.27,22.17,60.44,22.17,58.62z"/>
</svg>
