<?xml version="1.0" encoding="utf-8"?>
<!-- Generator: Adobe Illustrator 27.9.0, SVG Export Plug-In . SVG Version: 6.00 Build 0)  -->
<svg version="1.1" id="Layer_1" xmlns="http://www.w3.org/2000/svg" xmlns:xlink="http://www.w3.org/1999/xlink" x="0px" y="0px"
	 viewBox="0 0 78.31 82.01" style="enable-background:new 0 0 78.31 82.01;" xml:space="preserve">
<path d="M61.3,32.54c2.31-0.18,4.51-0.07,6.72,0.28c2.11,0.33,4.28,0.28,6.42,0.05c1.18-0.13,2.17,0.16,3,1.06
	c1.47,1.59,1.04,3.28-1.09,3.68c-1.39,0.26-2.86,0.39-4.26,0.24c-3.94-0.41-7.86-0.77-11.83-0.76c-2.76,0.01-5.5-0.75-8.29-0.41
	c-0.08,0.01-0.16-0.01-0.24,0c-0.58,0.07-1.42-0.34-1.61,0.53c-0.14,0.64,0.58,0.88,1.05,1.14c1.87,1.03,3.74,2.07,5.65,3.01
	c5.4,2.67,10.69,5.51,15.59,9.04c0.94,0.68,1.55,1.57,2.12,2.52c0.52,0.86-0.11,1.94-1.03,1.71c-1.28-0.32-2.63-0.39-3.79-1.26
	c-4.63-3.51-9.98-5.82-14.91-8.84c-0.34-0.21-0.71-0.35-1.06-0.53c-0.22-0.12-0.44-0.17-0.66-0.03c-0.28,0.19-0.09,0.42-0.01,0.62
	c0.09,0.22,0.21,0.43,0.36,0.62c4.09,5.24,7.44,11.05,12.14,15.82c0.5,0.5,0.95,1.08,1.32,1.68c0.41,0.65,0.25,2.32-0.16,2.72
	c-0.5,0.48-2.51,0.46-3.15-0.05c-0.18-0.15-0.36-0.32-0.49-0.52c-2.43-3.83-5.92-6.85-8.29-10.72c-2.76-4.53-6.12-8.68-8.7-13.33
	c-0.6-1.09-1.46-1.87-2.51-2.46c-0.72-0.41-1.24-0.14-1.46,0.61c-0.13,0.45-0.16,0.94-0.19,1.41c-0.51,6.64-1.67,13.2-2.39,19.81
	c-0.54,4.96-1.33,9.89-1.75,14.86c-0.13,1.5-0.32,3-0.59,4.48c-0.37,2.06-1.4,2.78-3.3,2.43c-1.58-0.29-2.37-1.5-2.17-3.37
	c0.14-1.26,0.29-2.52,0.5-3.77c0.8-4.77,1.28-9.57,1.88-14.36c0.53-4.24,1.28-8.45,1.94-12.67c0.05-0.31,0.17-0.61,0.23-0.92
	c0.06-0.32,0.05-0.7-0.24-0.85c-0.38-0.2-0.79-0.04-1.06,0.29c-0.25,0.3-0.45,0.65-0.67,0.98c-2.8,4.23-6.08,8.11-9.03,12.24
	c-1.8,2.51-3.42,5.14-4.64,7.99c-0.34,0.8-0.64,1.64-1.52,2.04c-1.59,0.72-4.21-0.73-4.48-2.46c-0.05-0.34,0.06-0.61,0.23-0.89
	c3.89-6.46,8.26-12.57,13.28-18.21c0.54-0.6,1.66-1.22,0.89-2.08c-0.65-0.73-1.42,0.25-2.04,0.65c-2.79,1.8-5.79,3.26-8.47,5.22
	c-1.85,1.36-3.72,2.7-5.57,4.05c-1.7,1.24-2.97,1.18-4.43-0.21c-1.37-1.3-1.37-2.51,0.26-3.47c2.18-1.29,4.36-2.58,6.48-3.97
	c4.31-2.82,8.94-5.05,13.56-7.3c0.28-0.14,0.57-0.29,0.82-0.48c0.43-0.32,1.06-0.59,0.76-1.28c-0.32-0.76-0.91-0.27-1.43-0.22
	c-5.05,0.52-10.1,1.03-15.18,1.08c-2.67,0.03-5.13,0.81-7.6,1.58c-2.5,0.78-3.36,0.47-4.67-1.42c-0.92-1.33-0.7-2.19,0.77-2.82
	c1.75-0.74,3.6-1.21,5.48-1.5c2.75-0.43,5.54-0.47,8.31-0.45c3.34,0.02,6.66-0.33,9.99-0.4c1.89-0.04,3.78-0.4,5.66-0.6
	c0.51-0.05,0.98-0.23,1.05-0.76c0.07-0.53-0.36-0.89-0.81-1.06c-1.85-0.7-3.69-1.43-5.57-2.02c-4.6-1.46-9.07-3.21-13.42-5.33
	c-2.62-1.27-5.41-2.21-8.15-3.23c-1.13-0.42-2.17-0.95-3.18-1.58c-0.63-0.39-1.11-0.92-1.43-1.56c-0.68-1.36,0.13-2.6,1.65-2.49
	c1.66,0.12,3.28,0.48,4.83,1.11c4.63,1.88,9.12,4.04,13.67,6.09c2.44,1.1,4.88,2.21,7.47,2.99c3.03,0.91,5.88,2.3,8.77,3.57
	c1.28,0.56,1.67,0.23,1.61-1.14c-0.05-1.06-0.44-2.01-1.07-2.85c-2.23-2.98-4.41-6.01-6.72-8.93c-1.74-2.2-2.94-4.7-4.39-7.07
	c-0.2-0.33-0.24-0.75-0.35-1.13c-0.27-0.91-0.66-1.88,0.25-2.62c0.59-0.48,1.94-0.05,2.68,0.96c1.07,1.46,2.09,2.97,2.92,4.57
	c1.65,3.19,3.92,5.93,6.08,8.75c0.12,0.16,0.42,0.32,0.6,0.28c0.51-0.09,0.46-0.56,0.47-0.94c0.14-4.04,0.29-8.09,0.39-12.13
	c0.05-2.07,0.26-4.1,0.81-6.09c0.2-0.72,0.29-1.65,1.36-1.71c1.08-0.06,2.05,0.27,2.71,1.15c0.48,0.65,0.77,1.42,0.57,2.24
	c-0.7,2.89-0.39,5.85-0.51,8.77c-0.17,3.88-0.49,7.75-0.84,11.62c-0.04,0.47-0.11,0.95-0.11,1.42c0,0.58,0.18,1.17,0.77,1.34
	c0.61,0.17,0.71-0.49,0.95-0.86c4.13-6.49,8.74-12.64,13.34-18.8c0.85-1.14,2.05-1.53,3.08-1.06c1.03,0.46,1.66,1.99,1.4,3.26
	c-0.18,0.91-0.78,1.56-1.34,2.21c-2.38,2.78-4.52,5.72-6.44,8.84c-1.72,2.77-4.19,4.97-6.02,7.66c-0.42,0.62-1.41,1.28-0.81,2
	c0.65,0.78,1.38-0.24,2.06-0.51c1.2-0.48,2.06-1.46,3.1-2.17c4.9-3.36,10.09-6.26,15.09-9.45c0.67-0.43,1.31-0.9,1.99-1.29
	c1.42-0.81,3.07-0.25,3.68,1.27c0.31,0.76,0.36,1.57-0.35,2.2c-0.41,0.37-0.82,0.76-1.29,1.04c-4.54,2.73-9.09,5.44-13.65,8.15
	c-1.08,0.64-2.2,1.21-3.28,1.83c-0.27,0.16-0.51,0.42-0.49,0.77c0.02,0.47,0.39,0.68,0.78,0.75C57.58,32.69,59.49,32.51,61.3,32.54z
	"/>
</svg>
