<?xml version="1.0" encoding="utf-8"?>
<!-- Generator: Adobe Illustrator 27.9.0, SVG Export Plug-In . SVG Version: 6.00 Build 0)  -->
<svg version="1.1" id="Layer_1" xmlns="http://www.w3.org/2000/svg" xmlns:xlink="http://www.w3.org/1999/xlink" x="0px" y="0px"
	 viewBox="0 0 52.91 43.49" style="enable-background:new 0 0 52.91 43.49;" xml:space="preserve">
<path d="M23.65,9.46c0-1.88-0.02-4.64,0.01-7.39C23.68,0.2,23.9-0.03,25.34,0c1.79,0.05,2.71,0.77,2.66,2.29
	c-0.16,5.07,0.51,10.16-0.14,15.23c-0.08,0.66-0.01,1.34,0.02,2c0.02,0.43,0.17,0.84,0.64,0.95c0.48,0.11,0.75-0.24,1-0.59
	c2.56-3.54,5.88-6.37,8.85-9.53c0.92-0.97,1.84-1.94,2.75-2.92c0.67-0.73,1.48-1.02,2.47-0.91c0.91,0.1,1.67,0.53,2.03,1.29
	c0.33,0.7-0.42,1.22-0.86,1.68c-2.78,3-5.59,5.96-8.4,8.93c-0.34,0.36-0.76,0.66-1.06,1.05c-0.49,0.63-0.28,1.04,0.56,1.09
	c3.44,0.2,6.82-0.25,10.22-0.68c1.79-0.23,3.63-0.72,5.41,0.18c0.68,0.34,1.51,0.51,1.39,1.49c-0.12,0.98-0.84,1.48-1.76,1.44
	c-2.11-0.11-4.16,0.28-6.22,0.56c-3.5,0.48-6.98-0.17-10.47-0.05c-0.83,0.03-1.68-0.11-2.5,0c-1.15,0.17-2.02,1.02-2.41,1.96
	c-0.3,0.73,0.79,1.15,1.33,1.61c5.08,4.34,10,8.85,14.85,13.44c0.51,0.49,1.31,0.98,0.78,1.87c-0.45,0.76-1.16,1.2-2.1,1.07
	c-1.21-0.17-2.13-0.81-2.99-1.66c-3.49-3.48-7.03-6.91-10.55-10.35c-0.12-0.12-0.24-0.23-0.36-0.35c-0.24-0.23-0.5-0.45-0.87-0.35
	c-0.43,0.12-0.43,0.5-0.41,0.81c0.04,1.08,0.09,2.17,0.22,3.25c0.22,1.82,0.59,3.62,0.75,5.43c0.14,1.69-0.34,2.41-1.38,2.52
	c-1.6,0.17-2.94-0.72-3.09-2.23c-0.25-2.66-0.39-5.32-0.56-7.98c-0.03-0.42,0-0.84-0.02-1.25c-0.02-0.41,0-0.87-0.45-1.08
	c-0.57-0.26-0.92,0.15-1.3,0.48c-2.36,2.12-4.69,4.28-7.1,6.34c-1.58,1.35-3.28,2.58-4.95,3.83c-0.75,0.56-1.55,0.86-2.56,0.43
	c-0.79-0.33-1.77-0.53-1.86-1.43c-0.08-0.72,0.67-1.27,1.3-1.73c3.31-2.41,6.49-4.96,9.54-7.71c1.59-1.43,3.28-2.82,4.99-4.15
	c0.45-0.35,0.98-0.78,0.77-1.45c-0.25-0.78-0.98-0.91-1.65-0.78c-3.39,0.65-6.83,0.19-10.24,0.59c-3.12,0.37-6.29,0.74-9.43-0.1
	c-0.66-0.18-1.27-0.39-1.75-0.9c-0.72-0.76-0.55-1.62,0.44-1.92c0.47-0.14,0.99-0.15,1.49-0.14c5.01,0.14,10-0.69,15.02-0.36
	c0.25,0.02,0.5,0.01,0.75-0.02c0.41-0.04,0.88-0.04,1-0.55c0.08-0.35-0.19-0.6-0.44-0.83c-3.06-2.86-5.72-6.08-8.46-9.23
	C9.97,10.29,9.65,10,9.42,9.66C9.07,9.13,8.43,8.6,8.9,7.88c0.36-0.56,1.04-0.4,1.61-0.42C12,7.4,13.04,7.84,14.06,9.18
	c2.62,3.45,5.56,6.66,8.37,9.96c0.16,0.19,0.32,0.4,0.52,0.54c0.19,0.13,0.46,0.27,0.65,0.22c0.37-0.1,0.48-0.48,0.42-0.81
	C23.53,16.19,24.02,13.25,23.65,9.46z"/>
</svg>
