<?xml version="1.0" encoding="utf-8"?>
<!-- Generator: Adobe Illustrator 27.9.0, SVG Export Plug-In . SVG Version: 6.00 Build 0)  -->
<svg version="1.1" id="Layer_1" xmlns="http://www.w3.org/2000/svg" xmlns:xlink="http://www.w3.org/1999/xlink" x="0px" y="0px"
	 viewBox="0 0 74.24 73.79" style="enable-background:new 0 0 74.24 73.79;" xml:space="preserve">
<path d="M37.14,13.81c-0.25,5,0.28,10.06,0.64,15.12c0.03,0.48,0.03,1.04,0.58,1.15c0.51,0.1,0.82-0.34,1.1-0.76
	c4.79-7.02,10.11-13.61,16.15-19.6C56.33,9,57,8.2,57.62,7.38c1.04-1.37,3.06-1.05,4.42,0.21c1.19,1.11,1.17,1.89,0.05,3.52
	c-1.18,1.72-2.84,2.98-4.25,4.48c-3.97,4.23-7.66,8.68-11.27,13.21c-0.35,0.43-0.78,0.8-1.1,1.25c-0.81,1.11-0.53,1.75,0.84,1.81
	c1.98,0.09,3.97,0.14,5.95,0.12c5.94-0.07,11.88-0.19,17.79-0.91c1.2-0.15,2.19,0.28,3.07,1c0.75,0.63,1.37,1.42,1.03,2.47
	c-0.33,1.01-1.19,1.4-2.21,1.53c-2.68,0.34-5.37,0.44-8.06,0.52c-3.4,0.11-6.78,0.18-10.19,0.06c-3.55-0.13-7.1,0.08-10.63-0.56
	c-0.31-0.06-0.63,0-0.95-0.01c-0.7-0.03-1.26,0.22-1.54,0.87c-0.28,0.66-0.05,1.27,0.43,1.74c1.55,1.5,2.56,3.43,4.02,4.99
	c2.54,2.73,5.1,5.43,7.99,7.82c2.52,2.09,4.43,4.73,5.71,7.8c0.32,0.76,0.77,1.54,0.12,2.21c-0.79,0.81-1.84,1.32-3.01,0.97
	c-1.24-0.36-2.46-0.94-2.95-2.21c-1.42-3.69-4.17-6.27-7-8.84c-1.99-1.81-3.81-3.82-5.39-6.01c-0.19-0.26-0.41-0.49-0.62-0.72
	c-0.21-0.22-0.39-0.55-0.76-0.4c-0.36,0.15-0.33,0.49-0.27,0.8c0.77,4.45,0.91,8.96,1.31,13.45c0.34,3.85,0.58,7.72,1.25,11.53
	c0.39,2.24-0.07,3.04-2.05,3.57c-1.72,0.46-3.44-0.36-4.11-1.98c-0.31-0.75-0.33-1.53-0.34-2.33c-0.15-7.29-1-14.54-1.46-21.82
	c-0.02-0.3,0.01-0.65-0.37-0.79c-0.35-0.12-0.6,0.08-0.83,0.3c-0.72,0.73-1.55,1.39-2.14,2.22c-2.67,3.74-5.89,7.03-8.72,10.64
	c-1.63,2.08-3.41,2.28-5.32,0.74c-1.32-1.07-1.41-1.88-0.27-3.2c4.26-4.9,8.54-9.8,12.81-14.7c1.15-1.32,2.28-2.64,3.4-3.98
	c0.25-0.3,0.52-0.62,0.66-0.97c0.45-1.13-0.04-1.87-1.28-1.8c-2.45,0.13-4.91,0.25-7.34,0.55c-5.57,0.67-11.15,1.2-16.76,1.43
	c-0.71,0.03-1.4,0.24-2.11,0.31c-1.86,0.17-3.45-0.39-4.64-1.88c-0.76-0.96-0.68-1.7,0.29-2.42c0.58-0.43,1.23-0.66,1.97-0.75
	c1.42-0.16,2.83-0.3,4.26-0.32c4.28-0.06,8.54-0.33,12.8-0.9c2.49-0.33,5.05-0.24,7.57-0.31c0.33-0.01,0.65,0.01,0.83-0.3
	c0.26-0.44-0.07-0.74-0.34-1.01c-0.79-0.78-1.6-1.54-2.4-2.32c-5.54-5.37-10.68-11.06-14.86-17.58c-0.97-1.52-0.29-2.93,1.5-2.94
	c1.74,0,3.24,0.59,4.19,2.21c3.84,6.59,9.33,11.8,14.47,17.3c0.16,0.17,0.33,0.34,0.52,0.49c0.17,0.13,0.38,0.37,0.6,0.13
	c0.15-0.16,0.33-0.4,0.31-0.59c-0.1-1.26-0.22-2.52-0.39-3.77c-0.75-5.68-0.6-11.38-0.45-17.08c0.04-1.35,0.06-2.7,0.12-4.05
	c0.09-2.01,1.05-2.64,2.99-1.99c1.86,0.62,2.65,1.75,2.64,3.73C37.13,7.23,37.14,10.48,37.14,13.81z"/>
</svg>
