<?xml version="1.0" encoding="utf-8"?>
<!-- Generator: Adobe Illustrator 27.9.0, SVG Export Plug-In . SVG Version: 6.00 Build 0)  -->
<svg version="1.1" id="Layer_1" xmlns="http://www.w3.org/2000/svg" xmlns:xlink="http://www.w3.org/1999/xlink" x="0px" y="0px"
	 viewBox="0 0 30.41 32.11" style="enable-background:new 0 0 30.41 32.11;" xml:space="preserve">
<path d="M13.5,5.87c0-1.5-0.02-3.01,0.01-4.51c0.02-1.02,0.5-1.46,1.61-1.34c2.34,0.26,3.06,1.03,2.97,3.36
	c-0.07,1.83-0.11,3.67-0.14,5.51c-0.01,0.33,0.08,0.7,0.49,0.73c0.22,0.01,0.51-0.11,0.66-0.27c0.96-1.05,1.9-2.11,2.61-3.35
	c0.45-0.78,1.03-1.3,2.02-1.17c1.2,0.16,1.88,1.01,2.54,1.88c0.32,0.43-0.09,0.79-0.28,1.13c-0.79,1.4-1.87,2.56-3.09,3.59
	c-0.3,0.26-0.75,0.52-0.6,0.99c0.16,0.49,0.67,0.37,1.06,0.41c1.24,0.13,2.48,0.25,3.73,0.37c0.68,0.06,1.34,0.22,1.82,0.73
	c0.5,0.53,1.33,1.04,1,1.87c-0.37,0.92-1.32,1.48-2.26,1.15c-1.71-0.6-3.48-0.3-5.2-0.67c-0.96-0.2-2-0.18-2.99-0.12
	c-1.16,0.06-1.45,0.62-0.92,1.67c0.3,0.59,0.69,1.16,1.15,1.63c2.38,2.45,4.77,4.89,7.2,7.28c0.88,0.87,2.15,1.33,2.8,2.47
	c0.39,0.68,1.18,1.34,0.36,2.22c-0.72,0.76-1.59,0.85-2.53,0.48c-0.71-0.28-1.27-0.79-1.83-1.3c-2.09-1.91-4.38-3.62-5.93-6.06
	c-0.22-0.34-0.55-0.71-1.02-0.44c-0.32,0.18-0.28,0.57-0.28,0.9c0.01,0.75-0.01,1.51,0.05,2.26c0.07,0.82-0.02,1.61-0.89,1.84
	c-0.97,0.26-2,0.34-2.78-0.56c-0.76-0.88-0.97-1.91-0.9-3.04c0.06-1,0.1-2,0.13-3c0.01-0.33,0.02-0.71-0.29-0.9
	c-0.42-0.25-0.84-0.05-1.13,0.26c-1.38,1.45-2.73,2.94-4.1,4.4c-1.2,1.28-2.35,2.61-3.88,3.52c-1.47,0.88-3.53,0.25-4.16-1.28
	c-0.18-0.45-0.04-0.84,0.27-1.14c0.42-0.4,0.89-0.77,1.37-1.08c1.13-0.73,2.12-1.62,3.05-2.59c1.61-1.68,2.91-3.66,4.9-4.99
	c0.49-0.33,1.08-0.97,0.74-1.69c-0.29-0.62-1.03-0.4-1.58-0.38c-1.93,0.06-3.84-0.16-5.73-0.53c-1.08-0.21-2.1-0.57-2.94-1.31
	c-0.39-0.34-0.76-0.72-0.52-1.28c0.2-0.49,0.59-0.8,1.15-0.82c1.08-0.03,2.16-0.08,3.24,0.15c1.46,0.32,2.95,0.54,4.42,0.79
	c0.41,0.07,0.91,0.12,1.16-0.26c0.24-0.37,0.07-0.81-0.23-1.14c-1.75-1.89-3.25-4.05-5.64-5.25c-0.3-0.15-0.64-0.31-0.82-0.56
	C2.94,5.84,2.19,5.35,2.51,4.47C2.74,3.81,4,3.48,4.96,3.94c1.73,0.83,3.49,1.65,4.76,3.18c0.86,1.03,1.67,2.09,2.51,3.12
	c0.26,0.32,0.52,0.75,0.96,0.67c0.56-0.1,0.38-0.66,0.39-1.03c0.03-1.33,0.01-2.67,0.01-4.01C13.56,5.87,13.53,5.87,13.5,5.87z"/>
</svg>
