<?xml version="1.0" encoding="utf-8"?>
<!-- Generator: Adobe Illustrator 27.9.0, SVG Export Plug-In . SVG Version: 6.00 Build 0)  -->
<svg version="1.1" id="Layer_1" xmlns="http://www.w3.org/2000/svg" xmlns:xlink="http://www.w3.org/1999/xlink" x="0px" y="0px"
	 viewBox="0 0 54.87 87.25" style="enable-background:new 0 0 54.87 87.25;" xml:space="preserve">
<path d="M0.02,44.7c0.1-0.4,0.46-0.7,0.92-0.73c1.4-0.1,2.76-0.39,4.22-0.17c3.47,0.51,6.83,1.51,10.29,2.03
	c2.14,0.32,4.29,0.63,6.43,0.97c0.35,0.06,0.72,0.15,0.92-0.14c0.26-0.39,0.01-0.79-0.23-1.14c-0.92-1.29-1.82-2.59-2.75-3.88
	c-2.05-2.84-4.07-5.7-6.34-8.38c-0.83-0.98-0.51-1.63,0.8-1.81c1.62-0.22,2.99,0.24,3.96,1.6c2.08,2.92,4.16,5.84,6.22,8.77
	c0.57,0.82,1.04,1.71,1.58,2.55c0.17,0.26,0.38,0.59,0.78,0.41c0.35-0.16,0.36-0.5,0.37-0.85c0.12-4.92,0.13-9.85,0.39-14.76
	c0.32-6.09,0.38-12.19,0.5-18.29c0.06-3.09,0.35-6.16,0.8-9.22c0.2-1.36,0.98-1.84,2.31-1.63c1.38,0.22,2.27,1.11,2.07,2.28
	c-1.02,5.88-0.52,11.83-0.94,17.72c-0.58,8.07-0.05,16.2-1.26,24.23c-0.02,0.16-0.02,0.33-0.02,0.5c0.03,0.72-0.33,1.68,0.54,2.02
	c0.94,0.36,1.17-0.7,1.64-1.21c2.98-3.18,6.32-5.94,9.81-8.53c0.87-0.65,1.73-1.31,2.6-1.95c0.62-0.46,1.27-0.8,2.09-0.53
	c0.89,0.28,1.85,0.5,2.1,1.55c0.23,0.93-0.65,1.3-1.18,1.75c-1.4,1.18-2.81,2.38-4.34,3.38c-2.95,1.93-5.44,4.42-8.15,6.65
	c-0.37,0.31-0.89,0.6-0.72,1.19c0.16,0.58,0.77,0.57,1.22,0.71c0.47,0.15,0.98,0.2,1.48,0.22c3.18,0.17,6.26,0.93,9.36,1.56
	c1.71,0.35,3.37,0.95,5.13,1.11c0.41,0.04,0.82,0.18,1.19,0.34c0.75,0.33,1.24,0.78,0.98,1.74c-0.24,0.86-0.67,1.19-1.59,1.2
	c-1.88,0.02-3.62-0.67-5.37-1.12c-2.19-0.56-4.4-1.03-6.62-1.25c-2.42-0.24-4.7-0.96-7.03-1.53c-0.48-0.12-0.99-0.22-1.48-0.22
	c-1.3,0-1.8,0.86-1.12,2c0.59,1,1.22,1.99,1.94,2.9c2.76,3.49,4.57,7.54,6.81,11.33c0.71,1.22,1.39,2.45,2.06,3.7
	c0.79,1.48,0.72,2.34-0.18,2.83c-1.17,0.64-2.89,0.34-3.59-0.76c-0.72-1.12-1.28-2.34-1.9-3.53c-1.57-3.04-3.14-6.07-4.69-9.12
	c-0.24-0.47-0.43-0.96-1.05-0.77c-0.48,0.15-0.44,0.66-0.45,1.07c-0.01,1.17,0,2.34,0,3.51c-0.06,0-0.12,0-0.18,0
	c0,4.67,0.05,9.34-0.03,14.01c-0.03,1.82-0.23,3.61-0.04,5.45c0.22,2.12-1.83,3.36-3.74,2.46c-0.98-0.47-1.1-1.44-1.03-2.37
	c0.65-7.99,0.57-16.01,0.92-24.01c0.03-0.75,0.11-1.49,0.22-2.24c0.07-0.5,0.28-1.01-0.21-1.38c-0.65-0.49-1.08,0.1-1.52,0.41
	c-1.37,0.95-2.7,1.96-4.09,2.88c-1.39,0.92-2.82,1.79-4.25,2.63c-0.65,0.38-1.37,0.64-2.13,0.21c-0.8-0.46-1.7-0.94-1.69-1.97
	c0.01-0.88,0.92-1.18,1.59-1.41c2.94-0.96,5.04-3.22,7.61-4.76c1.07-0.64,2.1-1.35,3.19-1.96c1.16-0.65,1.06-1.96-0.17-2.49
	c-0.68-0.29-1.45-0.48-2.18-0.51C16.61,49.75,10.64,48,4.53,47.22c-1.39-0.18-2.83-0.43-3.92-1.49C0.31,45.43-0.09,45.15,0.02,44.7"
	/>
</svg>
