<?xml version="1.0" encoding="utf-8"?>
<!-- Generator: Adobe Illustrator 27.9.0, SVG Export Plug-In . SVG Version: 6.00 Build 0)  -->
<svg version="1.1" id="Layer_1" xmlns="http://www.w3.org/2000/svg" xmlns:xlink="http://www.w3.org/1999/xlink" x="0px" y="0px"
	 viewBox="0 0 62.49 61.91" style="enable-background:new 0 0 62.49 61.91;" xml:space="preserve">
<path d="M34.71,12.26c0,3.86-0.01,6.64,0.01,9.42c0,0.47,0.06,0.95,0.14,1.41c0.06,0.31,0.22,0.62,0.56,0.69
	c0.35,0.08,0.56-0.17,0.74-0.46c1.19-1.89,2.74-3.48,4.12-5.2c1.65-2.06,3.54-3.88,5.47-5.63c1.89-1.71,3.56-3.61,5.18-5.54
	c0.91-1.09,1.94-1.44,3.14-1.08c1.24,0.38,2.21,1.25,2.6,2.57c0.19,0.63,0.07,1.26-0.4,1.78c-0.63,0.71-1.18,1.53-1.91,2.12
	c-2.61,2.08-4.92,4.49-7.32,6.79c-2.51,2.41-4.78,5.09-7.15,7.65c-0.34,0.36-0.6,0.79-0.29,1.28c0.25,0.4,0.69,0.33,1.08,0.25
	c5.16-1.01,10.45-0.51,15.62-1.4c1.01-0.17,2.06-0.13,3.09-0.17c0.57-0.02,1.1,0.12,1.59,0.41c1.03,0.6,1.68,1.81,1.47,2.77
	c-0.16,0.71-1.4,1.83-2.31,1.78c-1.05-0.06-2.04,0.23-3.07,0.25c-5.16,0.11-10.31,0.29-15.46,0.45c-0.48,0.01-0.96-0.01-1.43,0.05
	c-0.8,0.11-0.77,0.69-0.57,1.25c0.1,0.28,0.39,0.49,0.6,0.73c2.69,2.91,5.24,5.98,8.28,8.52c1.68,1.41,3.37,2.87,5.33,3.96
	c1.45,0.81,2.78,1.81,3.95,3.03c0.69,0.72,0.94,1.5,0.69,2.38c-0.29,1.02-1.25,1.07-2.13,1.18c-1,0.12-1.93-0.11-2.67-0.76
	c-2.39-2.1-5-3.89-7.53-5.79c-3.27-2.46-5.76-5.67-8.4-8.73c-0.21-0.24-0.35-0.55-0.59-0.74c-0.46-0.37-0.74-1.23-1.48-0.9
	c-0.71,0.31-0.4,1.11-0.43,1.72c-0.14,2.94,0.36,5.85,0.44,8.78c0.11,3.89,0.67,7.74,0.9,11.61c0.14,2.43-0.42,2.99-2.73,3.2
	c-2.04,0.18-3.31-0.82-3.54-2.9c-0.16-1.42-0.18-2.85-0.27-4.27c-0.29-4.43-0.59-8.86-0.46-13.31c0.01-0.4,0-0.79-0.01-1.19
	c-0.01-0.4-0.06-0.84-0.53-0.94c-0.33-0.07-0.58,0.2-0.8,0.44c-0.38,0.41-0.75,0.82-1.11,1.24c-3.4,4.01-7.47,7.31-11.26,10.91
	c-1.8,1.71-4.3,1.28-5.62,0.1c-1.16-1.04-1.15-2.21,0.08-3.13c5.39-4.07,10.44-8.52,15.14-13.36c0.28-0.28,0.55-0.57,0.83-0.85
	c0.38-0.37,0.47-0.82,0.33-1.31c-0.18-0.61-0.73-0.54-1.18-0.5c-1.26,0.13-2.52,0.28-3.77,0.49c-4.54,0.76-9.14,0.61-13.71,1.02
	c-1.6,0.14-3.16-0.19-4.73-0.39c-1.09-0.14-1.92-0.73-2.67-1.45c-0.86-0.83-0.74-1.67,0.27-2.32c0.78-0.5,1.66-0.5,2.53-0.51
	c1.83-0.02,3.65-0.02,5.48-0.02c4.68,0.01,9.34-0.67,14.03-0.52c0.08,0,0.16,0,0.24-0.01c0.91-0.15,2.3,0.06,2.58-0.73
	c0.36-1.04-1.11-1.33-1.78-1.89c-1.94-1.63-4.15-2.89-5.95-4.72c-1.94-1.98-3.85-4-5.47-6.25c-0.56-0.78-1.12-1.58-0.27-2.56
	c0.79-0.9,1.72-1.08,2.79-0.68c1.2,0.45,2.3,1.05,3,2.21c2.43,4.03,6.15,6.79,9.6,9.82c0.12,0.11,0.24,0.21,0.37,0.3
	c0.34,0.25,0.72,0.38,1.09,0.1c0.27-0.21,0.24-0.53,0.2-0.86c-0.14-1.26-0.19-2.53-0.35-3.79c-0.48-3.64-0.23-7.3-0.3-10.95
	c-0.04-1.9-0.11-3.81-0.17-5.71c-0.01-0.48-0.05-0.96,0.01-1.43c0.22-1.59,1.08-2.19,2.63-1.87c2.1,0.43,3.06,1.51,3.3,3.74
	c0.03,0.24,0.1,0.47,0.1,0.71C34.42,7.47,34.86,10.4,34.71,12.26z"/>
</svg>
