<?xml version="1.0" encoding="utf-8"?>
<!-- Generator: Adobe Illustrator 27.9.0, SVG Export Plug-In . SVG Version: 6.00 Build 0)  -->
<svg version="1.1" id="Layer_1" xmlns="http://www.w3.org/2000/svg" xmlns:xlink="http://www.w3.org/1999/xlink" x="0px" y="0px"
	 viewBox="0 0 58.91 83.22" style="enable-background:new 0 0 58.91 83.22;" xml:space="preserve">
<path d="M35.47,8.64c0.21,3.52,0.5,6.53,0.55,9.53c0.09,5.16,0.01,10.31,0.04,15.47c0,0.72-0.44,1.74,0.58,2.07
	c0.81,0.26,1.25-0.58,1.67-1.12c2.03-2.66,4.66-4.76,6.87-7.24c0.53-0.59,1.1-1.13,1.49-1.84c0.63-1.13,1.71-1.4,2.88-1.15
	c1.24,0.26,2.11,1.1,2.65,2.21c0.2,0.42,0.06,0.95-0.25,1.35c-0.44,0.56-0.85,1.15-1.34,1.67c-2.21,2.39-4.7,4.49-6.99,6.81
	c-1.13,1.14-2.31,2.34-3.61,3.34c-0.37,0.29-0.68,0.67-1.02,1c-0.36,0.34-0.66,0.76-0.51,1.25c0.19,0.66,0.8,0.69,1.36,0.69
	c4.44-0.02,8.88-0.1,13.26-0.89c1.32-0.24,2.52,0.1,3.74,0.33c1.2,0.22,2.11,1.41,2.08,2.31c-0.03,0.84-1.12,1.91-2.25,2.19
	c-0.08,0.02-0.16,0.03-0.23,0.03c-4.81,0.28-9.62,0.88-14.45,0.1c-0.39-0.06-0.79-0.1-1.18-0.09c-1.22,0.04-1.58,0.68-0.81,1.68
	c1.51,1.95,3.21,3.73,5.23,5.17c2.45,1.75,4.91,3.49,7.36,5.25c0.91,0.65,1.67,1.45,2.16,2.48c0.7,1.46,0.26,2.49-1.29,2.86
	c-1.34,0.32-2.71,0.07-3.52-0.93c-2.91-3.59-7.21-5.45-10.39-8.67c-0.78-0.79-1.53-1.61-2.35-2.35c-0.57-0.51-1.08-0.3-1.09,0.46
	c-0.01,1.51-0.07,3.03,0.15,4.51c0.39,2.61,0.26,5.23,0.28,7.84c0.04,5.08,0.02,10.16,0,15.23c-0.01,2.15-1.03,3.06-3.28,3.03
	c-2.05-0.03-3.08-1.25-3.07-3.34c0.07-8.73,0.09-17.46,0.13-26.18c0-0.32,0-0.64-0.07-0.95c-0.22-0.89-0.89-1.06-1.55-0.35
	c-2.09,2.24-4.14,4.53-6.25,6.74c-1.2,1.26-2.46,2.49-3.79,3.61c-1.54,1.3-4.71,0.62-5.64-1.13c-0.38-0.7-0.4-1.43,0.35-1.88
	c4.04-2.47,6.91-6.27,10.51-9.24c0.73-0.6,1.37-1.31,1.99-2.03c0.5-0.58,0.24-1.26-0.53-1.39c-1.1-0.2-2.22-0.05-3.32,0.08
	c-5.83,0.7-11.7,0.85-17.56,0.91c-1.33,0.01-2.47-0.51-3.53-1.24c-0.54-0.37-1.05-0.85-0.86-1.56c0.19-0.71,0.7-1.24,1.46-1.41
	c0.62-0.13,1.25-0.26,1.88-0.26c6.81,0.05,13.59-0.73,20.4-0.76c1.19,0,2.38,0.02,3.57,0.01c0.31,0,0.65-0.01,0.76-0.4
	c0.1-0.33,0.01-0.65-0.23-0.87c-0.47-0.43-0.95-0.83-1.47-1.2c-4.8-3.48-8.94-7.58-11.92-12.77c-0.46-0.8-1.33-1.62-0.53-2.56
	c0.79-0.91,1.98-1.04,3.08-0.67c1.38,0.46,2.56,1.27,3.29,2.59c1.12,2.02,2.59,3.8,3.95,5.64c1.29,1.74,3,3.05,4.5,4.57
	c0.29,0.29,0.62,0.55,1.04,0.39c0.56-0.22,0.5-0.78,0.45-1.23c-0.67-5.94-0.17-11.9-0.34-17.84c-0.15-5.23-0.62-10.45-0.48-15.69
	C29.53,0.49,30.81-0.5,33,0.24c2.04,0.69,2.61,1.5,2.57,3.69c-0.02,0.87-0.07,1.74-0.09,2.62C35.46,7.41,35.47,8.29,35.47,8.64z"/>
</svg>
