<?xml version="1.0" encoding="utf-8"?>
<!-- Generator: Adobe Illustrator 27.9.0, SVG Export Plug-In . SVG Version: 6.00 Build 0)  -->
<svg version="1.1" id="Layer_1" xmlns="http://www.w3.org/2000/svg" xmlns:xlink="http://www.w3.org/1999/xlink" x="0px" y="0px"
	 viewBox="0 0 65.33 56.47" style="enable-background:new 0 0 65.33 56.47;" xml:space="preserve">
<path d="M27.71,42.01c-0.31-2.69-0.37-6.11-0.19-9.54c0.02-0.33,0.02-0.68-0.05-1c-0.13-0.62-0.58-0.81-1.12-0.58
	c-0.45,0.19-0.86,0.5-1.27,0.79c-4.58,3.2-9.18,6.39-13.74,9.64c-1.22,0.87-2.31,1.92-3.49,2.85c-1.24,0.98-3.68,0.28-4.2-1.16
	c-0.21-0.6,0.23-0.92,0.57-1.27c1.46-1.5,3.33-2.45,5.03-3.63c1.98-1.36,4-2.7,5.88-4.2c2.1-1.68,4.31-3.14,6.74-4.28
	c0.37-0.17,0.85-0.37,0.79-0.85c-0.09-0.69-0.72-0.58-1.19-0.57c-5.51,0.1-11.03-0.1-16.53,0.43C3.35,28.78,2,28.19,0.6,27.69
	c-0.42-0.15-0.61-0.53-0.6-1c0.01-0.67,0.47-0.78,1.01-0.84c0.91-0.1,1.81-0.27,2.73-0.31c6.33-0.25,12.65-0.4,18.98-0.07
	c0.47,0.02,1.07,0.21,1.29-0.41c0.2-0.55-0.25-0.92-0.56-1.3c-3.72-4.39-7.29-8.92-11.41-12.96c-1.2-1.18-2.11-2.58-2.98-4.01
	C8.7,6.2,8.37,5.54,8.87,4.94c0.5-0.59,1.24-0.39,1.89-0.23c1.79,0.44,2.71,1.95,3.59,3.32c0.87,1.35,1.86,2.5,3.03,3.6
	c2.86,2.69,5.61,5.49,7.7,8.87c0.35,0.57,0.72,1.15,1.18,1.61c0.43,0.43,0.95,0.35,1.15-0.29c0.12-0.39,0.13-0.83,0.08-1.24
	C26.85,14.66,27.42,8.72,27.2,2.8c-0.02-0.41-0.01-0.85,0.11-1.24c0.3-0.96,1.3-1.68,2.03-1.53c1.11,0.22,2.27,1.62,2.09,2.62
	c-0.29,1.58-0.01,3.12,0.12,4.69c0.28,3.49,0.18,7-0.19,10.5c-0.04,0.41-0.23,0.82-0.19,1.22c0.06,0.63-0.06,1.46,0.74,1.71
	c0.67,0.21,1.04-0.42,1.42-0.84c3.3-3.71,7.13-6.78,11.18-9.62c1.09-0.77,2.16-1.57,3.29-2.27c0.48-0.3,1.09-0.51,1.65-0.52
	c1,0,2.12,0.09,2.57,1.17c0.45,1.09-0.49,1.7-1.2,2.23c-1.6,1.2-3.26,2.32-4.91,3.45c-3.11,2.13-5.9,4.64-8.7,7.15
	c-1.06,0.95-2.17,1.83-3.25,2.75c-0.39,0.33-0.8,0.69-0.56,1.26c0.2,0.46,0.7,0.33,1.09,0.38c1.44,0.17,2.82-0.24,4.23-0.4
	c3.48-0.4,6.93-0.97,10.4-1.42c1.07-0.14,2.17-0.17,3.25-0.16c2.52,0.03,4.99-0.21,7.43-0.87c1.3-0.36,2.66-0.45,3.97-0.07
	c0.9,0.26,1.74,0.72,1.57,1.91c-0.15,1.04-0.89,1.23-1.79,1.38c-4.45,0.73-8.94,0.97-13.44,1.14c-2.74,0.1-5.47,0.6-8.18,1.07
	c-2.84,0.48-5.64,0.54-8.46-0.08c-0.41-0.09-0.9-0.2-1.17,0.16c-0.33,0.45-0.15,0.95,0.2,1.36c2.81,3.21,4.8,7.01,7.52,10.3
	c1.91,2.31,3.44,4.92,5.19,7.36c1.07,1.49,2.19,2.94,3.33,4.38c0.62,0.78,1.12,1.57,0.31,2.43c-0.75,0.8-1.74,0.98-2.75,0.48
	c-1-0.5-1.68-1.31-2.31-2.23c-3.51-5.18-7.07-10.32-10.61-15.48c-0.28-0.41-0.56-0.9-1.17-0.67c-0.49,0.18-0.4,0.68-0.4,1.08
	c0.01,0.75-0.01,1.52,0.13,2.25c0.61,3.14,0.51,6.32,0.51,9.49c0,1.42,0.09,2.82,0.29,4.24c0.27,1.92-0.41,2.88-1.81,2.95
	c-1.58,0.08-2.95-1.05-2.98-2.71C27.66,50.08,27.71,46.4,27.71,42.01z"/>
</svg>
