<?xml version="1.0" encoding="utf-8"?>
<!-- Generator: Adobe Illustrator 27.9.0, SVG Export Plug-In . SVG Version: 6.00 Build 0)  -->
<svg version="1.1" id="Layer_1" xmlns="http://www.w3.org/2000/svg" xmlns:xlink="http://www.w3.org/1999/xlink" x="0px" y="0px"
	 viewBox="0 0 32.86 32.3" style="enable-background:new 0 0 32.86 32.3;" xml:space="preserve">
<path d="M5.57,13.95c1.18,0.04,2.69-0.13,4.17,0.27c0.4,0.11,0.86,0.09,1.11-0.34c0.25-0.42,0.07-0.83-0.23-1.13
	c-0.84-0.82-1.65-1.66-2.56-2.39C6.21,8.9,4.59,7.22,2.97,5.53C2.64,5.19,2.15,4.85,2.44,4.26c0.28-0.59,0.82-0.81,1.44-0.83
	C5.62,3.35,6.95,4.18,7.95,5.5c1.17,1.54,2.56,2.86,3.95,4.18c0.35,0.34,0.7,0.8,1.27,0.52c0.55-0.27,0.5-0.87,0.4-1.33
	c-0.48-2.26,0.09-4.48,0.23-6.72c0.1-1.61,0.61-2.19,1.53-2.15c1.4,0.06,2.72,1.42,2.62,2.77c-0.09,1.25-0.28,2.48-0.43,3.73
	c-0.07,0.58-0.2,1.16-0.18,1.73c0.04,1.08,0.57,1.32,1.45,0.64c1.72-1.32,3.44-2.64,5.08-4.06c1.13-0.98,2.21-0.97,3.43-0.29
	c1.59,0.89,1.65,1.43,0.26,2.76c-2.01,1.92-4.5,3.17-6.64,4.91c-0.68,0.56-2.01,0.9-1.76,1.89c0.32,1.27,1.7,0.63,2.61,0.7
	c2.91,0.22,5.83,0.35,8.75,0.51c0.51,0.03,1,0.06,1.4,0.42c0.57,0.52,1.13,1.07,0.87,1.92c-0.22,0.72-0.84,1.04-1.54,1.08
	c-0.75,0.05-1.51,0.04-2.25-0.02c-2.91-0.25-5.81-0.52-8.72-0.82c-0.35-0.04-0.73-0.11-0.92,0.16c-0.27,0.36-0.17,0.83,0.13,1.15
	c0.73,0.8,1.52,1.55,2.24,2.36c1.66,1.87,3.3,3.76,4.95,5.65c1.06,1.21,1.15,1.84,0.41,2.59c-0.64,0.65-2.14,0.75-2.99,0.05
	c-1.55-1.28-2.85-2.81-3.99-4.47c-0.57-0.82-1.15-1.65-1.83-2.38c-0.38-0.42-1-0.43-1.08,0.29c-0.1,0.88-0.43,1.71-0.16,2.7
	c0.39,1.43,0.47,2.96,0.62,4.45c0.07,0.69-0.11,1.39-0.81,1.7c-0.74,0.33-1.46,0.17-2.09-0.38c-0.92-0.8-1.55-1.7-1.51-3.01
	c0.09-2.75-0.2-5.51,0.44-8.24c0.14-0.58,0.43-1.4-0.4-1.76c-0.67-0.29-1.27,0.03-1.82,0.5c-1.89,1.63-3.97,3.02-5.58,5.01
	c-1.35,1.67-3.49,1.31-4.48-0.57c-0.28-0.53-0.09-0.99,0.27-1.36c0.64-0.66,1.3-1.29,1.99-1.89c0.82-0.71,1.69-1.36,2.52-2.06
	c0.17-0.14,0.33-0.42,0.32-0.63c-0.02-0.41-0.39-0.49-0.73-0.49c-0.92,0.01-1.84-0.03-2.75,0.08c-0.53,0.07-1.02,0.06-1.43-0.24
	c-0.72-0.53-1.77-0.97-1.59-2.05c0.2-1.18,1.32-1.07,2.23-1.1C3.25,13.93,4.26,13.95,5.57,13.95z"/>
</svg>
