<?xml version="1.0" encoding="utf-8"?>
<!-- Generator: Adobe Illustrator 27.9.0, SVG Export Plug-In . SVG Version: 6.00 Build 0)  -->
<svg version="1.1" id="Layer_1" xmlns="http://www.w3.org/2000/svg" xmlns:xlink="http://www.w3.org/1999/xlink" x="0px" y="0px"
	 viewBox="0 0 52.26 51.62" style="enable-background:new 0 0 52.26 51.62;" xml:space="preserve">
<path d="M26.37,9.7c-0.24,3.09,0.11,6.18-0.39,9.26c-0.05,0.33-0.04,0.67-0.02,1c0.03,0.59,0.08,1.24,0.72,1.46
	c0.57,0.2,0.89-0.36,1.22-0.7c3.16-3.22,6.78-5.95,10.04-9.06c0.54-0.52,1.08-1.04,1.58-1.6c0.44-0.49,0.75-1.21,1.59-0.9
	c0.99,0.37,2.17,0.49,2.7,1.62c0.24,0.52,0.06,0.95-0.34,1.34c-0.95,0.94-1.8,1.99-2.83,2.83c-2.58,2.11-4.92,4.51-7.67,6.42
	c-0.36,0.25-0.71,0.52-0.47,1c0.16,0.32,0.55,0.37,0.88,0.33c1.99-0.22,3.99-0.37,5.96-0.71c2.47-0.42,4.97-0.54,7.44-0.87
	c1.58-0.21,2.93,0.47,4.41,0.59c0.54,0.04,0.92,0.43,1.04,0.95c0.16,0.67-0.25,1.09-0.74,1.45c-0.35,0.26-0.73,0.41-1.16,0.41
	c-5.43,0-10.75,1.41-16.18,1.41c-1,0-2.01-0.03-3.01-0.03c-0.32,0-0.69-0.02-0.85,0.35c-0.17,0.39,0.13,0.63,0.35,0.85
	c2.11,2.02,4.19,4.08,6.37,6.02c2.88,2.54,5.92,4.89,9.03,7.15c0.2,0.15,0.43,0.26,0.62,0.43c0.55,0.49,1.31,0.98,0.86,1.85
	c-0.44,0.87-1.21,1.37-2.25,1.19c-0.66-0.12-1.23-0.41-1.77-0.86c-2.89-2.4-5.79-4.78-8.73-7.11c-2.24-1.78-4.11-3.91-6.04-5.99
	c-0.57-0.61-1.07-1.86-2.07-1.45c-0.82,0.34-0.39,1.5-0.39,2.29c-0.02,4.09-0.03,8.18-0.3,12.26c-0.12,1.83-0.2,3.67,0.25,5.49
	c0.08,0.32,0.04,0.67,0.03,1c-0.04,1.29-0.61,2.1-1.54,2.21c-1.12,0.13-2.69-0.87-2.9-1.91c-0.11-0.57-0.09-1.16-0.09-1.75
	c0.03-4.51-0.16-9.02,0.44-13.51c0.06-0.41,0.08-0.89-0.33-1.13c-0.6-0.35-0.9,0.23-1.22,0.55c-3,3.02-6.01,6.03-8.96,9.1
	c-1.29,1.34-2.88,2.27-4.29,3.44c-0.86,0.71-2.86,0.3-3.63-0.56c-0.71-0.8-0.49-1.87,0.73-2.73c2.11-1.5,4.17-3.06,6.02-4.87
	c3.74-3.66,7.43-7.38,11.14-11.08c0.37-0.37,0.67-0.79,0.41-1.33c-0.21-0.44-0.68-0.48-1.08-0.43c-2.49,0.3-4.99-0.03-7.49,0.38
	c-3.23,0.53-6.51,0.22-9.76,0.1c-0.64-0.02-1.29-0.31-1.9-0.55c-0.86-0.33-1.97-0.79-1.75-1.79c0.18-0.82,1.27-1.31,2.21-1.33
	c1.84-0.03,3.68,0.01,5.51,0.15c1,0.07,1.97,0.13,2.98-0.04c2.4-0.42,4.83-0.1,7.25-0.11c0.42,0,0.84,0.01,1.25-0.02
	c0.31-0.02,0.69,0.04,0.87-0.32c0.2-0.4-0.15-0.63-0.35-0.85c-1.6-1.71-3.35-3.27-5.2-4.7c-2.71-2.09-5.45-4.15-7.98-6.47
	C6.26,9.62,5.9,9.4,5.62,9.09C5.25,8.68,5.23,8.18,5.51,7.7c0.23-0.4,0.65-0.58,1.07-0.49c1.37,0.3,2.77,0.44,3.92,1.46
	c3.37,2.99,7.18,5.46,10.27,8.78c0.27,0.29,0.57,0.69,1.05,0.49c0.48-0.2,0.41-0.69,0.36-1.09c-0.64-4.83-0.11-9.68-0.23-14.51
	c-0.02-0.9-0.08-1.92,1.11-2.24c1.06-0.29,1.97,0.07,2.79,0.74c0.7,0.57,0.51,1.37,0.52,2.1C26.39,5.19,26.37,7.44,26.37,9.7z"/>
</svg>
