<?xml version="1.0" encoding="utf-8"?>
<!-- Generator: Adobe Illustrator 27.9.0, SVG Export Plug-In . SVG Version: 6.00 Build 0)  -->
<svg version="1.1" id="Layer_1" xmlns="http://www.w3.org/2000/svg" xmlns:xlink="http://www.w3.org/1999/xlink" x="0px" y="0px"
	 viewBox="0 0 54.28 93.99" style="enable-background:new 0 0 54.28 93.99;" xml:space="preserve">
<path d="M34.23,51.99c-0.26,4.76,0.46,9.49,0.37,14.26c-0.07,3.51-0.29,7.01-0.44,10.51c-0.19,4.43,0.19,8.85,0.14,13.28
	c-0.01,0.67,0.02,1.33-0.11,1.99c-0.35,1.66-0.9,2.08-2.6,1.95c-1.37-0.11-1.92-0.69-1.86-2.38c0.24-6.41-0.08-12.81,0.23-19.23
	c0.32-6.57,0.23-13.18-0.21-19.77c-0.21-3.09,0.32-6.17,0.32-9.26c0-0.48,0.24-1.04-0.35-1.33c-0.69-0.33-1.09,0.2-1.48,0.61
	c-3.26,3.46-6.52,6.92-10.27,9.86c-1.04,0.82-1.57,2.19-2.94,2.65c-0.47,0.16-0.88,0.49-1.36,0.64c-0.97,0.32-2.47-0.22-2.87-0.98
	c-0.42-0.79-0.15-1.95,0.9-2.6c2.49-1.56,4.52-3.68,6.84-5.45c1.74-1.32,3.18-2.96,4.71-4.5c0.24-0.24,0.46-0.52,0.33-0.88
	c-0.19-0.51-0.66-0.47-1.05-0.37c-2.3,0.58-4.66,0.18-6.98,0.37c-3.15,0.26-6.31,0.41-9.45,0.84c-1.71,0.23-3.52,0.37-5.1-0.7
	c-0.49-0.33-1.1-0.63-0.96-1.31c0.12-0.63,0.74-0.93,1.32-1c1.99-0.23,3.98-0.42,5.98-0.57c5.91-0.42,11.83-0.68,17.77-0.54
	c1.01,0.02,2.43,0.53,2.86-0.82c0.35-1.12-0.94-1.66-1.64-2.3c-2.72-2.5-4.95-5.39-7.23-8.27c-2.05-2.59-3.86-5.48-6.73-7.36
	c-0.43-0.28-0.87-0.62-0.67-1.2c0.18-0.5,0.64-0.7,1.18-0.76c1.76-0.19,3.3,0.22,4.56,1.54c2.32,2.41,4.5,4.93,6.47,7.65
	c1.42,1.96,2.95,3.83,4.45,5.73c0.31,0.39,0.7,0.79,1.27,0.57c0.59-0.23,0.5-0.81,0.46-1.29c-0.26-3.25-0.25-6.51-0.39-9.76
	c-0.24-5.67-0.36-11.32,0.01-16.99c0.07-1.17-0.03-2.34,0.03-3.51c0.06-1.15,0.48-1.44,1.61-1.25c1.98,0.34,2.77,1.16,2.74,3.2
	c-0.04,3.59-0.29,7.18-0.29,10.77c0.01,5.09,0.51,10.18,0.33,15.28c-0.01,0.29-0.11,0.71,0.33,0.84c0.38,0.11,0.61-0.19,0.81-0.43
	c1.71-2.05,3.56-3.98,5.41-5.91c1.85-1.92,4.12-3.4,5.68-5.64c0.67-0.97,2.3-0.81,3.39,0.07c0.68,0.55,0.72,1.73-0.14,2.66
	c-1.75,1.9-3.49,3.85-5.46,5.51c-3.46,2.92-6.25,6.5-9.58,9.53c-0.53,0.48-0.78,1.07-0.49,1.8c0.28,0.71,0.89,0.66,1.47,0.63
	c3.16-0.18,6.34-0.22,9.48-0.58c2.59-0.3,5.14-0.22,7.7,0.08c0.81,0.09,1.51,0.36,1.57,1.3c0.06,0.91-0.63,1.37-1.35,1.58
	c-0.62,0.18-1.32,0.18-1.98,0.15c-4.09-0.19-8.16,0.48-12.25,0.39c-1.22-0.03-1.37,0.3-0.71,1.27c3.23,4.77,6.55,9.48,10.29,13.87
	c1.03,1.21,1.98,2.48,3.04,3.66c0.71,0.79,0.78,1.67,0.45,2.55c-0.24,0.65-1.77,0.8-2.76,0.38c-0.97-0.41-1.55-1.23-2.18-2.01
	c-4.02-5.02-8.07-10.01-11.35-15.56c-0.08-0.14-0.18-0.3-0.31-0.39c-0.19-0.14-0.42-0.35-0.62-0.33c-0.43,0.03-0.44,0.43-0.43,0.76
	c0.03,1.59,0.09,3.17,0.12,4.76C34.24,50.82,34.23,51.4,34.23,51.99z"/>
</svg>
