<?xml version="1.0" encoding="utf-8"?>
<!-- Generator: Adobe Illustrator 27.9.0, SVG Export Plug-In . SVG Version: 6.00 Build 0)  -->
<svg version="1.1" id="Layer_1" xmlns="http://www.w3.org/2000/svg" xmlns:xlink="http://www.w3.org/1999/xlink" x="0px" y="0px"
	 viewBox="0 0 58.8 101.78" style="enable-background:new 0 0 58.8 101.78;" xml:space="preserve">
<path d="M32.06,41.49c0,1.88,0,4.66,0,7.44c0,0.24-0.01,0.48,0.01,0.71c0.02,0.33,0.15,0.65,0.47,0.76c0.31,0.11,0.62-0.03,0.83-0.3
	c1.41-1.86,3.35-3.13,5.08-4.64c3.8-3.31,8.29-5.56,12.56-8.14c1.31-0.79,3.26-0.34,4.42,0.76c1.29,1.24,1.14,2.95-0.49,3.63
	c-5.33,2.22-9.92,5.58-14.45,9.07c-1,0.77-1.98,1.57-2.94,2.4c-0.89,0.76-0.81,1.34,0.3,1.61c2.47,0.6,4.99,0.88,7.53,0.91
	c2.78,0.04,5.53-0.32,8.29-0.67c1.59-0.2,2.99,0.22,4.21,1.18c0.73,0.58,1.06,1.42,0.88,2.33c-0.17,0.88-0.88,1.19-1.73,1.38
	c-0.92,0.2-1.74,0.46-2.76,0.15c-0.77-0.24-1.72,0.08-2.58,0.15c-3.58,0.29-7.13,0.2-10.64-0.68c-0.72-0.18-1.84-0.61-2.21,0.07
	c-0.42,0.75,0.65,1.31,1.17,1.85c2.87,2.98,6.15,5.5,9.36,8.09c1.36,1.1,2.65,2.26,4,3.38c0.92,0.76,1.14,1.77,0.8,2.79
	c-0.35,1.05-1.37,1.17-2.36,1.24c-1.36,0.09-2.48-0.35-3.42-1.32c-2.95-3.02-6.4-5.45-9.55-8.24c-1.9-1.69-3.72-3.47-5.28-5.48
	c-0.24-0.31-0.5-0.68-0.96-0.51c-0.51,0.19-0.32,0.66-0.29,1.02c0.46,6.41,0.31,12.84,0.54,19.25c0.13,3.81,0.24,7.62,0.27,11.42
	c0.01,1.76,0.42,3.46,0.66,5.18c0.38,2.74-2.02,3.86-4.37,3.39c-0.69-0.14-1.07-0.67-1.3-1.29c-0.45-1.2-0.66-2.44-0.74-3.72
	c-0.43-6.98-0.47-13.96-0.47-20.94c0-3.89-0.18-7.78-0.31-11.66c-0.05-1.41-0.4-1.64-1.52-0.82c-1.85,1.36-3.59,2.86-5.39,4.28
	c-3.61,2.85-7.39,5.46-11.3,7.88c-1.21,0.75-2.55,1.27-3.84,1.89c-0.6,0.29-1.22,0.25-1.87,0.18c-1.18-0.14-2.33-0.54-2.62-1.72
	c-0.28-1.12,0.69-1.89,1.56-2.43c3.83-2.4,7.63-4.84,11.29-7.51c3.32-2.43,6.49-5.08,10.03-7.2c0.27-0.16,0.52-0.38,0.69-0.64
	c0.35-0.52,0.2-0.98-0.44-0.96c-3.98,0.09-7.91-0.55-11.84-0.97c-3.13-0.33-6.31-0.41-9.36-1.44c-0.97-0.33-1.58-0.78-1.51-1.8
	c0.07-0.99,0.4-1.76,1.65-1.96c2.08-0.32,4.09,0.1,6.12,0.33c4.96,0.57,9.9,1.2,14.86,1.8c0.31,0.04,0.69,0.13,0.88-0.15
	c0.3-0.43-0.1-0.73-0.36-0.99c-3.28-3.35-6.56-6.7-9.86-10.02c-3.47-3.49-6.67-7.25-10.48-10.39c-0.8-0.66-1.32-1.48-0.84-2.49
	c0.47-0.99,1.45-1.14,2.45-1.08c1.39,0.09,2.53,0.66,3.61,1.58c3.76,3.19,7.12,6.78,10.42,10.43c1.97,2.17,4.22,4.09,6.04,6.4
	c0.25,0.31,0.57,0.68,0.97,0.56c0.4-0.12,0.48-0.59,0.48-1c0-1.43,0.05-2.86-0.01-4.29c-0.38-9.74-0.92-19.47-1.09-29.21
	c-0.06-3.39-0.47-6.8,0.05-10.2c0.26-1.72,1.04-2.34,2.69-2.05c2.08,0.37,3.24,1.64,3.27,3.75c0.06,3.88,0.09,7.76,0.22,11.64
	c0.14,4.09,0.06,8.19,0.27,12.29C32.04,32.03,32.54,36.3,32.06,41.49z"/>
</svg>
