<?xml version="1.0" encoding="utf-8"?>
<!-- Generator: Adobe Illustrator 27.9.0, SVG Export Plug-In . SVG Version: 6.00 Build 0)  -->
<svg version="1.1" id="Layer_1" xmlns="http://www.w3.org/2000/svg" xmlns:xlink="http://www.w3.org/1999/xlink" x="0px" y="0px"
	 viewBox="0 0 44.83 45.02" style="enable-background:new 0 0 44.83 45.02;" xml:space="preserve">
<path d="M16.51,37.35c0.11-1.51,0.23-3.17,0.37-4.83c0.03-0.4,0.16-0.85-0.18-1.11c-0.44-0.34-0.95-0.12-1.31,0.19
	c-1.43,1.25-2.82,2.55-4.23,3.83c-0.12,0.11-0.21,0.24-0.32,0.35c-2.25,2.4-3.68,2.52-6.28,0.49C3.39,35.36,3.3,34.6,4.5,33.61
	c2.19-1.82,4.49-3.51,6.72-5.29c1.49-1.18,2.94-2.41,4.39-3.64c0.36-0.31,0.72-0.72,0.52-1.23c-0.19-0.48-0.68-0.66-1.17-0.66
	c-2.87-0.01-5.68-0.47-8.48-1c-2.08-0.4-4.19-0.81-5.83-2.35c-0.44-0.41-0.76-0.84-0.61-1.45c0.17-0.67,0.66-1.09,1.32-1.23
	c0.71-0.16,1.4,0.08,2.1,0.22c3.18,0.62,6.38,1.17,9.56,1.76c0.39,0.07,0.85,0.29,1.08-0.11c0.3-0.54-0.22-0.81-0.56-1.14
	c-2.68-2.59-5.32-5.22-7.23-8.47C6.15,8.74,5.92,8.5,5.8,8.21C5.49,7.47,5.21,6.73,5.86,5.99c0.65-0.75,1.42-0.9,2.36-0.68
	c1.76,0.42,2.83,1.65,3.71,3.1c1.19,1.97,2.49,3.87,4.04,5.58c0.27,0.3,0.53,0.6,0.84,0.84c0.53,0.42,0.91,1.39,1.67,1.06
	c0.76-0.32,0.39-1.28,0.42-1.96c0.17-3.48,0.84-6.92,0.72-10.42c-0.01-0.15,0.08-0.3,0.13-0.45c0.4-1.24,0.41-2.84,2.15-3.06
	c1.53-0.19,2.38,1.09,3.38,1.92c0.56,0.47,0.48,1.3,0.34,2.02c-0.7,3.57-0.72,7.23-1.27,10.82c-0.05,0.31-0.02,0.64,0.03,0.95
	c0.13,0.71,0.48,0.99,1.13,0.46c2.03-1.65,4.12-3.22,5.77-5.3c1.28-1.61,2.84-1.69,4.29-0.36c1.38,1.27,1.42,2.19,0.18,3.64
	c-1.46,1.7-3.29,2.97-4.95,4.44c-0.33,0.3-0.96,0.46-0.75,1.06c0.19,0.53,0.8,0.44,1.24,0.49c3.06,0.35,6.07,1.19,9.17,1.2
	c1.46,0.01,2.56,0.76,3.61,1.61c0.56,0.46,0.99,1.12,0.61,1.89c-0.36,0.73-0.91,1.33-1.84,1.28c-1.11-0.07-2.23-0.09-3.32-0.28
	c-3.74-0.64-7.47-1.36-11.2-2.01c-0.72-0.13-1.74-0.58-2.09,0.3c-0.32,0.78,0.51,1.42,1.11,1.94c2.46,2.12,4.93,4.24,7.42,6.33
	c0.87,0.73,1.57,1.56,1.99,2.62c0.3,0.77,0.48,1.51-0.28,2.16c-0.69,0.59-1.28,0.96-2.32,0.55c-1.38-0.54-2.58-1.23-3.43-2.43
	c-1.86-2.62-4.52-4.45-6.69-6.76c-0.21-0.23-0.46-0.47-0.81-0.3c-0.34,0.17-0.31,0.53-0.32,0.83c-0.17,3.31-0.91,6.6-0.36,9.95
	c0.22,1.33-0.18,2.66,0.05,4.02c0.16,0.98-1.64,2.07-2.87,1.93c-2.01-0.23-3.21-1.6-3.22-3.7C16.5,40.04,16.51,38.76,16.51,37.35z"
	/>
</svg>
