<?xml version="1.0" encoding="utf-8"?>
<!-- Generator: Adobe Illustrator 27.9.0, SVG Export Plug-In . SVG Version: 6.00 Build 0)  -->
<svg version="1.1" id="Layer_1" xmlns="http://www.w3.org/2000/svg" xmlns:xlink="http://www.w3.org/1999/xlink" x="0px" y="0px"
	 viewBox="0 0 71.76 82.23" style="enable-background:new 0 0 71.76 82.23;" xml:space="preserve">
<path d="M37.13,66.26c0.24,2.9-0.14,7.5-0.12,12.1c0.02,3.17-2.74,4.8-5.54,3.31c-0.96-0.51-1.16-1.35-1.12-2.41
	c0.18-4.88,0.31-9.77,0.42-14.66c0.08-3.41,0.11-6.82,0.15-10.23c0-0.38,0.08-0.84-0.39-1.02c-0.47-0.18-0.7,0.21-0.96,0.49
	c-2.94,3.12-5.88,6.22-8.8,9.36c-2.01,2.16-3.8,2.61-6.04,1.42c-1.76-0.93-1.87-2.15-0.38-3.5c4.88-4.42,9.32-9.29,13.77-14.13
	c0.16-0.17,0.29-0.38,0.44-0.56c0.32-0.38,0.57-0.81,0.27-1.29c-0.23-0.37-0.69-0.5-1.05-0.37c-1.07,0.4-2.18,0.14-3.26,0.22
	c-6.89,0.5-13.78,0.65-20.51-1.33C2.95,43.34,1.89,43,0.95,42.42c-0.54-0.33-1.08-0.79-0.92-1.53c0.17-0.77,0.72-1.2,1.51-1.29
	c1.17-0.13,2.33-0.35,3.52-0.05c4.95,1.25,10,1.5,15.08,1.44c2.06-0.02,4.13,0,6.19-0.01c0.45,0,1.06,0.15,1.2-0.45
	c0.13-0.54-0.39-0.82-0.76-1.09c-4.3-3.16-7.99-6.99-11.74-10.75c-1.01-1.01-1.96-2.08-2.93-3.13c-0.38-0.41-0.68-0.87-0.76-1.45
	c-0.14-0.97,0.2-1.41,1.27-1.59c2.01-0.33,3.75,0.16,5.23,1.6c2.4,2.32,4.75,4.68,6.89,7.24c1.39,1.66,3.14,2.91,4.62,4.46
	c0.33,0.34,0.76,0.7,1.24,0.47c0.52-0.25,0.3-0.83,0.33-1.28c0.03-0.47,0.02-0.95,0.01-1.43c-0.17-7.23,0.49-14.43,0.46-21.66
	c-0.01-3-0.35-6.01-0.42-9.01c-0.06-2.6,1.14-3.41,3.6-2.62c2.44,0.78,2.3,0.92,2.62,3.52c0.65,5.31,0.3,10.62,0.23,15.92
	C37.38,24.15,37,28.58,36.76,33c-0.01,0.24-0.04,0.48-0.02,0.71c0.04,0.41,0.18,0.83,0.55,1c0.41,0.19,0.73-0.13,1-0.43
	c1.16-1.3,2.29-2.64,3.5-3.89c2.58-2.69,5.19-5.36,7.82-7.99c1.42-1.42,3.23-1.22,4.92-0.81c1.36,0.33,1.69,1.8,0.74,3.11
	c-0.88,1.22-1.84,2.41-2.95,3.41c-2.6,2.32-5.04,4.81-7.49,7.28c-1.29,1.29-2.51,2.65-3.73,4c-0.31,0.34-0.65,0.77-0.34,1.27
	c0.24,0.39,0.69,0.3,1.08,0.31c3.02,0.04,6.03,0.1,9.05,0.11c1.59,0.01,3.13,0.4,4.73,0.39c3.65-0.04,7.27-0.5,10.9-0.73
	c1.33-0.09,2.53,0.19,3.71,0.59c0.92,0.31,1.73,1.76,1.5,2.49c-0.32,1.04-1.16,1.46-2.2,1.48c-6.1,0.11-12.2,0.76-18.3,0.24
	c-2.45-0.21-4.88-0.58-7.35-0.45c-0.51,0.03-1.23-0.26-1.42,0.43c-0.16,0.6,0.42,0.94,0.88,1.26c3.86,2.69,7.29,5.85,10.4,9.37
	c0.68,0.77,1.43,1.51,1.99,2.36c1.04,1.61,0.16,3.32-1.77,3.33c-1.77,0.02-3.36-0.4-4.53-2.04c-2.83-3.96-6.4-7.24-10.11-10.37
	c-0.24-0.2-0.49-0.41-0.75-0.58c-1-0.64-1.49-0.44-1.52,0.7c-0.04,1.35,0.08,2.7,0.09,4.05C37.14,57.27,37.13,60.92,37.13,66.26z"/>
</svg>
