<?xml version="1.0" encoding="utf-8"?>
<!-- Generator: Adobe Illustrator 27.9.0, SVG Export Plug-In . SVG Version: 6.00 Build 0)  -->
<svg version="1.1" id="Layer_1" xmlns="http://www.w3.org/2000/svg" xmlns:xlink="http://www.w3.org/1999/xlink" x="0px" y="0px"
	 viewBox="0 0 74.08 95.84" style="enable-background:new 0 0 74.08 95.84;" xml:space="preserve">
<path d="M33.98,22.68c0-6.19,0-12.37,0-18.56c0-0.59-0.02-1.17,0-1.76c0.02-0.9-0.19-1.91,1-2.29c0.89-0.28,2.2,0.26,2.88,1.12
	c0.56,0.7,0.65,1.52,0.64,2.37c-0.06,5.01,0,10.04-0.24,15.04c-0.14,2.85-0.06,5.67,0.02,8.51c0.13,4.42,0.22,8.85-0.29,13.26
	c-0.08,0.71-0.43,1.69,0.44,2.02c0.9,0.34,1.16-0.74,1.61-1.25c2.5-2.82,5.18-5.45,7.95-7.99c1.05-0.96,2.19-1.85,3-3.01
	c0.92-1.31,1.96-1.61,3.45-1.12c1.67,0.55,2.05,1.36,0.91,2.66c-1.7,1.95-3.44,3.86-5.45,5.52c-3.36,2.77-6.04,6.22-9.19,9.21
	c-0.31,0.29-0.64,0.65-0.48,1.08c0.2,0.52,0.7,0.67,1.24,0.68c2.09,0,4.14-0.42,6.23-0.41c2.84,0.01,5.66,0,8.5,0.39
	c3.07,0.43,6.16,0.23,9.24-0.19c2.29-0.31,4.6-0.87,6.94-0.27c0.84,0.22,1.69,0.4,1.7,1.49c0.01,0.83-0.86,1.65-1.91,1.62
	c-3.52-0.09-6.95,0.71-10.43,0.94c-1.26,0.08-2.5,0.13-3.72-0.14c-2.97-0.66-5.96-0.46-8.96-0.51c-3.25-0.05-6.51,0.38-9.74-0.4
	c-1.24-0.3-1.78,0.4-1.3,1.57c0.38,0.92,0.83,1.85,1.44,2.63c2.67,3.44,4.96,7.11,7.11,10.89c0.87,1.52,1.8,3,3.01,4.29
	c0.56,0.59,0.83,1.29,0.34,2.04c-0.47,0.71-1.17,0.75-1.99,0.67c-1.32-0.13-2.09-0.94-2.82-1.88c-1.9-2.45-3.13-5.3-4.75-7.92
	c-0.35-0.57-0.62-1.19-1.02-1.72c-0.51-0.7-0.74-2.11-1.73-1.81c-0.66,0.2-0.5,1.63-0.56,2.49c-0.16,2.24,0.17,4.47,0.18,6.72
	c0.01,6.84,0.23,13.69-0.12,20.53c-0.03,0.66,0.07,1.33,0.15,1.99c0.15,1.21-0.12,2.35-0.64,3.4c-0.49,0.99-1.81,1.47-2.81,1.14
	c-1-0.32-1.13-1.15-1.05-2.03c0.55-6.5-0.14-13.02,0.35-19.53c0.21-2.78-0.13-5.66-0.18-8.49c-0.04-2.34,0.11-4.67,0.4-7
	c0.11-0.91,0.08-1.83,0.07-2.75c0-0.22-0.07-0.52-0.39-0.56c-0.25-0.04-0.48,0.01-0.65,0.24c-0.25,0.33-0.51,0.67-0.79,0.97
	c-4.82,5.21-9.63,10.44-14.47,15.63c-1.09,1.16-2.32,1.34-3.59,0.71c-1.23-0.61-1.48-1.57-0.55-2.62c1-1.12,2.02-2.24,3.18-3.19
	c1.45-1.17,2.6-2.59,3.79-3.98c3.41-4.01,7.12-7.72,10.93-11.33c0.24-0.23,0.52-0.45,0.67-0.73c0.24-0.44,0.05-0.82-0.42-0.97
	c-0.23-0.07-0.5,0-0.75,0c-5.52-0.04-11.03-0.04-16.55-0.14c-3.25-0.06-6.5-0.26-9.75-0.42c-1.27-0.06-2.49-0.36-3.52-1.15
	c-0.3-0.23-0.6-0.71-0.57-1.05c0.03-0.5,0.47-0.91,1.01-0.97c0.75-0.08,1.5-0.11,2.25-0.09c4.59,0.12,9.18,0.27,13.76,0.38
	c3.17,0.07,6.34,0.01,9.49,0.47c0.82,0.12,1.67,0.06,2.5,0c1.02-0.07,1.15-0.33,0.61-1.26c-0.29-0.5-0.64-0.98-1.01-1.43
	c-2.57-3.18-5.11-6.39-7.75-9.52c-2.27-2.69-3.75-5.93-6.18-8.49c-0.44-0.46-0.55-1.09-0.21-1.62c0.31-0.49,0.91-0.2,1.39-0.26
	c1.8-0.23,2.98,0.51,3.92,2.04c3.58,5.85,8.15,10.97,12.13,16.53c0.15,0.2,0.3,0.4,0.47,0.59c0.37,0.4,0.58,1.17,1.32,0.87
	c0.6-0.25,0.27-0.88,0.26-1.34C33.91,36.39,34.1,29.53,33.98,22.68z"/>
</svg>
