<?xml version="1.0" encoding="utf-8"?>
<!-- Generator: Adobe Illustrator 27.9.0, SVG Export Plug-In . SVG Version: 6.00 Build 0)  -->
<svg version="1.1" id="Layer_1" xmlns="http://www.w3.org/2000/svg" xmlns:xlink="http://www.w3.org/1999/xlink" x="0px" y="0px"
	 viewBox="0 0 51.93 93.62" style="enable-background:new 0 0 51.93 93.62;" xml:space="preserve">
<path d="M26.66,17.7c0.16,2.78,0.3,5.87,0.02,8.96c-0.03,0.31-0.06,0.7,0.27,0.89c0.49,0.28,0.77-0.11,1.02-0.43
	c1.94-2.51,3.92-4.99,6.08-7.32c1.19-1.29,2.36-2.6,3.48-3.94c0.85-1.02,1.87-1.91,2.36-3.21c0.45-1.21,1.44-1.56,2.63-1.44
	c2.25,0.23,2.7,1.85,1.54,3.27c-2.57,3.17-5.17,6.32-7.91,9.36c-1.4,1.55-2.87,3.03-4.32,4.54c-0.17,0.18-0.36,0.35-0.51,0.55
	c-0.34,0.45-0.91,0.86-0.56,1.51c0.28,0.52,0.86,0.42,1.35,0.4c0.83-0.04,1.67-0.09,2.5-0.18c4.32-0.44,8.64-0.8,12.98-0.74
	c0.99,0.01,1.98,0.23,2.97,0.38c0.7,0.1,1.32,0.34,1.36,1.19c0.04,0.84-0.38,1.43-1.06,1.86c-0.53,0.34-1.13,0.23-1.71,0.22
	c-4.42-0.05-8.84-0.11-13.25,0.41c-1.72,0.2-3.49,0.23-5.24-0.19c-0.79-0.19-1.68-0.15-2.49-0.04c-1.34,0.19-1.69,1.12-0.75,2.11
	c1.66,1.76,3.43,3.42,5.15,5.13c4.26,4.25,8.21,8.78,12.23,13.26c0.56,0.62,0.82,1.27,0.43,2.04c-0.38,0.75-1.05,0.94-1.86,1.03
	c-1.58,0.18-2.49-0.76-3.37-1.79c-1.73-2.03-3.5-4.04-5.14-6.16c-2.26-2.92-5.14-5.26-7.45-8.12c-0.28-0.34-0.61-0.63-1.05-0.51
	c-0.48,0.13-0.54,0.6-0.52,1.02c0.1,1.65,0.25,3.3,0.36,4.95c0.31,4.66,0.75,9.32,0.88,13.99c0.11,3.74-0.19,7.5-0.22,11.24
	c-0.05,6.18-0.04,12.35-0.03,18.53c0,2.02-0.2,2.44-1.63,2.93c-1.91,0.65-3.14-0.24-2.91-2.27c0.37-3.24,0.55-6.5,0.44-9.75
	c-0.25-7.02,0.27-14.03,0.03-21.04c-0.09-2.65-0.38-5.3-0.68-7.93c-0.36-3.16-0.61-6.32-0.18-9.49c0.06-0.43,0.13-0.87-0.37-1.06
	c-0.5-0.19-0.72,0.22-0.97,0.55c-2.44,3.29-4.95,6.51-7.67,9.58c-0.77,0.87-1.61,1.7-2.41,2.55c-0.79,0.83-1.8,0.87-2.8,0.63
	c-1.51-0.37-1.88-1.63-0.83-2.79c2.85-3.16,5.79-6.24,8.6-9.45c1.9-2.17,3.67-4.46,5.41-6.77c0.89-1.19,0.33-2.37-1.16-2.44
	c-1.58-0.07-3.18,0.01-4.75,0.18c-3.77,0.41-7.5-0.01-11.24-0.3c-1.02-0.08-1.96-0.43-2.81-0.98c-1.2-0.77-1.15-1.52,0.04-2.24
	c1.24-0.74,2.54-0.58,3.88-0.37c3.46,0.54,6.96,0.75,10.47,0.72c0.5,0,1.08,0.03,1.28-0.55c0.16-0.46-0.27-0.75-0.56-1.03
	c-3.44-3.31-6.27-7.14-9.19-10.89c-0.1-0.13-0.17-0.29-0.27-0.42c-1.12-1.59-1.25-2.48-0.42-3.05c1.25-0.86,3.5-0.54,4.26,0.76
	c2.81,4.79,6.65,8.78,10.12,13.05c0.21,0.26,0.43,0.51,0.65,0.75c0.31,0.33,0.67,0.48,1.11,0.26c0.36-0.17,0.37-0.52,0.4-0.85
	c0.19-2.42-0.07-4.84-0.21-7.25c-0.24-4-0.47-8-0.47-12.01c0-2.33-0.23-4.66-0.48-6.98c-0.22-2.1-0.21-2.22,1.64-2.48
	c1.78-0.25,2.98,0.46,2.98,2.07c0,2.77,0.65,5.47,0.55,8.24C26.59,12.7,26.66,15.04,26.66,17.7z"/>
</svg>
