<?xml version="1.0" encoding="utf-8"?>
<!-- Generator: Adobe Illustrator 27.9.0, SVG Export Plug-In . SVG Version: 6.00 Build 0)  -->
<svg version="1.1" id="Layer_1" xmlns="http://www.w3.org/2000/svg" xmlns:xlink="http://www.w3.org/1999/xlink" x="0px" y="0px"
	 viewBox="0 0 77.78 90.12" style="enable-background:new 0 0 77.78 90.12;" xml:space="preserve">
<path d="M41.26,19.42c0.28,5,0.19,9.99,0.12,14.99c0,0.24-0.07,0.47-0.06,0.71c0.01,0.62-0.2,1.45,0.53,1.68
	c0.78,0.24,0.95-0.66,1.3-1.13c3.75-4.92,7.21-10.06,11.14-14.83c1.36-1.65,2.78-3.26,4.16-4.89c1.07-1.27,2.17-2.51,2.96-4
	c1.42-2.68,3.19-2.28,5.07-0.85c1.2,0.91,1.29,1.75,0.63,3.1c-0.78,1.59-1.88,2.97-3.08,4.2c-3.78,3.88-6.87,8.3-10.14,12.58
	c-3.17,4.16-6.46,8.23-10.08,12.01c-0.22,0.23-0.46,0.44-0.66,0.69c-0.62,0.79-0.53,1.24,0.34,1.65c0.51,0.24,1.03,0.38,1.6,0.39
	c1.51,0.03,3,0.33,4.49,0.43c4.36,0.3,8.62,1.26,12.95,1.71c3.46,0.36,6.94,0.57,10.38,1.21c1.2,0.22,2.27,0.7,3.32,1.24
	c1.28,0.66,1.75,1.63,1.47,2.69c-0.32,1.19-1.37,1.48-2.36,1.69c-0.84,0.18-1.75,0.1-2.57-0.29c-3.15-1.52-6.59-1.68-9.96-1.96
	c-4.83-0.41-9.52-1.58-14.29-2.24c-1.09-0.15-2.16-0.47-3.25-0.65c-0.28-0.05-0.7,0.01-0.87,0.19c-0.21,0.23-0.04,0.59,0.18,0.85
	c0.26,0.3,0.5,0.62,0.79,0.89c3.19,2.95,5.42,6.63,7.64,10.28c2.47,4.05,5.43,7.59,9.13,10.55c2.31,1.85,3.9,4.36,5.75,6.63
	c0.81,1,0.47,2.09-0.62,2.79c-1.56,1.01-3.61,0.9-5.09-0.28c-1.07-0.85-1.93-1.92-2.65-3.04c-1.18-1.84-2.78-3.26-4.35-4.7
	c-2.65-2.43-4.92-5.12-6.8-8.2c-1.6-2.64-3.47-5.11-4.98-7.82c-0.23-0.41-0.55-0.78-0.86-1.13c-0.21-0.23-0.5-0.47-0.81-0.21
	c-0.15,0.13-0.27,0.42-0.25,0.62c0.53,5.19,0.35,10.44,1.22,15.62c0.54,3.19,0.64,6.46,0.95,9.69c0.16,1.66,0.27,3.32,0.54,4.96
	c0.2,1.19-0.42,1.78-1.26,2.3c-2.31,1.44-5.14,0.22-5.27-2.44c-0.2-4.28-0.66-8.53-1.05-12.79c-0.4-4.34-0.84-8.68-0.97-13.04
	c-0.06-1.98,0.02-3.96,0.02-5.94c0-0.47,0.04-1.01-0.47-1.26c-0.55-0.27-0.9,0.22-1.19,0.53c-3.45,3.72-7.42,6.92-10.74,10.79
	c-3.24,3.77-6.15,7.81-9.56,11.45c-2.03,2.17-4.56,2.35-6.21,1.58c-2.33-1.08-2.46-2.41-0.58-3.7c3.23-2.21,5.57-5.18,7.81-8.22
	c3.13-4.25,6.91-7.84,10.77-11.37c2.04-1.87,4.07-3.76,6.1-5.65c0.35-0.32,0.73-0.67,0.54-1.22c-0.18-0.52-0.64-0.65-1.14-0.69
	c-0.4-0.03-0.79-0.09-1.19-0.09c-6.11,0.04-12.18-0.64-18.26-0.98c-3.04-0.17-6.2-0.2-9.04-1.69c-0.49-0.25-0.99-0.49-1.47-0.76
	c-0.67-0.38-1.19-1-1.01-1.73c0.21-0.86,0.86-1.55,1.82-1.64c1.19-0.11,2.39-0.06,3.51,0.43c1.33,0.58,2.74,0.79,4.17,0.89
	c5.14,0.35,10.28,0.68,15.42,1.04c1.74,0.12,3.47,0.31,5.21,0.44c0.45,0.03,1.02,0.19,1.23-0.39c0.17-0.48-0.12-0.9-0.43-1.28
	c-5.2-6.38-9.83-13.23-15.94-18.87c-3.74-3.45-6.45-7.82-9.62-11.79c-0.5-0.62-1.23-1.47-0.66-2.36C5.38,7.8,6.42,7.75,7.52,7.9
	c1.55,0.2,2.92,0.61,3.89,1.98c4.7,6.62,10.13,12.61,15.84,18.35c2.2,2.21,3.77,4.89,5.64,7.35c0.29,0.38,0.53,0.8,0.85,1.15
	c0.45,0.5,0.75,1.52,1.52,1.24c0.85-0.3,0.26-1.26,0.27-1.91c0.05-2.62,0-5.23,0.03-7.85c0.06-5.24-0.63-10.45-0.5-15.69
	c0.09-3.49,0.11-6.98,0.19-10.47c0.04-1.89,0.48-2.25,2.31-1.96c0.47,0.07,0.93,0.19,1.39,0.32c1.6,0.45,2.29,1.2,2.32,2.84
	c0.06,2.78,0.01,5.56,0,8.33C41.26,14.19,41.26,16.8,41.26,19.42z"/>
</svg>
