<?xml version="1.0" encoding="utf-8"?>
<!-- Generator: Adobe Illustrator 27.9.0, SVG Export Plug-In . SVG Version: 6.00 Build 0)  -->
<svg version="1.1" id="Layer_1" xmlns="http://www.w3.org/2000/svg" xmlns:xlink="http://www.w3.org/1999/xlink" x="0px" y="0px"
	 viewBox="0 0 68.77 65.08" style="enable-background:new 0 0 68.77 65.08;" xml:space="preserve">
<path d="M30.55,15.98c-0.02-4.68,0.27-9.34,0.65-14c0.08-1.04,0.31-1.82,1.45-1.96c1.15-0.14,2.79,0.87,2.91,1.84
	c0.09,0.74,0.12,1.52,0,2.25c-0.91,5.54-0.76,11.14-0.88,16.72c-0.06,2.76-0.22,5.5-0.53,8.23c-0.06,0.48-0.19,1.05,0.33,1.35
	c0.63,0.36,1.11-0.08,1.54-0.5c1.49-1.45,2.88-3,4.39-4.44c3.99-3.83,8.39-7.15,12.86-10.37c1.27-0.92,2.74-1.54,3.98-2.56
	c0.87-0.71,3.11,0.02,3.71,1.07c0.29,0.5,0.21,0.95-0.27,1.31c-1.06,0.81-2.07,1.7-3.19,2.42c-6.12,3.94-11.6,8.69-17.06,13.47
	c-0.19,0.16-0.36,0.35-0.54,0.53c-0.31,0.3-0.58,0.66-0.42,1.1c0.15,0.42,0.53,0.64,0.99,0.62c2.35-0.13,4.65,0.5,6.98,0.49
	c3.11-0.01,6.15,0.39,9.2,0.93c1.81,0.32,3.65,0.31,5.5,0.18c1.66-0.12,3.33-0.23,4.95,0.38c0.82,0.31,1.74,0.61,1.64,1.58
	c-0.11,1.04-1.05,1.47-2.04,1.42c-4.24-0.2-8.52,0.35-12.71-0.77c-0.56-0.15-1.15-0.22-1.72-0.23c-4.68-0.04-9.32-0.44-13.87-1.61
	c-0.32-0.08-0.66-0.09-0.98-0.18c-0.48-0.13-1-0.35-1.24,0.32c-0.16,0.45,0.1,0.76,0.46,1.05c1.38,1.11,2.34,2.59,3.41,3.98
	c3.05,3.97,5.54,8.34,8.74,12.19c2.4,2.89,4.8,5.78,7.2,8.66c0.27,0.32,0.59,0.59,0.83,0.93c0.36,0.51,1.04,0.93,0.56,1.74
	c-0.44,0.74-1.1,0.92-1.91,0.94c-1.05,0.03-1.73-0.58-2.34-1.27c-3.38-3.81-6.65-7.71-9.7-11.8c-2.9-3.88-5.5-7.97-8.09-12.06
	c-0.27-0.42-0.4-0.99-1.05-0.86c-0.67,0.14-0.59,0.73-0.57,1.21c0.12,3.25-0.06,6.49,0.22,9.75c0.26,2.96-0.11,5.98-0.28,8.97
	c-0.06,1.08-1.49,2.06-2.53,1.91c-1.17-0.17-1.98-1.01-1.81-2.26c0.79-5.74-0.09-11.53,0.58-17.26c0.05-0.43,0.07-0.86-0.29-1.15
	c-0.53-0.41-0.94,0.01-1.33,0.3c-1.61,1.19-3.24,2.35-4.8,3.59c-4.56,3.64-9.23,7.11-14.01,10.46c-1.7,1.19-3.26,2.59-4.83,3.96
	c-0.73,0.63-1.43,1.2-2.45,0.91c-0.97-0.28-1.97-0.64-2.19-1.8c-0.2-1.05,0.72-1.4,1.36-1.9c6.2-4.92,12.9-9.18,19.01-14.23
	c2.24-1.85,4.78-3.34,7.18-5c0.41-0.28,0.84-0.55,1.24-0.84c0.27-0.2,0.53-0.44,0.46-0.81c-0.07-0.4-0.41-0.48-0.76-0.5
	c-0.33-0.02-0.67-0.03-1-0.02c-6.27,0.1-12.46-0.8-18.66-1.58c-0.91-0.11-1.82-0.27-2.73-0.31c-1.44-0.07-2.8-0.45-4.12-0.99
	c-0.9-0.37-2.13-0.75-1.86-1.97c0.23-1.03,1.42-1.03,2.34-0.96c2.16,0.18,4.32,0.37,6.47,0.66c3.96,0.54,7.89,1.25,11.85,1.73
	c2.06,0.25,4.16,0.2,6.25,0.23c1.09,0.02,1.36-0.47,0.7-1.39c-2.26-3.2-4.37-6.53-6.97-9.48c-3.42-3.89-6.52-8.01-9.28-12.4
	c-0.5-0.79-0.84-1.64-0.98-2.54c-0.09-0.6,0.07-1.2,0.79-1.37c0.96-0.23,3.34,0.92,3.74,1.86c1.88,4.36,4.81,7.98,7.92,11.5
	c1.82,2.07,3.53,4.24,5.03,6.55c0.41,0.63,0.8,1.27,1.22,1.89c0.19,0.29,0.49,0.56,0.82,0.47c0.31-0.08,0.5-0.42,0.49-0.79
	c0-0.17,0.01-0.33,0.01-0.5C30.55,21.99,30.55,18.98,30.55,15.98z"/>
</svg>
