<?xml version="1.0" encoding="utf-8"?>
<!-- Generator: Adobe Illustrator 27.9.0, SVG Export Plug-In . SVG Version: 6.00 Build 0)  -->
<svg version="1.1" id="Layer_1" xmlns="http://www.w3.org/2000/svg" xmlns:xlink="http://www.w3.org/1999/xlink" x="0px" y="0px"
	 viewBox="0 0 57.73 76.59" style="enable-background:new 0 0 57.73 76.59;" xml:space="preserve">
<path d="M28.19,34.55c-0.19-5.39-0.36-10.48-0.57-15.57c-0.07-1.66-0.29-3.32-0.4-4.98c-0.3-4.34-0.04-8.66,0.56-12.96
	c0.1-0.72,0.42-1.03,1.13-1.04c1.57-0.02,2.86,1.2,2.92,2.78c0.01,0.25,0.03,0.51-0.02,0.75c-0.88,4.57-0.52,9.14-0.16,13.73
	c0.44,5.66,0.68,11.34,0.49,17.03c-0.01,0.4-0.19,0.88,0.25,1.13c0.58,0.32,0.96-0.15,1.24-0.53c1.64-2.21,3.32-4.4,4.85-6.69
	c2.61-3.89,5.44-7.6,8.61-11.05c0.85-0.92,1.52-2,2.33-2.95c1.13-1.33,3.38-0.97,4.13,0.6c0.33,0.69-0.16,1.12-0.51,1.55
	c-1.52,1.88-3.04,3.77-4.63,5.6c-2.79,3.22-5.27,6.68-7.69,10.18c-1.71,2.47-3.68,4.76-5.72,6.97c-0.34,0.37-0.74,0.69-1.03,1.09
	c-0.51,0.7-0.19,1.52,0.59,1.39c1.26-0.21,2.49,0.18,3.72,0c4.99-0.71,10-0.38,15.01-0.4c1.06,0,2.14,0.29,3.18,0.58
	c0.74,0.21,1.36,0.73,1.24,1.64c-0.1,0.77-0.69,1.1-1.39,1.24c-0.32,0.07-0.66,0.16-0.98,0.11c-5.41-0.72-10.83-0.29-16.25-0.17
	c-1.75,0.04-3.53,0.15-5.25-0.25c-0.97-0.23-1.14,0.19-1.21,0.99c-0.17,2.02,0.41,3.79,1.7,5.33c0.85,1.03,1.64,2.12,2.58,3.05
	c2.88,2.84,4.99,6.26,7.32,9.5c1.02,1.42,2.21,2.72,3.25,4.13c0.43,0.57,0.96,1.22,0.36,2.03c-0.65,0.88-1.51,0.95-2.47,0.65
	c-0.84-0.26-1.44-0.81-1.94-1.51c-2.49-3.55-4.96-7.1-7.49-10.62c-0.65-0.91-1.28-2.61-2.33-2.25c-1.16,0.4-0.45,2.08-0.34,3.16
	c0.5,5.15,1.11,10.28,1.67,15.42c0.15,1.4-0.38,2.18-1.55,2.34c-1.07,0.14-2.68-0.57-2.77-1.91c-0.46-6.74-1.72-13.42-1.51-20.21
	c0.05-1.5,0.13-3.01-0.19-4.5c-0.15-0.71-0.07-1.6-1.01-1.84c-0.8-0.21-1.19,0.46-1.62,0.96c-1.37,1.58-2.75,3.14-4.08,4.75
	c-3.31,3.98-6.59,7.99-9.88,11.98c-1.26,1.53-2.59,1.63-4.01,0.32c-0.86-0.79-0.92-1.46-0.05-2.33c4.8-4.78,8.74-10.29,13.26-15.31
	c1.01-1.12,2.07-2.18,3.09-3.29c0.5-0.54,0.62-1.08-0.33-1.18c-0.98-0.1-1.93-0.26-2.96-0.19c-3.16,0.21-6.32,0.37-9.49-0.17
	c-2.54-0.44-5.12-0.67-7.7-0.92c-1.02-0.1-1.97-0.38-2.9-0.73c-0.6-0.22-1.39-0.43-1.22-1.32c0.15-0.75,0.75-1.04,1.51-1.03
	c1.67,0.02,3.34-0.08,5.01,0.19c4.29,0.69,8.61,1.06,12.97,0.97c0.42-0.01,0.84,0.01,1.25-0.04c0.84-0.11,1-0.51,0.37-1.15
	c-1.65-1.66-3.19-3.41-4.51-5.35c-1.89-2.76-3.72-5.55-5.9-8.09c-0.4-0.47-0.75-0.94-0.47-1.57c0.31-0.69,0.98-0.49,1.54-0.52
	c1.43-0.1,2.35,0.81,3.15,1.77c1.39,1.67,2.74,3.37,3.96,5.17c2.03,2.97,4.21,5.82,6.44,8.64c0.31,0.39,0.65,0.76,1.02,1.1
	c0.48,0.43,1.07,0.52,1.63,0.23c0.63-0.31,0.57-0.89,0.51-1.51C28.35,37.75,28.28,36,28.19,34.55z"/>
</svg>
