<?xml version="1.0" encoding="utf-8"?>
<!-- Generator: Adobe Illustrator 27.9.0, SVG Export Plug-In . SVG Version: 6.00 Build 0)  -->
<svg version="1.1" id="Layer_1" xmlns="http://www.w3.org/2000/svg" xmlns:xlink="http://www.w3.org/1999/xlink" x="0px" y="0px"
	 viewBox="0 0 33.87 32.12" style="enable-background:new 0 0 33.87 32.12;" xml:space="preserve">
<path d="M15.45,6.28c0-1.5-0.04-3.01,0.01-4.51c0.05-1.5,0.95-2.09,2.32-1.61c1.38,0.48,2.11,1.59,1.99,3.06
	c-0.15,1.83-0.31,3.66-0.49,5.48c-0.05,0.5-0.25,1.04,0.35,1.3c0.58,0.25,0.92-0.25,1.26-0.59c1.59-1.6,3.01-3.33,4.17-5.29
	c1.01-1.71,2-1.81,3.35-0.5c0.85,0.82,0.87,1.74,0.24,2.71c-1,1.53-1.99,3.08-3.42,4.28c-0.45,0.37-0.92,0.74-1.28,1.19
	c-0.55,0.68-0.31,1.26,0.57,1.36c1.08,0.11,2.17,0.12,3.25,0.17c1.25,0.06,2.5,0.1,3.74,0.18c0.41,0.03,0.89,0.05,1.2,0.26
	c0.61,0.42,1.24,0.94,1.15,1.8c-0.09,0.91-0.88,1.31-1.57,1.4c-1.3,0.17-2.6,0.38-3.95,0.26c-2-0.18-3.95-0.64-5.93-0.91
	c-0.49-0.07-0.98-0.18-1.48-0.22c-0.48-0.03-1.06-0.16-1.25,0.49c-0.13,0.45,0.18,0.78,0.49,1.08c1.02,1,2.21,1.76,3.42,2.51
	c2.13,1.32,4.24,2.66,6.35,4c0.7,0.45,1.4,0.93,1.79,1.71c0.28,0.56,0.38,1.12-0.07,1.63c-0.41,0.47-0.96,0.77-1.56,0.55
	c-0.69-0.25-1.43-0.55-1.97-1.03c-2.19-1.95-4.9-3.17-7.14-5.04c-0.34-0.28-0.7-0.5-1.13-0.36c-0.65,0.22-0.47,0.82-0.44,1.27
	c0.14,2.08,0.33,4.15,0.49,6.23c0.04,0.58,0.1,1.17,0.05,1.74c-0.06,0.78-0.58,1.2-1.33,1.22c-1.48,0.05-3.01-1.64-3.03-3.22
	c-0.03-2.17-0.09-4.33-0.15-6.49c-0.01-0.4,0.05-0.89-0.46-1.04c-0.51-0.15-0.72,0.3-0.97,0.61c-1.12,1.44-2.19,2.92-3.35,4.33
	c-1.34,1.63-1.65,1.6-3.41,0.05c-1.36-1.2-1.36-1.61-0.05-3.02c1.86-2.02,3.7-4.05,5.55-6.07c0.29-0.32,0.51-0.66,0.34-1.12
	c-0.19-0.48-0.61-0.51-1.03-0.52c-1.09-0.02-2.16,0.05-3.24,0.21c-2.88,0.43-5.67,0.25-8.07-1.7c-0.39-0.32-0.89-0.61-0.75-1.18
	c0.13-0.51,0.6-0.73,1.12-0.88c0.74-0.22,1.45-0.22,2.22-0.15c1.66,0.15,3.32,0.18,4.99,0.22c0.46,0.01,1.13,0.18,1.26-0.46
	c0.15-0.71-0.48-0.91-1.02-1.19C6.86,9.64,5.26,8.6,3.88,7.23c-0.12-0.12-0.27-0.19-0.4-0.29C2.99,6.56,2.6,6.06,2.87,5.44
	C3.2,4.68,3.93,4.75,4.61,4.87C4.93,4.92,5.28,5,5.56,5.17c2.58,1.66,5.5,2.84,7.54,5.27c0.32,0.38,0.64,0.79,1.03,1.08
	c0.65,0.47,1.33,0.1,1.32-0.74c-0.02-1.5-0.12-3-0.19-4.5C15.33,6.28,15.39,6.28,15.45,6.28z"/>
</svg>
