<?xml version="1.0" encoding="utf-8"?>
<!-- Generator: Adobe Illustrator 27.9.0, SVG Export Plug-In . SVG Version: 6.00 Build 0)  -->
<svg version="1.1" id="Layer_1" xmlns="http://www.w3.org/2000/svg" xmlns:xlink="http://www.w3.org/1999/xlink" x="0px" y="0px"
	 viewBox="0 0 63.34 61.94" style="enable-background:new 0 0 63.34 61.94;" xml:space="preserve">
<path d="M28.44,14.44c0-2.62-0.05-5.24,0.02-7.86c0.04-1.5,0.2-3.01,0.44-4.49c0.28-1.74,0.56-1.85,2.32-2.07
	c1.4-0.17,2.46,0.45,3.49,1.19c0.62,0.44,0.86,1.14,0.69,1.91c-0.63,2.95-0.81,5.93-0.47,8.93c0.21,1.85-0.38,3.62-0.42,5.44
	c-0.05,2.29,0.26,4.6-0.28,6.87c-0.11,0.47-0.08,1.05,0.46,1.21c0.38,0.12,0.69-0.31,0.96-0.59c2.52-2.64,5.27-5.05,7.65-7.83
	c1.57-1.84,5.46-1.22,6.43,1c0.29,0.66-0.01,1.21-0.4,1.76c-0.97,1.37-2.18,2.53-3.41,3.64c-2.65,2.38-5.2,4.88-8.06,7.01
	c-0.26,0.19-0.56,0.37-0.52,0.73c0.05,0.46,0.45,0.63,0.83,0.71c0.38,0.08,0.79,0.04,1.19,0.05c4.68,0.12,9.3,0.89,13.92,1.5
	c1.95,0.26,3.85,0.92,5.78,1.36c1.21,0.27,2.16,0.99,3.1,1.7c0.92,0.7,1.45,2.07,1.07,2.69c-0.55,0.89-1.47,1.13-2.46,1.18
	c-0.98,0.05-1.91-0.22-2.76-0.63c-2.49-1.18-5.2-1.25-7.84-1.67c-2.34-0.37-4.7-0.67-7.01-1.19c-1.31-0.29-2.7-0.03-3.97-0.63
	c-0.15-0.07-0.52,0.06-0.62,0.2c-0.09,0.14-0.05,0.5,0.07,0.64c0.58,0.66,1.2,1.27,1.81,1.89c2.48,2.57,5.02,5.08,6.82,8.21
	c0.4,0.69,0.81,1.36,0.87,2.18c0.11,1.3-0.81,2.25-2.15,2.15c-2.22-0.16-3.85-1.24-4.93-3.2c-1.23-2.22-2.63-4.33-4.39-6.18
	c-0.33-0.34-0.66-0.69-1.04-0.97c-0.48-0.36-0.92-0.31-0.96,0.38c-0.07,1.58-0.15,3.17-0.11,4.76c0.1,4.12,0.3,8.24,0.4,12.36
	c0.07,2.66-1.84,3.82-4.26,2.7c-1.88-0.87-3-2.03-2.9-4.36c0.16-3.96,0.05-7.93,0.27-11.9c0.07-1.18-0.04-2.37-0.11-3.56
	c-0.07-1.22-0.7-1.55-1.66-0.81c-1.62,1.27-3.39,2.44-4.71,3.98c-1.88,2.19-4.26,1.66-6.36-0.45c-0.96-0.97-0.92-1.76,0.17-2.59
	c2.28-1.72,4.61-3.35,6.92-5.02c0.71-0.51,1.42-1.01,2.12-1.53c0.39-0.29,0.74-0.63,0.64-1.18c-0.11-0.6-0.63-0.6-1.09-0.72
	c-2.39-0.59-4.84-0.86-7.29-0.88c-4-0.03-7.82-1.11-11.7-1.83c-1.49-0.28-2.8-1.11-4.01-2.01c-0.63-0.47-1.2-1.2-0.9-2.04
	c0.3-0.84,1.2-1.08,1.99-1.03c1.01,0.06,2.03,0.31,3.02,0.56c3.62,0.93,7.28,1.46,11.01,1.7c2.51,0.16,4.99,0.76,7.48,1.18
	c0.46,0.08,1.01,0.37,1.28-0.12c0.24-0.44-0.19-0.91-0.49-1.26c-1.91-2.23-3.9-4.39-5.74-6.66c-1.24-1.53-2.76-2.84-3.71-4.61
	c-0.36-0.67-0.58-1.28-0.13-2c0.48-0.77,1.14-0.67,1.88-0.55c1.86,0.3,3.42,1.03,4.64,2.57c1.86,2.37,3.84,4.64,5.79,6.94
	c0.27,0.32,0.47,0.99,1.05,0.7c0.52-0.26,0.16-0.85,0.16-1.29c0.01-2.78,0.01-5.56,0.01-8.33C28.35,14.44,28.39,14.44,28.44,14.44z"
	/>
</svg>
