<?xml version="1.0" encoding="utf-8"?>
<!-- Generator: Adobe Illustrator 27.9.0, SVG Export Plug-In . SVG Version: 6.00 Build 0)  -->
<svg version="1.1" id="Layer_1" xmlns="http://www.w3.org/2000/svg" xmlns:xlink="http://www.w3.org/1999/xlink" x="0px" y="0px"
	 viewBox="0 0 74.67 90.66" style="enable-background:new 0 0 74.67 90.66;" xml:space="preserve">
<path d="M18.11,47.12c-4.03-0.22-7.81-0.08-11.56,0.8c-1.62,0.38-3.32,0.35-4.9-0.38c-0.9-0.41-1.74-0.97-1.64-2.09
	c0.09-0.99,0.94-1.33,1.76-1.72c0.91-0.43,1.87-0.38,2.79-0.49c5.75-0.64,11.48-1.22,17.3-0.45c2.74,0.36,5.51,0.57,8.24,0.98
	c0.32,0.05,0.65,0.06,0.82-0.27c0.17-0.33-0.01-0.62-0.23-0.85c-1.86-1.97-3.93-3.7-6.06-5.35c-4.48-3.46-8.6-7.26-11.88-11.92
	c-0.51-0.72-1.05-1.41-1.27-2.27c-0.43-1.67,0.48-2.67,2.17-2.38c1.37,0.24,2.46,0.92,3.41,1.99c2.14,2.44,3.99,5.15,6.41,7.34
	c2.94,2.66,5.91,5.28,8.87,7.92c0.28,0.25,0.56,0.63,1,0.37c0.28-0.17,0.41-0.49,0.4-0.82c-0.06-2.62,0.03-5.23-0.11-7.85
	c-0.22-4.05-1.12-8.01-1.21-12.06c-0.09-4.05,0-8.09,0.31-12.13c0.09-1.18,0.04-2.38,0.1-3.57C32.9,0.36,33.35-0.04,34.88,0
	c2.07,0.05,3.44,1.48,3.67,3.9c0.31,3.09,0.12,6.2-0.08,9.27c-0.23,3.42-0.05,6.81,0.36,10.16c0.64,5.13,0.98,10.24,0.38,15.39
	c-0.05,0.47-0.03,0.95,0.01,1.43c0.02,0.21,0.1,0.49,0.25,0.6c0.33,0.24,0.58-0.05,0.8-0.27c0.11-0.11,0.2-0.24,0.29-0.37
	c4.33-6.21,9.62-11.59,14.77-17.09c0.43-0.46,0.81-0.98,1.21-1.46c1.05-1.26,2.42-1.47,3.73-0.58c1.74,1.2,2.09,2.45,1.04,4
	c-0.58,0.85-1.25,1.65-1.97,2.38c-4.77,4.87-9.34,9.92-13.66,15.19c-0.1,0.12-0.19,0.25-0.28,0.39c-0.34,0.51-1.01,0.98-0.66,1.66
	c0.29,0.56,1,0.3,1.53,0.35c3.7,0.38,7.4,0.72,11.1,1.14c2.07,0.23,4.13,0.22,6.18,0c2.38-0.25,4.76-0.16,7.14-0.2
	c0.97-0.01,1.89,0.18,2.71,0.73c1.01,0.68,1.48,1.9,1.15,2.87c-0.37,1.1-1.23,1.31-2.27,1.32c-2.38,0.03-4.72-0.53-7.11-0.32
	c-6.51,0.56-12.89-0.76-19.32-1.35C45,49.07,44.12,49,43.25,49c-0.83,0-1.16,0.55-0.7,1.24c0.83,1.25,1.72,2.47,2.68,3.63
	c2.09,2.51,4.67,4.53,6.95,6.85c0.56,0.56,1.1,1.15,1.58,1.78c0.77,1,0.88,2.36,0.32,3.08c-0.49,0.62-2.21,1-3.11,0.43
	c-1.05-0.66-2.18-1.15-3.05-2.19c-2.3-2.72-4.79-5.28-7.21-7.9c-0.26-0.28-0.44-0.75-0.92-0.49c-0.41,0.22-0.28,0.69-0.26,1.06
	c0.46,7.28,0.98,14.55,1.35,21.83c0.14,2.78,0.65,5.5,0.92,8.26c0.02,0.16,0.05,0.31,0.06,0.47c0.24,2.88-1.93,4.39-4.6,3.17
	c-0.83-0.38-1.38-1.01-1.47-2c-0.34-3.63-0.83-7.25-1.05-10.88c-0.36-6.01-0.56-12.04-0.83-18.06c-0.01-0.3-0.04-0.72-0.23-0.85
	c-0.42-0.29-0.74,0.13-0.97,0.41c-1.67,2.01-3.31,4.05-4.99,6.05c-2.19,2.61-4.35,5.24-6.32,8.03c-1.32,1.87-4.37,1.77-5.76-0.09
	c-0.57-0.77-0.52-1.66,0.02-2.44c0.95-1.37,1.89-2.73,2.99-3.99c4.65-5.31,9.22-10.67,13.82-16.02c0.26-0.3,0.57-0.58,0.74-0.93
	c0.35-0.71,0.13-1.25-0.66-1.44c-0.62-0.15-1.25-0.26-1.88-0.3C26.43,47.47,22.19,46.78,18.11,47.12z"/>
</svg>
