<?xml version="1.0" encoding="utf-8"?>
<!-- Generator: Adobe Illustrator 27.9.0, SVG Export Plug-In . SVG Version: 6.00 Build 0)  -->
<svg version="1.1" id="Layer_1" xmlns="http://www.w3.org/2000/svg" xmlns:xlink="http://www.w3.org/1999/xlink" x="0px" y="0px"
	 viewBox="0 0 64.83 58.33" style="enable-background:new 0 0 64.83 58.33;" xml:space="preserve">
<path d="M28.83,14.58c-0.31-4.42,0.31-8.86-0.24-13.27C28.53,0.85,28.58,0.48,29,0.24c1.44-0.82,4,0.64,3.93,2.34
	c-0.27,6.94,0.36,13.88-0.01,20.82c-0.05,0.95-0.57,2.3,0.36,2.8c1.07,0.57,1.62-0.84,2.31-1.45c2.52-2.21,5.38-3.96,8.07-5.94
	c1.33-0.98,2.65-0.95,3.71-0.16c0.75,0.56,0.9,1.21,0.26,1.91c-0.39,0.43-0.87,0.77-1.34,1.12c-3.29,2.42-6.58,4.82-9.88,7.23
	c-0.07,0.05-0.15,0.08-0.21,0.13c-0.44,0.46-1.26,0.79-0.95,1.58c0.31,0.79,1.15,0.52,1.78,0.53c1.75,0.02,3.51,0.05,5.25-0.31
	c0.65-0.13,1.33-0.19,1.99-0.16c4.26,0.19,8.49-0.12,12.73-0.43c1.88-0.14,3.8,0.14,5.69,0.32c1.35,0.13,2.21,0.9,2.13,1.71
	c-0.09,0.99-1.08,1.47-2.5,1.34c-2.49-0.22-4.98-0.31-7.49,0.07c-1.72,0.26-3.52,0.37-5.25,0.21c-2.51-0.24-4.99,0.01-7.49,0.03
	c-1.75,0.02-3.51,0.13-5.24-0.33c-0.47-0.13-1-0.14-1.49-0.11c-0.68,0.05-1.62-0.39-1.92,0.62c-0.23,0.8,0.53,1.1,1.01,1.55
	c1.82,1.71,4.02,3,5.63,4.95c2.66,3.21,5.35,6.39,8.33,9.31c0.73,0.71,0.74,1.43,0.31,2.26c-0.44,0.85-1.18,0.83-1.95,0.67
	c-0.92-0.19-1.69-0.6-2.33-1.35c-2.29-2.66-4.72-5.18-6.73-8.08c-0.8-1.16-1.85-2.15-2.83-3.18c-0.32-0.34-0.66-0.88-1.24-0.56
	c-0.42,0.23-0.29,0.74-0.28,1.13c0.07,2.51-0.01,5.03,0.28,7.51c0.3,2.57,0.15,5.17,0.65,7.73c0.26,1.31-0.38,2.13-1.39,2.26
	c-1.58,0.2-2.94-0.53-3.05-1.79c-0.24-2.58-0.45-5.16-0.51-7.75c-0.09-3.76-0.02-7.53-0.04-11.29c0-0.47,0.16-1.05-0.38-1.36
	c-0.53-0.3-0.97,0.05-1.34,0.38c-3.38,3.03-7.53,4.96-11.03,7.82c-1.36,1.11-3.01,1.76-4.29,3c-1.01,0.98-3.45,0.4-4.18-0.83
	c-0.37-0.62-0.15-1.06,0.45-1.45c1.12-0.72,2.19-1.54,3.3-2.27c4.18-2.76,8.38-5.49,12.57-8.24c0.14-0.09,0.29-0.17,0.42-0.27
	c0.27-0.21,0.49-0.48,0.43-0.84c-0.06-0.38-0.38-0.51-0.73-0.55c-0.08-0.01-0.17-0.03-0.25-0.03c-2.59,0.05-5.19-0.32-7.74-0.21
	c-3.09,0.13-6.18,0.1-9.26,0.19c-1.84,0.05-3.66-0.28-5.45-0.65c-0.82-0.17-2.1-0.36-1.78-1.61c0.25-0.98,1.33-1.13,2.31-1
	c3.9,0.51,7.79,0.44,11.73,0.21c3.05-0.18,6.15,0.34,9.22,0.58c0.34,0.03,0.74,0.12,0.94-0.14c0.29-0.39,0.06-0.79-0.26-1.1
	c-0.73-0.69-1.4-1.46-2.21-2.04c-2.33-1.69-4.04-3.99-6.01-6.03c-0.46-0.47-0.77-1.09-1.14-1.65c-0.4-0.61-1.06-1.23-0.42-2
	c0.55-0.67,1.39-0.53,2.11-0.43c1.16,0.16,1.95,0.9,2.51,1.89c2.23,3.93,6.07,6.41,8.89,9.82c0.28,0.34,0.67,0.52,1.11,0.28
	c0.44-0.25,0.37-0.64,0.31-1.08C28.54,23.44,28.99,19,28.83,14.58z"/>
</svg>
