<?xml version="1.0" encoding="utf-8"?>
<!-- Generator: Adobe Illustrator 27.9.0, SVG Export Plug-In . SVG Version: 6.00 Build 0)  -->
<svg version="1.1" id="Layer_1" xmlns="http://www.w3.org/2000/svg" xmlns:xlink="http://www.w3.org/1999/xlink" x="0px" y="0px"
	 viewBox="0 0 69.83 93.85" style="enable-background:new 0 0 69.83 93.85;" xml:space="preserve">
<path d="M32.29,23.28c0-5.67-0.03-10.52,0.02-15.37c0.02-2.17,0.23-4.34,0.32-6.5c0.04-1.08,0.6-1.45,1.62-1.4
	c1.8,0.09,2.69,0.99,2.61,2.87c-0.12,2.67-0.33,5.33-0.46,8c-0.06,1.33-0.14,2.68-0.02,4.01c0.41,4.59,0.28,9.18,0.14,13.77
	c-0.06,1.83-0.19,3.65-0.28,5.47c-0.04,0.75-0.08,1.5-0.07,2.25c0,0.39-0.14,0.88,0.33,1.1c0.48,0.23,0.77-0.17,1.05-0.46
	c2.24-2.38,4.93-4.26,7.24-6.55c0.81-0.8,1.63-1.05,2.7-0.55c1.6,0.75,1.87,1.79,0.64,3.1c-1.89,2.02-4.07,3.72-6.22,5.44
	c-1.84,1.47-3.36,3.25-5.05,4.86c-0.36,0.35-0.72,0.76-0.5,1.32c0.24,0.59,0.79,0.49,1.29,0.46c3.81-0.27,7.63-0.75,11.44-0.76
	c5.43-0.02,10.77-1.22,16.21-1.01c1,0.04,1.99-0.03,2.95,0.41c0.74,0.34,1.73,0.4,1.58,1.57c-0.12,0.89-1.21,1.8-2.17,1.69
	c-2.17-0.23-4.34-0.04-6.49,0.11c-7.24,0.52-14.48,1-21.75,1.03c-0.38,0-0.88-0.14-1.09,0.36c-0.2,0.47,0.1,0.81,0.4,1.08
	c3.69,3.34,6.13,7.7,9.34,11.43c0.54,0.62,0.98,1.36,1.32,2.11c0.56,1.26-0.05,2.1-1.44,2.12c-1.41,0.02-2.33-0.75-3.05-1.87
	c-1.81-2.8-4.01-5.33-5.75-8.18c-0.62-1.02-1.16-2.26-2.48-2.7c-0.98,1.16-0.46,2.52-0.45,3.78c0.03,4.68,0.43,9.37-0.07,14.02
	c-0.77,7.11,0.4,14.18,0.07,21.28c-0.09,1.82-0.62,2.39-2.41,2.24c-1.28-0.11-1.95-0.77-2.03-2.06c-0.04-0.75,0.01-1.5,0.04-2.26
	c0.18-5.6-0.42-11.2,0.01-16.79c0.53-6.84,0.1-13.7,0.47-20.54c0.04-0.79,0.42-1.97-0.37-2.31c-1.02-0.44-1.43,0.85-1.96,1.48
	c-1.4,1.66-2.99,3.14-4.52,4.68c-2.77,2.78-5.49,5.62-8.2,8.47c-0.75,0.79-1.47,1.21-2.63,0.79c-2.16-0.78-2.52-1.8-0.87-3.36
	c3.76-3.57,7.16-7.49,11.05-10.92c0.38-0.33,0.78-0.65,1.07-1.05c0.46-0.62,1.68-0.96,1.13-1.96c-0.4-0.71-1.4-0.45-2.1-0.34
	c-3.9,0.63-7.84,0.26-11.75,0.46c-2.58,0.13-5.17,0.25-7.76,0.37C3.72,48.58,2.26,48,0.84,47.26c-0.57-0.29-0.94-0.73-0.81-1.4
	c0.13-0.67,0.64-0.98,1.28-0.99c1.42-0.01,2.84,0.11,4.25,0.06c7.6-0.28,15.2-0.42,22.81-0.12c0.17,0.01,0.34,0.03,0.5,0.01
	c0.47-0.05,1.06,0.15,1.28-0.48c0.16-0.47-0.27-0.74-0.51-1.06c-3.15-4.21-6.4-8.34-9.84-12.32c-0.99-1.14-1.8-2.41-2.45-3.77
	c-0.45-0.95-0.12-1.41,0.94-1.44c1.5-0.05,2.87,0.27,3.61,1.74c1.45,2.88,3.8,5.07,5.81,7.5c1.12,1.36,2.13,2.77,3.06,4.26
	c0.22,0.35,0.48,0.81,0.93,0.71c0.63-0.13,0.59-0.74,0.56-1.23C31.95,33.31,32.45,27.88,32.29,23.28z"/>
</svg>
