<?xml version="1.0" encoding="utf-8"?>
<!-- Generator: Adobe Illustrator 27.9.0, SVG Export Plug-In . SVG Version: 6.00 Build 0)  -->
<svg version="1.1" id="Layer_1" xmlns="http://www.w3.org/2000/svg" xmlns:xlink="http://www.w3.org/1999/xlink" x="0px" y="0px"
	 viewBox="0 0 59.93 75.76" style="enable-background:new 0 0 59.93 75.76;" xml:space="preserve">
<path d="M27.41,63.21c0-3.09,0-6.19,0-9.28c0-0.24,0.06-0.47,0.06-0.71c0-0.5-0.08-1.03-0.62-1.15c-0.42-0.09-0.69,0.31-0.92,0.64
	c-1.26,1.84-2.71,3.52-4.1,5.25c-2.06,2.56-4.58,4.6-7.08,6.68c-1.51,1.26-3.21,1.17-4.96,0.91c-0.37-0.06-0.74-0.29-1.06-0.51
	c-1.39-0.99-1.43-2.26-0.09-3.31c1.12-0.88,2.27-1.73,3.44-2.54c2.85-1.96,5.06-4.54,7.21-7.2c1.8-2.22,3.51-4.51,5.55-6.52
	c0.22-0.22,0.43-0.47,0.62-0.72c0.23-0.32,0.51-0.65,0.31-1.07c-0.21-0.43-0.65-0.37-1.04-0.37c-1.98-0.01-3.96-0.03-5.94-0.01
	c-2.54,0.02-5.04-0.28-7.55-0.69c-2.18-0.35-4.41-0.34-6.61-0.55c-1.49-0.14-3-0.32-4.08-1.57c-0.86-0.99-0.75-1.9,0.38-2.54
	c0.55-0.31,1.17-0.5,1.83-0.43c3.38,0.36,6.77,0.75,10.15,1.08c3.08,0.3,6.15,0.7,9.25,0.58c0.45-0.02,1.02,0.11,1.18-0.51
	c0.1-0.4-0.12-0.75-0.41-1.06c-2.5-2.67-4.51-5.72-6.61-8.7c-2.46-3.49-5.01-6.93-6.74-10.88c-1-2.29-0.33-3.3,2.19-3.16
	c1.77,0.1,3.12,0.77,3.87,2.57c0.91,2.19,2.11,4.26,3.47,6.22c1.75,2.54,3.46,5.11,5.21,7.66c0.49,0.72,1.03,1.41,1.59,2.08
	c0.23,0.28,0.42,0.77,0.88,0.65c0.51-0.13,0.36-0.64,0.36-1.01c0.02-1.98,0.08-3.97,0-5.95c-0.23-5.96,0.44-11.89,0.54-17.84
	c0.04-2.6,0.52-5.2,0.75-7.8c0.1-1.13,0.73-1.45,1.75-1.46c2.2-0.02,3.74,1.34,3.96,3.56c0.05,0.47,0.1,0.97,0.01,1.43
	c-0.73,3.37-0.2,6.81-0.53,10.19c-0.54,5.53-0.33,11.09-0.69,16.62c-0.06,0.98-0.51,2.49,0.37,2.86c1.16,0.49,1.67-1.11,2.38-1.83
	c2.57-2.59,5.01-5.29,7.54-7.93c0.99-1.04,1.8-2.21,2.65-3.35c1.31-1.76,3.17-2.01,4.95-0.75c0.73,0.52,0.95,1.06,0.73,2.01
	c-0.59,2.53-2.18,4.41-3.87,6.17c-2.57,2.68-5.29,5.22-7.95,7.82c-0.23,0.22-0.45,0.45-0.67,0.68c-0.22,0.23-0.43,0.51-0.36,0.83
	c0.12,0.48,0.56,0.51,0.95,0.52c3.33,0.1,6.65-0.15,9.93-0.73c1.81-0.32,3.63-0.29,5.46-0.22c1.48,0.05,2.78,0.63,3.93,1.52
	c1.32,1.02,1.22,2.12-0.2,3.01c-0.58,0.36-1.23,0.51-1.83,0.34c-2.71-0.77-5.38,0.02-8.02,0.31c-3.58,0.38-7.12,0.13-10.68,0.09
	c-0.63-0.01-1.26-0.11-1.89-0.12c-0.59-0.01-1.35-0.43-1.66,0.38c-0.25,0.65,0.24,1.26,0.62,1.72c1.22,1.46,2.44,2.94,3.81,4.25
	c3.93,3.77,6.73,8.42,10.08,12.64c0.39,0.49,0.66,1.06,0.72,1.73c0.09,1.03-0.31,1.65-1.27,2c-1.83,0.66-3.97,0-5.25-1.75
	c-1.02-1.41-2.03-2.84-2.91-4.34c-1.61-2.76-3.74-5.11-5.75-7.55c-0.29-0.35-0.6-0.87-1.12-0.73c-0.6,0.17-0.37,0.79-0.39,1.23
	c-0.16,3.42,0.32,6.81,0.51,10.21c0.19,3.33,0.17,6.65,0.1,9.98c-0.03,1.52-0.94,2.64-2.27,2.93c-1.16,0.26-3.52-0.7-4.01-1.6
	c-0.3-0.54-0.1-1.09-0.09-1.64c0.03-1.59,0.12-3.17,0.15-4.76c0.03-1.51,0.01-3.01,0.01-4.52C27.59,63.21,27.5,63.21,27.41,63.21z"
	/>
</svg>
