<?xml version="1.0" encoding="utf-8"?>
<!-- Generator: Adobe Illustrator 27.9.0, SVG Export Plug-In . SVG Version: 6.00 Build 0)  -->
<svg version="1.1" id="Layer_1" xmlns="http://www.w3.org/2000/svg" xmlns:xlink="http://www.w3.org/1999/xlink" x="0px" y="0px"
	 viewBox="0 0 52.35 49.67" style="enable-background:new 0 0 52.35 49.67;" xml:space="preserve">
<path d="M29.7,39.6c0,1.75,0.01,3.51,0,5.26c0,0.75,0.01,1.51-0.06,2.25c-0.25,2.6-0.97,2.99-3.43,2.16
	c-0.77-0.26-1.15-0.58-1.09-1.38c0.28-3.58-0.15-7.17,0.32-10.77c0.3-2.3,0.09-4.67,0.11-7.01c0-0.36-0.08-0.7-0.45-0.79
	c-0.36-0.09-0.61,0.15-0.8,0.45c-1.47,2.32-2.86,4.71-4.45,6.95c-1.88,2.65-3.93,5.19-5.92,7.76c-0.87,1.13-2.74,1.62-4.04,1.09
	c-0.75-0.31-0.9-0.92-0.75-1.65c0.13-0.61,0.57-1.02,0.98-1.43c3.7-3.78,6.49-8.27,9.69-12.43c0.15-0.2,0.29-0.41,0.42-0.62
	c0.17-0.3,0.26-0.61,0.02-0.93c-0.27-0.37-0.58-0.19-0.88-0.04c-3.06,1.58-6.4,2.37-9.63,3.46c-1.66,0.56-3.38,0.93-4.96,1.72
	c-1.24,0.62-2.47,0.32-3.64-0.15c-0.98-0.4-1.06-1.34-0.18-1.92c0.55-0.36,1.18-0.64,1.82-0.83c2.79-0.84,5.5-1.94,8.36-2.56
	c2.28-0.49,4.33-1.73,6.65-2.16c0.4-0.07,0.76-0.38,0.72-0.88c-0.04-0.41-0.41-0.48-0.74-0.53c-4.37-0.75-8.35-2.79-12.62-3.87
	c-1.36-0.34-2.68-0.87-4-1.37c-0.64-0.24-1.25-0.66-1.11-1.47c0.13-0.78,0.77-1.05,1.49-1.07c0.41-0.01,0.85,0,1.23,0.14
	c3.29,1.2,6.73,1.88,10.02,3.09c3.51,1.29,7.12,2.31,10.69,3.43c0.21,0.07,0.55,0.08,0.7-0.04c0.34-0.28,0.06-0.59-0.13-0.83
	c-1.76-2.23-3.45-4.5-5.3-6.65c-2.29-2.66-4.39-5.46-6.52-8.24c-0.56-0.73-1.19-1.4-1.8-2.08C9.89,5.09,9.8,4.43,10.23,3.83
	c0.36-0.5,1-0.74,1.56-0.42c2,1.14,4.23,2.08,5.12,4.46c0.31,0.81,0.72,1.52,1.35,2.07c2.15,1.89,3.82,4.18,5.43,6.52
	c0.14,0.21,0.3,0.41,0.46,0.6c0.21,0.25,0.43,0.54,0.81,0.42c0.39-0.13,0.4-0.5,0.38-0.83c-0.09-1.67-0.24-3.33-0.27-5
	c-0.06-2.84-0.06-5.69-0.06-8.53c0-0.5,0.06-1.01,0.18-1.49c0.25-1.01,0.98-1.58,1.97-1.63c1.12-0.06,1.62,0.79,1.82,1.72
	c0.41,1.89,0.21,3.83,0.2,5.75c-0.02,3.07,0.27,6.13-0.08,9.2c-0.04,0.32-0.07,0.68,0.27,0.89c0.43,0.26,0.82,0.07,1.11-0.26
	c1.22-1.38,2.51-2.7,3.6-4.17c1.89-2.55,4.27-4.69,5.9-7.45c0.86-1.45,2.39-1.68,3.97-1.62c0.71,0.03,1.35,0.19,1.64,0.91
	c0.28,0.71-0.01,1.31-0.55,1.79c-1.83,1.61-3.31,3.54-4.87,5.39c-1.99,2.37-4.01,4.7-6.16,6.92c-0.24,0.25-0.46,0.58-0.27,0.87
	c0.19,0.27,0.61,0.27,0.93,0.16c2.19-0.78,4.38-1.57,6.57-2.38c2.42-0.89,4.82-1.84,7.26-2.69c0.95-0.33,1.96-0.45,2.92,0.08
	c1.14,0.63,1.26,1.86,0.19,2.6c-0.47,0.32-1.04,0.59-1.6,0.68c-2.42,0.39-4.6,1.42-6.87,2.25c-3.75,1.38-7.53,2.68-11.32,3.97
	c-0.52,0.18-0.96,0.33-1.02,0.9c-0.06,0.6,0.41,0.89,0.87,1.08c0.69,0.29,1.4,0.56,2.12,0.75c5.17,1.37,9.99,3.7,15,5.49
	c0.39,0.14,0.79,0.31,1.12,0.55c0.51,0.36,0.78,0.91,0.59,1.53c-0.2,0.65-0.5,1.23-1.34,1.27c-1.11,0.05-2.14-0.14-3.17-0.59
	c-3.2-1.42-6.43-2.78-9.64-4.18c-0.46-0.2-1.01-0.57-1.38-0.14c-0.51,0.59,0.19,1.01,0.49,1.45c0.14,0.21,0.33,0.37,0.52,0.55
	c2.5,2.37,4.61,5.05,6.51,7.92c0.69,1.04,1.45,2.05,2.45,2.84c0.58,0.46,0.83,1.06,0.5,1.77c-0.31,0.69-0.88,0.94-1.62,0.92
	c-1.32-0.03-2.46-0.48-3.35-1.43c-0.57-0.6-1.12-1.26-1.54-1.97c-2.42-4.02-5.82-7.32-8.26-11.32c-0.17-0.28-0.35-0.59-0.76-0.47
	c-0.42,0.13-0.36,0.53-0.36,0.83C29.56,34.76,29.74,37.18,29.7,39.6z"/>
</svg>
