<?xml version="1.0" encoding="utf-8"?>
<!-- Generator: Adobe Illustrator 27.9.0, SVG Export Plug-In . SVG Version: 6.00 Build 0)  -->
<svg version="1.1" id="Layer_1" xmlns="http://www.w3.org/2000/svg" xmlns:xlink="http://www.w3.org/1999/xlink" x="0px" y="0px"
	 viewBox="0 0 66.22 96.8" style="enable-background:new 0 0 66.22 96.8;" xml:space="preserve">
<path d="M51.19,50.76c3.25,0.07,6.5,0.48,9.76,0.17c1.27-0.12,2.5,0.16,3.72,0.41c1.18,0.24,1.68,1.01,1.51,1.94
	c-0.19,1.01-0.91,1.37-1.82,1.37c-2.59,0-5.2,0.13-7.76-0.13c-3.33-0.34-6.66-0.3-9.99-0.42c-3.42-0.12-6.84,0.17-10.27-0.23
	c-2.08-0.25-3.15,1.45-2.06,3.23c1.61,2.63,3.37,5.17,5.09,7.73c2.28,3.39,4.56,6.77,6.88,10.14c0.49,0.71,1.09,1.34,0.4,2.22
	c-0.63,0.81-2.35,1.12-3.2,0.5c-0.46-0.33-0.84-0.82-1.15-1.3c-2.2-3.44-4.38-6.91-6.57-10.36c-0.22-0.35-0.42-0.73-0.67-1.05
	c-0.24-0.3-0.47-0.78-0.96-0.53c-0.43,0.22-0.37,0.69-0.31,1.11c0.45,2.9,0.06,5.84,0.36,8.74c0.45,4.48,0.05,9.01,0.96,13.47
	c0.48,2.36-0.22,4.8,0.24,7.22c0.17,0.88-0.77,1.61-1.8,1.78c-1.09,0.18-2.12-0.33-2.45-1.28c-0.14-0.38-0.18-0.82-0.15-1.23
	c0.41-5.87-0.52-11.67-0.88-17.49c-0.31-5.1-0.05-10.2-0.17-15.3c-0.02-0.8,0.39-1.89-0.47-2.32c-0.94-0.47-1.42,0.65-1.92,1.21
	c-1.92,2.14-4.37,3.63-6.54,5.45c-0.96,0.81-1.87,1.67-2.83,2.47c-1.49,1.24-3.42,0.25-4.04-1.32c-0.16-0.4,0.02-0.8,0.39-1.1
	c0.91-0.74,1.75-1.56,2.7-2.23c2.66-1.89,5.2-3.91,7.57-6.15c0.91-0.86,1.93-1.59,2.88-2.41c0.38-0.33,0.75-0.72,0.56-1.29
	c-0.21-0.61-0.77-0.54-1.26-0.55c-3.93-0.05-7.87,0.07-11.79-0.18c-3.99-0.25-8-0.2-11.96-0.84c-0.93-0.15-1.77-0.49-2.6-0.86
	c-0.51-0.23-0.66-0.73-0.61-1.27c0.05-0.58,0.41-0.96,0.93-1.02c0.82-0.09,1.68-0.19,2.49-0.05c3.22,0.56,6.48,0.59,9.72,0.74
	c3.08,0.14,6.19-0.11,9.26,0.41c0.49,0.08,1,0.1,1.5,0.06c1.17-0.1,1.48-0.67,0.8-1.63c-1.69-2.38-3.46-4.71-5.16-7.07
	c-1.42-1.96-2.74-4-4.49-5.7c-0.38-0.37-0.59-0.79-0.66-1.31c-0.12-0.95,0.36-1.49,1.31-1.27c1.05,0.24,2.1,0.55,2.86,1.42
	c1.37,1.57,2.74,3.14,3.88,4.91c1.94,3.02,3.98,5.97,5.98,8.96c0.19,0.28,0.35,0.58,0.75,0.49c0.44-0.1,0.4-0.51,0.39-0.81
	c-0.05-2.59,0.05-5.2-0.22-7.76c-0.5-4.76-0.26-9.5-0.04-14.25c0.26-5.68,0.42-11.36,0.19-17.04c-0.1-2.5-0.04-5-0.42-7.49
	c-0.23-1.5,0.5-1.94,1.95-1.47c1.55,0.51,2.38,1.52,2.44,3.29c0.25,7.59,0.83,15.18,0.16,22.78c-0.5,5.66-0.25,11.34-0.12,17.01
	c0.04,1.67-0.02,3.34-0.02,5.01c0,0.32,0.01,0.69,0.4,0.84c0.48,0.19,0.8-0.08,1.05-0.42c3.55-4.83,8.39-8.34,12.72-12.37
	c0.61-0.57,1.15-1.22,1.77-1.77c0.97-0.87,1.9-0.81,2.85,0.12c0.98,0.96,1.07,1.78,0.16,2.82c-1.88,2.14-3.94,4.1-6.19,5.84
	c-2.45,1.9-4.55,4.18-6.9,6.19c-0.26,0.22-0.5,0.5-0.43,0.85c0.1,0.52,0.57,0.55,0.99,0.54c2.93-0.04,5.85-0.1,8.78-0.15
	C49.52,50.75,50.36,50.76,51.19,50.76z"/>
</svg>
