<?xml version="1.0" encoding="utf-8"?>
<!-- Generator: Adobe Illustrator 27.9.0, SVG Export Plug-In . SVG Version: 6.00 Build 0)  -->
<svg version="1.1" id="Layer_1" xmlns="http://www.w3.org/2000/svg" xmlns:xlink="http://www.w3.org/1999/xlink" x="0px" y="0px"
	 viewBox="0 0 46.05 52.25" style="enable-background:new 0 0 46.05 52.25;" xml:space="preserve">
<path d="M20.99,40.57c0.17-2.33-0.28-4.67,0.23-6.99c0.09-0.41,0.18-0.91-0.2-1.16c-0.57-0.38-0.93,0.16-1.23,0.51
	c-2.85,3.27-5.68,6.56-8.52,9.84c-0.27,0.32-0.48,0.69-0.77,0.98c-1.4,1.43-3.5,0.95-4.19-0.93c-0.22-0.59-0.14-1.02,0.35-1.55
	c3.67-3.98,7.29-8,11.13-11.83c0.12-0.12,0.26-0.22,0.37-0.34c0.4-0.42,0.95-0.85,0.74-1.49c-0.25-0.77-1.08-0.77-1.68-0.79
	c-3.66-0.13-7.32-0.18-10.98-0.24c-1.61-0.03-3.16-0.26-4.6-1.01c-0.44-0.23-0.85-0.53-1.21-0.86c-0.31-0.28-0.53-0.69-0.39-1.13
	c0.14-0.43,0.51-0.65,0.96-0.66c0.58-0.01,1.17,0,1.75,0.02c3.48,0.15,6.96,0.31,10.44,0.46c0.39,0.02,0.91,0.19,1.08-0.33
	c0.16-0.47-0.31-0.72-0.58-1.01C10,18.1,6.93,13.57,2.87,9.92C2.63,9.7,2.4,9.44,2.23,9.16C1.69,8.27,2.1,7.4,3.12,7.4
	c0.91,0,1.84,0.17,2.56,0.83c2.52,2.31,5.17,4.52,7.18,7.3c1.77,2.44,3.82,4.63,5.67,7c0.2,0.26,0.46,0.48,0.7,0.72
	c0.24,0.24,0.5,0.45,0.87,0.35c0.43-0.12,0.38-0.51,0.38-0.82c-0.01-0.5-0.06-1-0.14-1.49c-0.95-6.29-1.09-12.63-0.99-18.97
	c0.01-0.82-0.45-1.98,0.89-2.28c1.14-0.25,2.86,0.85,3.17,1.96c0.09,0.32,0.11,0.66,0.1,0.99c-0.15,5.6,0.52,11.17,0.52,16.77
	c0,0.8-0.37,1.9,0.54,2.28c1.02,0.43,1.27-0.81,1.84-1.34c1.83-1.71,3.41-3.68,5.44-5.18c0.89-0.66,1.41-1.64,2.1-2.47
	c0.75-0.9,2.2-0.79,3.48,0.23c0.79,0.63,0.84,1.25,0.03,2.4c-1.36,1.95-3.32,3.28-5.05,4.85c-0.93,0.84-1.87,1.67-2.73,2.57
	c-0.56,0.59-0.35,1.11,0.45,1.21c0.66,0.08,1.33,0.03,2,0.01c3.93-0.15,7.82,0.21,11.67,1.02c1.65,0.35,2.33,0.94,2.24,1.87
	c-0.1,1.02-1.13,1.65-2.77,1.35c-5.46-1.02-10.98-0.71-16.47-0.96c-0.08,0-0.17-0.02-0.25-0.01c-0.55,0.04-1.29-0.21-1.51,0.49
	c-0.22,0.7,0.53,0.91,0.94,1.29c2.46,2.27,4.87,4.57,6.67,7.44c0.98,1.57,2.21,2.93,3.97,3.7c0.81,0.35,1.45,0.93,1.22,1.93
	c-0.19,0.79-1.59,1.46-2.52,1.11c-0.85-0.31-1.67-0.78-2.4-1.32c-2.02-1.51-3.7-3.31-4.96-5.56c-0.62-1.11-1.12-2.47-2.55-2.93
	c-0.97,1.27-0.4,2.71-0.24,4c0.24,1.92,0.07,3.84,0.26,5.75c0.2,1.99,0.35,3.98,0.47,5.98c0.11,1.92-0.42,2.75-1.66,2.79
	c-1.79,0.05-2.78-0.84-2.95-2.67c-0.02-0.17,0-0.33,0-0.5C21.24,46.24,20.84,43.41,20.99,40.57z"/>
</svg>
