<?xml version="1.0" encoding="utf-8"?>
<!-- Generator: Adobe Illustrator 27.9.0, SVG Export Plug-In . SVG Version: 6.00 Build 0)  -->
<svg version="1.1" id="Layer_1" xmlns="http://www.w3.org/2000/svg" xmlns:xlink="http://www.w3.org/1999/xlink" x="0px" y="0px"
	 viewBox="0 0 59.74 55.65" style="enable-background:new 0 0 59.74 55.65;" xml:space="preserve">
<path d="M50.73,31.56c-4.78,0.09-9.44-0.97-14.16-1.41c-1.91-0.18-3.84-0.09-5.72-0.58c-0.35-0.09-0.89-0.19-1,0.4
	c-0.07,0.37,0.25,0.57,0.52,0.77c2.58,1.98,5.01,4.16,7.55,6.19c3.56,2.85,6.19,6.55,9.37,9.74c0.46,0.47,0.67,1,0.3,1.57
	c-0.53,0.82-1.26,1.37-2.3,1.19c-1.02-0.18-1.85-0.74-2.52-1.54c-1.06-1.29-2.06-2.63-3.21-3.85c-3.15-3.34-6.48-6.5-9.97-9.49
	c-0.31-0.27-0.63-0.6-1.09-0.31c-0.41,0.27-0.36,0.73-0.35,1.13c0.1,3.5,0.14,7.01,0.36,10.51c0.17,2.86,0.05,5.67-0.79,8.4
	c-0.42,1.37-0.77,1.48-2.24,1.25c-1.42-0.23-1.75-0.54-1.75-1.94c0-0.91,0.25-1.82,0.26-2.73c0.02-2.9,0.19-5.83-0.1-8.7
	c-0.2-1.96,0.41-3.81,0.29-5.71c-0.03-0.46,0.2-1.07-0.43-1.29c-0.57-0.2-0.91,0.28-1.24,0.64c-2.2,2.4-4.39,4.81-6.6,7.21
	c-0.62,0.67-1.24,1.38-1.98,1.9c-0.75,0.53-1.6,0.82-2.57,0.26c-1.57-0.9-1.71-1.89-0.24-2.95c0.97-0.7,1.72-1.61,2.47-2.47
	c2.75-3.14,5.65-6.11,8.8-8.85c0.38-0.33,0.78-0.66,0.53-1.26c-0.24-0.58-0.74-0.63-1.25-0.55c-4.16,0.64-8.29-0.2-12.44-0.21
	c-1.58,0-3.16-0.12-4.74,0C3.11,29.02,1.85,28.64,0.65,28c-0.5-0.26-0.71-0.71-0.64-1.25c0.07-0.57,0.49-0.87,1.03-0.92
	c1.08-0.1,2.16-0.2,3.25-0.22c4.76-0.08,9.5,0.53,14.25,0.65c0.52,0.01,1.28,0.49,1.56-0.22c0.25-0.64-0.5-0.96-0.9-1.34
	c-4.13-3.89-8.59-7.43-12.51-11.55c-0.23-0.24-0.5-0.45-0.7-0.72c-0.51-0.68-1.76-1.13-1.12-2.22c0.55-0.94,1.68-0.5,2.56-0.49
	c0.98,0.01,1.69,0.57,2.38,1.22c3.11,2.91,6.28,5.75,9.38,8.67c1.09,1.03,2.03,2.21,3.08,3.29c0.38,0.39,0.74,1.06,1.44,0.64
	c0.53-0.32,0.23-0.87,0.2-1.36c-0.24-3.83-0.65-7.66-0.61-11.49c0.03-3.24,0.6-6.47,0.92-9.71C24.3,0.26,24.72-0.03,25.41,0
	c0.58,0.03,1.17,0.07,1.75,0.14c0.97,0.11,1.51,0.62,1.48,1.65c-0.03,1.09-0.02,2.16-0.21,3.25c-0.52,2.96-0.53,5.94-0.39,8.94
	c0.12,2.5,0.06,5.01,0.09,7.52c0,0.5-0.03,1.01,0.02,1.5c0.12,1.18,0.73,1.5,1.63,0.73c1.45-1.25,2.81-2.6,4.16-3.96
	c2.17-2.18,4.43-4.27,5.98-7.01c0.78-1.39,3.34-1.28,4.33-0.02c0.55,0.7,0.24,1.33-0.15,1.83c-1.48,1.91-2.72,4-4.62,5.56
	c-2.19,1.8-4.06,3.98-6.54,5.44c-0.28,0.16-0.61,0.37-0.54,0.77c0.08,0.47,0.46,0.65,0.89,0.72c0.25,0.04,0.5,0.04,0.75,0.03
	c4.19-0.1,8.3,0.66,12.45,1.08c2.76,0.28,5.53,0.15,8.26-0.17c0.99-0.11,1.97,0.11,2.96-0.15c0.9-0.24,1.66,0.24,1.99,1.13
	c0.27,0.74-0.44,1.75-1.48,2.01c-2.04,0.5-4.13,0.56-6.22,0.59C51.56,31.57,51.14,31.56,50.73,31.56z"/>
</svg>
