<?xml version="1.0" encoding="utf-8"?>
<!-- Generator: Adobe Illustrator 27.9.0, SVG Export Plug-In . SVG Version: 6.00 Build 0)  -->
<svg version="1.1" id="Layer_1" xmlns="http://www.w3.org/2000/svg" xmlns:xlink="http://www.w3.org/1999/xlink" x="0px" y="0px"
	 viewBox="0 0 75.3 91.19" style="enable-background:new 0 0 75.3 91.19;" xml:space="preserve">
<path d="M41.27,68.73c-0.26,7.17-0.85,13.67-0.59,20.2c0.03,0.74,0.12,1.56-0.8,1.91c-1.05,0.4-2.12,0.56-3.11-0.1
	c-0.54-0.36-0.53-0.93-0.5-1.56c0.14-3.24,0.15-6.49,0.3-9.73c0.34-7.01,0.62-14.01,0.59-21.03c-0.01-1.66,0.23-3.33,0.33-5
	c0.03-0.58,0.08-1.24-0.53-1.56c-0.67-0.36-1.06,0.23-1.49,0.59c-4.32,3.56-8.63,7.12-12.95,10.68c-2.38,1.97-4.91,3.75-7.16,5.88
	c-1.19,1.13-2.55,1.11-3.65,0.25c-1.01-0.79-1.1-1.68-0.12-2.48c2.07-1.68,4.17-3.33,6.33-4.89c1.63-1.17,3.1-2.54,4.6-3.83
	c2.92-2.5,5.95-4.83,9.02-7.12c0.26-0.2,0.58-0.37,0.75-0.63c0.26-0.39,0.22-0.81-0.31-0.96c-0.31-0.09-0.66-0.1-0.99-0.09
	c-3.45,0.12-6.77-0.76-10.13-1.31c-2.21-0.37-4.5-0.16-6.74-0.35c-3.47-0.29-6.93-0.66-10.39-1.09c-1.06-0.13-2.14-0.39-3.08-0.98
	c-0.88-0.55-0.86-1.4,0.02-1.95c0.54-0.34,1.12-0.23,1.7-0.29c2.44-0.25,4.83,0.31,7.18,0.74c4.38,0.8,8.82,0.62,13.19,1.26
	c2.56,0.37,5.09,0.88,7.64,1.32c0.57,0.1,1.15,0.2,1.73,0.22c1.16,0.05,1.44-0.35,0.79-1.28c-1.15-1.64-2.39-3.22-3.62-4.8
	c-2.46-3.16-4.97-6.29-7.41-9.47c-0.81-1.05-1.5-2.2-2.17-3.35c-0.34-0.58-0.52-1.37-0.09-1.91c0.42-0.52,1.16-0.57,1.86-0.46
	c1.04,0.17,2,0.53,2.45,1.52c2.1,4.66,6.13,7.9,8.87,12.08c1.19,1.81,2.41,3.6,3.59,5.42c0.29,0.45,0.57,0.85,1.17,0.63
	c0.46-0.17,0.54-0.62,0.51-1.04c-0.13-1.66-0.42-3.33-0.39-4.98c0.09-4.09,0.24-8.18,0.54-12.26c0.29-3.84,0.41-7.67,0.43-11.52
	c0.02-3.93,0-7.86,0.01-11.79c0-0.42-0.02-0.84,0.01-1.25C38.78,0.6,39.18-0.01,40.23,0c1.7,0.01,2.81,0.91,2.78,2.46
	c-0.04,2.17,0.01,4.33-0.17,6.51c-0.2,2.4,0.11,4.83,0.14,7.26c0.06,4.76-0.41,9.5-0.69,14.25c-0.18,3.17-0.04,6.35-0.55,9.5
	c-0.08,0.47,0.14,0.86,0.54,1.03c0.3,0.13,0.62-0.12,0.87-0.36c0.48-0.47,0.98-0.91,1.43-1.41c3.75-4.18,8.15-7.66,12.26-11.46
	c0.85-0.79,1.85-1.43,2.76-2.15c0.97-0.77,1.84-0.54,2.69,0.22c1.06,0.94,1.13,1.47,0.01,2.41c-5.7,4.77-10.94,10.04-16.33,15.14
	c-1.02,0.97-2.23,1.75-3.35,2.62c-0.34,0.27-0.62,0.63-0.46,1.08c0.15,0.41,0.51,0.65,0.96,0.68c0.58,0.03,1.17,0.04,1.75,0.06
	c4.92,0.21,9.8,0.6,14.68,1.36c3.95,0.62,7.97,0.78,11.96,1.11c0.91,0.08,1.84-0.04,2.72,0.35c0.55,0.24,1.1,0.54,1.06,1.24
	c-0.05,0.81-0.47,1.45-1.3,1.64c-0.48,0.11-1,0.1-1.49,0.04c-4.31-0.46-8.58-1.18-12.92-1.4c-2.98-0.15-5.92-0.88-8.91-1.21
	c-2.4-0.27-4.85,0.06-7.22-0.62c-0.59-0.17-1.39-0.36-1.79,0.41c-0.35,0.67-0.06,1.33,0.4,1.85c1.88,2.15,3.16,4.72,4.83,7.01
	c1.67,2.3,3.27,4.65,5.02,6.88c1.71,2.18,2.62,4.85,4.51,6.92c0.59,0.65,0.68,1.55,0.18,2.35c-0.51,0.81-1.36,0.48-2.07,0.45
	c-1.22-0.04-1.94-0.93-2.55-1.83c-0.7-1.04-1.29-2.15-1.9-3.24c-2.26-4.01-5.29-7.51-7.61-11.48c-0.17-0.29-0.43-0.64-0.76-0.55
	c-0.45,0.12-0.53,0.59-0.53,1.02c0,1.59-0.08,3.18,0.03,4.76C41.33,66.39,41.29,67.89,41.27,68.73z"/>
</svg>
