<?xml version="1.0" encoding="utf-8"?>
<!-- Generator: Adobe Illustrator 27.9.0, SVG Export Plug-In . SVG Version: 6.00 Build 0)  -->
<svg version="1.1" id="Layer_1" xmlns="http://www.w3.org/2000/svg" xmlns:xlink="http://www.w3.org/1999/xlink" x="0px" y="0px"
	 viewBox="0 0 65.33 63.99" style="enable-background:new 0 0 65.33 63.99;" xml:space="preserve">
<path d="M35.79,10.51c0.09,2.34,0.05,4.67-0.19,6.99c-0.03,0.33-0.18,0.69,0.16,0.88c0.44,0.24,0.85,0.02,1.04-0.38
	c0.67-1.46,1.67-2.69,2.55-4.01c2.45-3.72,5.7-6.75,8.59-10.09c0.57-0.66,1.39-0.96,2.28-0.75c0.81,0.19,1.69,0.38,2.06,1.25
	c0.36,0.85-0.3,1.41-0.78,1.97c-2.61,3.03-5.28,6.03-7.85,9.09c-1.71,2.04-3.32,4.16-4.96,6.26c-0.25,0.32-0.53,0.75-0.1,1.08
	c0.22,0.17,0.67,0.24,0.94,0.14c1.79-0.66,3.57-1.33,5.4-1.9c3.91-1.21,7.94-1.88,11.89-2.91c1.02-0.26,2.16-0.12,3.24-0.06
	c0.7,0.04,1.33,0.39,1.38,1.2c0.05,0.82-0.26,1.48-1.17,1.67c-1.55,0.33-3.1,0.61-4.64,0.97c-5.68,1.32-11.28,2.92-16.85,4.63
	c-1.31,0.4-1.38,0.75-0.73,1.97c0.59,1.11,1.56,1.4,2.67,1.54c3.89,0.52,7.77,1.02,11.69,1.13c2.92,0.08,5.84,0.26,8.76,0.33
	c0.94,0.02,1.82,0.24,2.68,0.55c1.01,0.36,1.75,1.57,1.4,2.3c-0.43,0.89-1.37,1.07-2.15,0.88c-5.82-1.45-11.84-0.23-17.67-1.45
	c-0.08-0.02-0.17-0.03-0.25-0.05c-0.34-0.09-0.68-0.11-0.9,0.21c-0.31,0.46,0.02,0.8,0.33,1.05c1.84,1.44,3.68,2.88,5.73,4.02
	c0.73,0.41,1.48,0.86,2.27,1.04c3.63,0.8,5.93,3.58,8.65,5.73c0.81,0.64,0.95,1.73,0.44,2.47c-0.6,0.85-1.35,0.75-2.21,0.37
	c-1.32-0.58-2.53-1.35-3.47-2.41c-2.02-2.27-4.76-3.33-7.37-4.63c-0.35-0.17-0.83-0.4-1.12,0.04c-0.19,0.3,0.09,0.65,0.29,0.9
	c1.55,1.88,2.68,4.02,3.86,6.14c0.86,1.56,1.05,2.83,0.33,3.2c-1.22,0.62-2.26-0.03-3.24-0.68c-0.77-0.51-1.37-1.19-1.74-2.08
	c-1.42-3.42-3.25-6.55-5.85-9.26c-1.19-1.23-1.88-2.93-2.84-4.4c-0.5-0.77-1.03-1.54-1.66-2.19c-0.53-0.55-1.28-0.27-1.55,0.47
	c-0.3,0.81-0.36,1.69-0.17,2.48c0.49,1.99,0.26,3.99,0.19,5.97c-0.21,6.34-0.41,12.68-0.25,19.02c0.02,0.91,0.13,1.84-0.81,2.48
	c-1.02,0.69-1.94,0.2-2.86-0.15c-0.82-0.31-1-1.08-1.01-1.86c-0.02-1.67-0.04-3.34,0.01-5.01c0.15-5.68,0.33-11.35,0.48-17.03
	c0.04-1.59,0.1-3.17,0.42-4.73c0.1-0.48,0.19-1.07-0.38-1.31c-0.6-0.26-0.84,0.26-1.14,0.67c-1.43,1.95-2.77,3.98-4.35,5.79
	c-1.81,2.06-3.83,3.94-5.78,5.87c-1.85,1.83-3.38,3.91-4.84,6.05c-1.36,1.99-2.68,4.01-4.03,6c-0.48,0.71-1.17,1.5-2.03,1.05
	c-0.84-0.43-1.92-0.79-2.3-1.79c-0.25-0.66,0.19-1.36,0.61-1.84c2.71-3.18,4.75-6.84,7.38-10.09c2.06-2.55,4.65-4.55,6.8-7.01
	c1.58-1.82,2.93-3.88,4.96-5.29c0.25-0.17,0.36-0.55,0.52-0.84c0.21-0.37,0.39-0.77,0.15-1.18c-0.3-0.52-0.86-0.53-1.33-0.42
	c-0.97,0.21-1.94,0.47-2.88,0.79c-4.49,1.54-9.04,2.91-13.42,4.74c-1.68,0.7-3.48,1.1-5.23,1.61c-0.31,0.09-0.65,0.15-0.97,0.12
	c-0.65-0.06-3-1.94-2.83-2.24c0.53-0.94,1.52-1.25,2.49-1.43c3.61-0.7,6.93-2.35,10.5-3.19c0.48-0.11,0.94-0.34,1.39-0.54
	c0.23-0.1,0.42-0.3,0.33-0.59c-0.09-0.27-0.34-0.32-0.59-0.3c-2.62,0.13-5.11-0.65-7.65-1.08c-1.46-0.25-2.99-0.2-4.37-0.9
	c-0.46-0.23-0.95-0.37-0.93-0.99c0.02-0.68,0.45-1.1,1.07-1.22c1.24-0.24,2.53-0.33,3.73,0.03c5.59,1.68,11.44,0.98,17.09,2.04
	c0.52,0.1,1-0.01,1.47-0.17c0.44-0.14,1.1-0.06,1.12-0.74c0.02-0.47-0.47-0.64-0.8-0.87c-4.1-2.88-8.22-5.72-12.29-8.65
	c-1.89-1.36-3.69-2.87-5.49-4.36c-0.43-0.35-1.02-0.77-0.75-1.44c0.25-0.62,0.89-0.63,1.5-0.68c1.08-0.1,1.95,0.32,2.79,0.92
	c2.98,2.14,5.98,4.26,8.95,6.41c3.17,2.3,6.47,4.43,9.3,7.16c0.18,0.17,0.4,0.31,0.62,0.42c0.56,0.28,1.12,0.35,1.59-0.2
	c0.4-0.47,0.24-0.94-0.04-1.38c-1.13-1.75-2.19-3.57-3.44-5.22C24.29,14.25,21.3,9.73,18.8,4.9c-0.57-1.11-1.34-2.11-2-3.18
	c-0.68-1.11-0.39-1.61,0.95-1.71c1.9-0.14,3.48,0.84,4.42,2.67c1.17,2.29,2.3,4.61,3.6,6.83c1.18,2.01,2.57,3.9,3.87,5.85
	c0.32,0.47,0.61,1.2,1.26,1.03c0.85-0.23,0.56-1.13,0.56-1.72c0-1.84-0.17-3.67-0.18-5.51c-0.02-2.17,0-4.35,0.12-6.51
	c0.07-1.41,0.9-2.13,2.22-2.2c1.38-0.07,2,0.41,2.19,1.79c0.24,1.75,0.03,3.51,0,5.26C35.78,8.5,35.79,9.5,35.79,10.51z"/>
</svg>
