<?xml version="1.0" encoding="utf-8"?>
<!-- Generator: Adobe Illustrator 27.9.0, SVG Export Plug-In . SVG Version: 6.00 Build 0)  -->
<svg version="1.1" id="Layer_1" xmlns="http://www.w3.org/2000/svg" xmlns:xlink="http://www.w3.org/1999/xlink" x="0px" y="0px"
	 viewBox="0 0 58.42 81.92" style="enable-background:new 0 0 58.42 81.92;" xml:space="preserve">
<path d="M27.79,66.09c0.18-5.43,0.32-9.87,0.45-14.31c0.01-0.39-0.05-0.79-0.16-1.16c-0.11-0.36-0.38-0.47-0.73-0.23
	c-0.06,0.05-0.14,0.09-0.19,0.14c-3.76,3.73-8.62,6.17-11.95,10.43c-1.63,2.08-4.36,1.89-6.18-0.02c-0.84-0.88-0.93-1.68,0-2.42
	c3.22-2.57,5.97-5.67,9.51-7.87c3.1-1.92,5.69-4.51,8.47-6.85c0.36-0.3,0.7-0.67,0.93-1.07c0.29-0.5,0.1-0.94-0.47-1.09
	c-0.38-0.1-0.79-0.08-1.18-0.08c-3.41,0.03-6.78-0.6-10.16-0.83C12.5,40.49,8.87,40,5.21,40.09c-1.72,0.04-3.31-0.41-4.52-1.75
	c-1.1-1.23-0.89-2.02,0.64-2.7c0.77-0.34,1.56-0.28,2.34-0.29c3.97-0.08,7.9,0.4,11.84,0.83c2.68,0.29,5.36,0.52,8,1.09
	c0.21,0.04,0.54,0,0.65-0.13c0.22-0.27,0.08-0.59-0.13-0.84c-0.31-0.36-0.63-0.71-0.98-1.04c-2.6-2.47-4.82-5.27-6.89-8.17
	c-1.94-2.71-4.28-5.1-6-7.96c-0.53-0.89-1.29-1.7-0.59-2.81c0.53-0.84,1.78-0.95,3.28-0.39c1.38,0.51,2.39,1.36,3.29,2.57
	c3.54,4.77,7.2,9.46,10.83,14.16c0.43,0.56,0.92,1.1,1.46,1.56c0.44,0.38,0.87,0.32,0.97-0.38c0.04-0.31,0.09-0.63,0.1-0.95
	c0.1-4.19,0.5-8.35,0.09-12.57c-0.36-3.7,0.32-7.44,0.97-11.11c0.36-2.04,0.66-4.06,0.69-6.13c0.02-1.26,0.22-2.44,1.58-2.89
	c1.72-0.57,3.93,0.15,4.72,1.41c0.28,0.44,0.2,0.85,0.17,1.34C37.42,8,36.25,12.96,36.1,18.03c-0.11,3.57,0.27,7.13-0.05,10.7
	c-0.14,1.5-0.33,2.99-0.45,4.49c-0.04,0.44-0.13,1,0.45,1.22c0.52,0.2,0.91-0.1,1.24-0.46c2.77-2.95,5.88-5.53,9.01-8.09
	c1.97-1.61,3.88-3.24,5.57-5.16c1.36-1.55,3.22-1.85,4.98-0.15c1,0.97,1.13,1.74,0.32,2.95c-1.33,1.98-2.91,3.7-4.92,5.08
	c-3.98,2.74-7.61,5.94-11.22,9.15c-0.27,0.24-0.69,0.5-0.41,0.97c0.22,0.37,0.62,0.49,1.04,0.46c3.47-0.25,6.96,0.44,10.44-0.24
	c2.09-0.41,3.9,0.44,5.48,1.76c1.23,1.03,1.12,1.92-0.3,2.77c-0.61,0.37-1.23,0.65-2,0.6c-4.35-0.28-8.7-0.49-13.05-0.77
	c-1.1-0.07-2.2-0.27-3.3-0.4c-0.38-0.04-0.82-0.13-1,0.36c-0.13,0.35,0.1,0.62,0.33,0.82c4.85,4.26,8.23,9.87,12.95,14.26
	c0.4,0.37,0.77,0.82,1.02,1.29c0.8,1.5-0.02,2.84-1.77,2.85c-1.55,0-2.9-0.49-3.98-1.74c-3.41-3.97-7.01-7.78-10.11-12.01
	c-0.14-0.19-0.27-0.39-0.43-0.57c-0.26-0.28-0.5-0.69-0.94-0.59c-0.51,0.13-0.37,0.63-0.38,1c-0.04,1.43-0.14,2.86-0.06,4.28
	c0.17,2.94-0.34,5.85-0.28,8.79c0.07,3.64,0.32,7.27,0.02,10.91c-0.17,2.07,0.24,4.11,0.32,6.16c0.07,1.85-0.46,2.57-2.24,3.02
	c-0.87,0.22-1.71,0.19-2.57-0.09c-1.5-0.49-2.03-1.19-2.03-2.77C27.8,74.31,27.79,69.7,27.79,66.09z"/>
</svg>
