<?xml version="1.0" encoding="utf-8"?>
<!-- Generator: Adobe Illustrator 27.9.0, SVG Export Plug-In . SVG Version: 6.00 Build 0)  -->
<svg version="1.1" id="Layer_1" xmlns="http://www.w3.org/2000/svg" xmlns:xlink="http://www.w3.org/1999/xlink" x="0px" y="0px"
	 viewBox="0 0 56.95 58.55" style="enable-background:new 0 0 56.95 58.55;" xml:space="preserve">
<path d="M4.39,22.44c2.53,0.49,5.05,1.02,7.59,1.45c2.87,0.49,5.76,0.91,8.65,1.33c0.39,0.06,0.9,0.09,1.12-0.32
	c0.23-0.42-0.13-0.83-0.37-1.11c-1.67-1.97-3.34-3.95-5.09-5.85c-2.26-2.45-4.61-4.83-6.92-7.25c-0.4-0.42-0.8-0.86-1.17-1.31
	C7.83,8.94,7.37,8.47,7.67,7.83c0.28-0.6,0.85-0.67,1.49-0.67c1.66,0,2.97,0.4,4.15,1.8c2.16,2.54,4.55,4.9,6.93,7.24
	c1.63,1.61,2.69,3.61,4.05,5.4c0.66,0.86,1.28,1.75,1.94,2.61c0.27,0.35,0.68,0.53,1.11,0.37c0.45-0.17,0.53-0.61,0.54-1.04
	c0.01-0.42,0.06-0.85,0-1.25c-0.71-4.4-0.29-8.84-0.52-13.25c-0.12-2.25-0.25-4.5-0.29-6.75C27.02,0.16,27.19,0.02,29.05,0
	c1.84-0.02,2.84,0.83,2.86,2.37c0.04,5.15,0.11,10.3,0.13,15.45c0,0.83-0.15,1.66-0.27,2.48c-0.09,0.64,0.06,1.32,0.57,1.54
	c0.7,0.29,0.97-0.47,1.21-0.96c1.37-2.77,2.97-5.4,4.71-7.96c1.22-1.81,2.73-3.38,3.94-5.18c0.51-0.77,1.29-1.01,2.13-1.16
	c1.09-0.2,2.1,0.09,2.64,0.98c0.54,0.89,0,1.79-0.67,2.47c-3.89,3.97-6.56,8.83-9.75,13.31c-0.23,0.32-0.56,0.69-0.13,1.09
	c0.36,0.33,0.77,0.19,1.16-0.01c4.81-2.47,10.09-3.93,14.72-6.78c0.53-0.32,1.08-0.4,1.67-0.42c1.58-0.07,2.58,0.42,2.9,1.45
	c0.25,0.8-0.38,1.59-1.85,2.33c-3.58,1.8-7.33,3.16-11.08,4.53c-2.11,0.77-4.21,1.59-6.31,2.39c-0.31,0.12-0.62,0.25-0.66,0.64
	c-0.03,0.4,0.26,0.64,0.55,0.76c0.77,0.3,1.57,0.57,2.37,0.77c3.79,0.98,7.61,1.83,11.46,2.54c1.65,0.3,3.24,0.83,4.75,1.52
	c1.08,0.49,1.08,0.96,0.37,1.95c-1.06,1.47-2.51,1.18-3.86,0.8c-1.93-0.54-3.8-1.22-5.8-1.54c-4.04-0.65-8.02-1.54-11.7-3.44
	c-0.6-0.31-1.1-0.43-1.48,0.25c-0.31,0.55,0.01,0.91,0.38,1.3c3.66,3.88,7.05,8.03,11.19,11.45c1.61,1.33,2.89,3,4.09,4.71
	c0.79,1.12,0.43,2.04-0.85,2.51c-1.37,0.5-2.97,0.15-3.72-1.21c-1.75-3.16-4.64-5.22-7.1-7.69c-1.35-1.36-2.79-2.65-3.79-4.33
	c-0.32-0.54-0.69-1.37-1.47-1.06c-0.77,0.3-0.44,1.19-0.4,1.79c0.27,3.58,0.59,7.16,0.47,10.76c-0.06,2-0.1,4.01-0.16,6.01
	c-0.04,1.56-0.56,2.09-2.11,2.13c-1.66,0.05-2.72-0.74-2.67-2.25c0.06-2,0.44-3.99,0.46-5.98c0.05-4.51-0.03-9.02-0.06-13.53
	c0-0.54-0.15-1.01-0.73-1.13c-0.51-0.11-0.7,0.35-0.92,0.69c-1.01,1.62-2.01,3.26-3.04,4.88c-0.63,0.99-1.2,2.02-1.96,2.9
	c-2.07,2.4-4.2,4.75-6.01,7.38c-0.47,0.68-1.1,1.27-1.73,1.81c-0.9,0.78-1.9,0.91-3.01,0.33c-1.26-0.66-1.67-1.86-0.61-2.79
	c1.4-1.23,2.37-2.8,3.66-4.1c2.65-2.68,4.73-5.83,7.03-8.8c0.15-0.2,0.29-0.41,0.42-0.62c0.17-0.3,0.25-0.63,0.01-0.93
	c-0.26-0.34-0.6-0.25-0.88-0.06c-1.66,1.17-3.58,1.79-5.4,2.6c-2.9,1.27-5.86,2.42-8.75,3.72c-1.38,0.62-2.78,0.42-4.19,0.4
	c-0.83-0.01-1.55-0.46-1.67-1.25C0,40.95,0.74,40.58,1.49,40.28c4.72-1.84,9.47-3.63,14.14-5.6c3.21-1.36,6.3-2.99,9.43-4.52
	c0.2-0.1,0.42-0.33,0.45-0.52c0.06-0.37-0.22-0.6-0.57-0.69c-0.48-0.13-0.97-0.3-1.46-0.35c-3.9-0.37-7.82-0.6-11.7-1.1
	c-3.22-0.41-6.39-1.12-9.58-1.72c-0.4-0.08-0.79-0.28-1.15-0.49c-0.57-0.34-1.21-0.7-1.02-1.53c0.16-0.7,0.74-0.76,1.35-0.86
	C2.37,22.73,3.35,22.48,4.39,22.44z"/>
</svg>
