<?xml version="1.0" encoding="utf-8"?>
<!-- Generator: Adobe Illustrator 27.9.0, SVG Export Plug-In . SVG Version: 6.00 Build 0)  -->
<svg version="1.1" id="Layer_1" xmlns="http://www.w3.org/2000/svg" xmlns:xlink="http://www.w3.org/1999/xlink" x="0px" y="0px"
	 viewBox="0 0 53.02 96.55" style="enable-background:new 0 0 53.02 96.55;" xml:space="preserve">
<path d="M24.92,29.55c-0.17-6.11,0.68-12.16,0.93-18.24c0.13-3.08-0.15-6.19,0.51-9.24c0.09-0.41,0.12-0.83,0.25-1.22
	c0.14-0.41,0.45-0.7,0.88-0.81c1.27-0.32,3.4,1.36,3.26,2.63c-1.21,10.97-1.49,21.98-1.86,32.99c-0.06,1.66-0.34,3.32-0.49,4.98
	c-0.04,0.39-0.13,0.87,0.36,1.08c0.48,0.2,0.82-0.14,1.05-0.46c3.13-4.31,7.48-7.36,11.35-10.9c1.11-1.01,3.01-0.74,3.88,0.48
	c0.43,0.61,0.23,1.1-0.17,1.58c-1.23,1.49-2.7,2.74-4.26,3.86c-3.08,2.21-5.41,5.21-8.25,7.67c-0.52,0.45-0.22,0.91,0.38,1.08
	c0.64,0.18,1.3,0.3,1.95,0.45c5.11,1.23,10.37,1.52,15.53,2.46c0.33,0.06,0.66,0.09,0.99,0.15c0.98,0.18,1.79,0.61,1.81,1.72
	c0.01,0.83-1.16,1.62-2.25,1.52c-2.15-0.21-4.32-0.38-6.44-0.78c-4.01-0.75-7.98-1.65-11.97-2.49c-0.41-0.09-0.82-0.17-1.23-0.2
	c-1.13-0.08-1.39,0.27-0.84,1.28c1.61,2.92,3.2,5.85,4.96,8.69c1.4,2.27,2.63,4.64,4.22,6.8c0.94,1.27,0.35,2.24-1.2,2.34
	c-1.56,0.1-2.46-0.8-3.19-2.01c-1.99-3.28-3.9-6.61-5.65-10.03c-0.15-0.3-0.28-0.61-0.4-0.92c-0.17-0.46-0.5-0.68-0.95-0.57
	c-0.36,0.09-0.47,0.44-0.47,0.79c-0.02,0.75-0.05,1.51-0.03,2.26c0.24,7.28-0.35,14.53-0.79,21.78c-0.26,4.3-0.55,8.64-1.29,12.91
	c-0.2,1.14-0.02,2.33-0.09,3.5c-0.08,1.26-1.23,2.03-2.65,1.86c-1.24-0.15-1.85-0.93-1.72-2.27c0.46-4.9,0.99-9.79,1.38-14.69
	c0.3-3.74,0.36-7.5,0.64-11.24c0.31-4.07,0.08-8.18,0.78-12.23c0.11-0.65,0.1-1.34,0.08-2c-0.03-0.71-0.64-1.01-1.2-0.57
	c-0.52,0.41-0.94,0.94-1.39,1.43c-3.05,3.32-6.04,6.7-9.55,9.56c-1.42,1.15-3.14,1.04-4.26-0.16c-0.79-0.85-0.77-1.72,0.23-2.27
	c4.11-2.25,6.97-5.88,10.19-9.11c1.35-1.36,2.75-2.68,4.14-4.01c0.36-0.35,0.82-0.67,0.5-1.25c-0.24-0.43-0.72-0.33-1.12-0.35
	c-5.67-0.27-11.27-1.1-16.85-2.11c-1.5-0.27-2.91-0.78-4.09-1.77c-0.78-0.66-0.64-1.3,0.28-1.7c0.81-0.35,1.61-0.29,2.45-0.1
	C9.27,43,15.45,43.4,21.52,44.4c0.08,0.01,0.17,0.02,0.25,0.01c0.71-0.05,1.6,0.47,2.07-0.31c0.44-0.73-0.45-1.15-0.77-1.69
	c-2.32-3.86-5.35-7.25-7.51-11.22c-0.96-1.76-1.88-3.53-2.82-5.29c-0.3-0.56-0.34-1.12,0.01-1.66c0.38-0.6,0.93-0.5,1.55-0.43
	c1.57,0.18,2.64,0.87,3.14,2.44c1.26,3.96,3.76,7.23,6.03,10.62c0.24,0.36,0.56,0.74,0.99,0.66c0.68-0.13,0.49-0.73,0.48-1.22
	C24.92,34.06,24.92,31.81,24.92,29.55z"/>
</svg>
