<?xml version="1.0" encoding="utf-8"?>
<!-- Generator: Adobe Illustrator 27.9.0, SVG Export Plug-In . SVG Version: 6.00 Build 0)  -->
<svg version="1.1" id="Layer_1" xmlns="http://www.w3.org/2000/svg" xmlns:xlink="http://www.w3.org/1999/xlink" x="0px" y="0px"
	 viewBox="0 0 53.06 58.31" style="enable-background:new 0 0 53.06 58.31;" xml:space="preserve">
<path d="M29.7,11.16c0.01,3.09-0.2,6.17,0.23,9.26c0.14,0.99-0.36,2.02-0.2,3.06c0.05,0.35,0.23,0.63,0.54,0.68
	c0.18,0.03,0.49-0.13,0.61-0.3c2.74-4.08,6.25-7.59,8.82-11.8c0.25-0.41,0.48-0.82,0.74-1.22c1.08-1.63,1.76-1.89,3.54-1.38
	c1.6,0.45,2.24,1.79,1.58,3.33c-1.58,3.68-3.94,6.83-6.59,9.8c-0.54,0.6-1.74,1.03-1.3,2.03c0.42,0.97,1.56,0.41,2.38,0.52
	c1.41,0.19,2.84,0.27,4.24,0.52c1.66,0.3,3.3,0.43,4.96,0.05c0.81-0.19,1.59-0.01,2.33,0.26c1.21,0.43,1.6,1.09,1.47,2.37
	c-0.13,1.25-0.63,1.73-2.04,1.8c-3.25,0.16-6.48,0.15-9.69-0.69c-1.74-0.46-3.6-0.51-5.42-0.61c-0.76-0.04-1.56,0.21-2.22,0.71
	c-1.57,1.17-1.66,1.91-0.1,3.12c3.89,3.01,7.12,6.78,11.16,9.62c0.06,0.05,0.13,0.1,0.18,0.15c1.32,1.25,1.66,2.8,0.84,3.79
	c-0.71,0.86-2.28,0.89-3.72,0.1c-0.7-0.39-1.3-0.89-1.87-1.45c-2.54-2.51-5.11-4.99-7.68-7.47c-0.34-0.33-0.67-0.69-1.05-0.96
	c-0.55-0.39-0.91-0.16-0.91,0.48c0,0.95,0.05,1.91,0.14,2.85c0.47,4.82,0.49,9.66,0.45,14.5c0,0.48,0.01,0.95,0.01,1.43
	c-0.03,1.86-0.74,2.57-2.59,2.59c-1.75,0.02-2.75-0.78-2.77-2.51c-0.03-2.14-0.04-4.31,0.26-6.41c0.34-2.39-0.14-4.76,0.1-7.13
	c0.03-0.33-0.12-0.64-0.41-0.81c-0.46-0.26-0.76,0.13-0.98,0.4c-0.36,0.42-0.66,0.89-0.9,1.39c-1.52,3.06-3.85,5.6-5.56,8.54
	c-0.77,1.33-2.01,1.61-3.27,0.99c-1.77-0.86-2.48-2.02-2.04-3.53c0.42-1.47,1.33-2.69,2.28-3.86c3.34-4.14,6.21-8.61,9.29-12.93
	c0.55-0.77,0.38-1.28-0.25-1.83c-0.9-0.78-1.94-1-3.1-0.85c-4.98,0.63-9.99,0.21-14.98,0.31c-1.84,0.04-3.66-0.19-5.24-1.26
	c-1.11-0.75-1.2-1.87-0.41-2.85c0.49-0.61,1.12-0.49,1.74-0.49c3.57,0.04,7.14,0.15,10.71,0.13c1.43-0.01,2.95,0.55,4.31-0.41
	c-0.7-1.32-2.11-1.84-3.16-2.76c-2.58-2.25-4.92-4.73-7.13-7.33c-0.41-0.48-0.89-0.99-0.56-1.7c0.37-0.8,1.04-1.13,1.93-1.13
	c1.93,0,3.35,1.08,4.48,2.39c3.22,3.76,7.06,6.83,10.8,10.02c0.33,0.29,0.61,0.86,1.16,0.57c0.5-0.26,0.39-0.8,0.36-1.28
	c-0.45-7.37-0.35-14.75-0.23-22.12c0.03-1.6,1.11-2.27,2.55-1.62c1.4,0.63,2.32,1.59,2.23,3.29C29.64,4.96,29.7,6.4,29.7,7.83
	C29.71,8.94,29.7,10.05,29.7,11.16z"/>
</svg>
