<?xml version="1.0" encoding="utf-8"?>
<!-- Generator: Adobe Illustrator 27.9.0, SVG Export Plug-In . SVG Version: 6.00 Build 0)  -->
<svg version="1.1" id="Layer_1" xmlns="http://www.w3.org/2000/svg" xmlns:xlink="http://www.w3.org/1999/xlink" x="0px" y="0px"
	 viewBox="0 0 42.67 43.11" style="enable-background:new 0 0 42.67 43.11;" xml:space="preserve">
<path d="M31.66,20.77c-2.3,0-4.61,0-6.91,0c-0.4,0-0.83-0.01-0.99,0.46c-0.15,0.44,0.13,0.77,0.44,1.02
	c3.5,2.87,6.31,6.49,9.98,9.17c0.06,0.05,0.13,0.09,0.19,0.14c1.53,1.23,1.91,2.15,1.32,3.16c-0.62,1.06-2.72,1.6-4.08,1
	c-1.55-0.69-2.79-1.79-3.91-3.05c-1.74-1.96-3.52-3.87-5.29-5.8c-0.27-0.29-0.55-0.6-1.01-0.43c-0.47,0.18-0.42,0.62-0.42,1.01
	c0.01,0.79-0.03,1.6,0.1,2.38c0.59,3.48,0.03,6.95-0.03,10.42c-0.02,1.23-0.37,2.29-1.58,2.64c-1.31,0.38-2.69,0.33-3.84-0.62
	c-0.69-0.57-0.84-1.35-0.66-2.16c0.84-3.83,0.68-7.72,0.81-11.6c0.02-0.49,0.07-0.97-0.41-1.27c-0.64-0.4-1.08,0.1-1.43,0.47
	c-1.02,1.11-1.99,2.25-2.94,3.42c-1.16,1.44-2.65,1.98-4.35,1.49c-1.98-0.57-2.48-2.13-1.02-3.57c1.64-1.61,3.42-3.07,5.13-4.62
	c0.74-0.67,2.26-1.23,1.93-2.16c-0.42-1.21-1.96-0.51-2.98-0.51c-2.41,0.02-4.72-0.43-7.02-1.01c-0.61-0.15-1.19-0.44-1.75-0.72
	C0.36,19.72,0,19.23,0,18.51c-0.01-0.81,0.61-1.02,1.18-1.31c2.11-1.09,4.26-1.2,6.47-0.35c0.29,0.11,0.62,0.22,0.92,0.19
	c0.76-0.08,1.84,0.37,2.21-0.34c0.46-0.87-0.67-1.28-1.17-1.82c-1.98-2.17-4.02-4.28-6.02-6.43C3.05,7.86,2.55,7.23,2.12,6.57
	C1.55,5.68,0.47,4.85,1.31,3.63C1.95,2.71,4.63,2.61,5.68,3.4C6.9,4.31,7.75,5.58,8.71,6.73c1.74,2.06,3.46,4.13,5.21,6.19
	c0.29,0.34,0.6,0.84,1.16,0.56c0.49-0.24,0.43-0.73,0.44-1.24c0.08-3.16,0.21-6.31,0.51-9.46c0.15-1.49,0.84-2.2,2.32-2.49
	c3.66-0.71,4.1-0.28,3.22,3.37c-0.59,2.47-1.03,4.97-0.93,7.53c0.02,0.4,0.02,0.84,0.47,0.99c0.43,0.14,0.7-0.14,0.98-0.47
	c1.52-1.83,3.07-3.64,4.61-5.45c1.08-1.27,2.11-2.58,3.26-3.78c1.2-1.24,2.65-1.4,4.14-0.63c1.17,0.6,1.46,1.83,0.6,2.97
	c-1.96,2.6-4.2,4.96-6.42,7.34c-0.76,0.81-1.56,1.58-2.33,2.38c-0.34,0.35-0.62,0.76-0.4,1.27c0.22,0.52,0.65,0.55,1.18,0.49
	c3.46-0.39,6.94-0.63,10.38-1.14c2.07-0.31,3.53,0.76,4.93,1.83c1.16,0.89,0.57,2.74-0.93,3.17c-0.98,0.28-2.03,0.41-3.05,0.44
	c-2.14,0.06-4.28,0.02-6.43,0.02C31.66,20.67,31.66,20.72,31.66,20.77z"/>
</svg>
