<?xml version="1.0" encoding="utf-8"?>
<!-- Generator: Adobe Illustrator 27.9.0, SVG Export Plug-In . SVG Version: 6.00 Build 0)  -->
<svg version="1.1" id="Layer_1" xmlns="http://www.w3.org/2000/svg" xmlns:xlink="http://www.w3.org/1999/xlink" x="0px" y="0px"
	 viewBox="0 0 46.92 41.12" style="enable-background:new 0 0 46.92 41.12;" xml:space="preserve">
<path d="M37.69,19.18c-2.22,0-4.45,0-6.67,0c-0.38,0-0.85-0.06-1,0.43c-0.14,0.45,0.19,0.77,0.52,0.97
	c2.44,1.46,4.88,2.95,7.37,4.34c1.66,0.92,3.39,1.71,5.09,2.55c1.1,0.54,1.93,1.42,2.62,2.38c0.81,1.11,0.35,2.34-0.94,2.89
	c-0.93,0.4-1.81,0.4-2.72-0.16c-3.1-1.9-6.22-3.76-9.32-5.66c-1.35-0.83-2.67-1.7-3.99-2.58c-0.34-0.22-0.65-0.53-1.05-0.26
	c-0.29,0.19-0.2,0.56-0.17,0.87c0.25,2.68,0.44,5.37,0.77,8.04c0.23,1.88,0.66,3.74,0.96,5.61c0.24,1.48-0.36,2.31-1.84,2.47
	c-0.86,0.09-1.77,0.09-2.6-0.1c-1.31-0.3-1.94-1.29-2.05-2.84c-0.23-3.32-0.7-6.62-0.62-9.96c0.01-0.32,0.01-0.65-0.08-0.94
	c-0.09-0.29-0.25-0.66-0.49-0.76c-0.41-0.19-0.72,0.14-0.97,0.48c-1.52,2.03-3.04,4.06-4.59,6.08c-1.06,1.39-2.1,2.8-3.26,4.1
	c-1.6,1.78-4.25,1.69-5.8-0.11c-0.61-0.7-0.53-1.64,0.28-2.54c3.17-3.55,6.24-7.18,9.15-10.94c0.29-0.38,0.65-0.72,0.85-1.14
	c0.26-0.55-0.02-0.99-0.6-0.96c-0.78,0.04-1.56,0.23-2.33,0.39c-3.19,0.69-6.41,1-9.67,1.12c-1.27,0.04-2.31-0.48-3.37-0.99
	c-0.78-0.38-1.3-1.07-1.12-1.9c0.16-0.74,0.95-1.05,1.68-1.13c1.81-0.19,3.63-0.3,5.44-0.48c2.76-0.27,5.51-0.59,8.27-0.86
	c0.42-0.04,0.85-0.07,0.88-0.56c0.02-0.29-0.3-0.52-0.61-0.65c-3.44-1.34-6.05-4.05-9.31-5.69c-0.07-0.04-0.14-0.07-0.21-0.12
	C4.8,9.58,4.13,8.44,4.5,7.69C4.83,7.02,6.46,6.56,7.8,6.9c0.99,0.25,1.92,0.71,2.79,1.29c2.57,1.71,5.17,3.37,7.75,5.05
	c0.13,0.09,0.26,0.18,0.4,0.25c0.56,0.25,1.16,0.82,1.75,0.38c0.47-0.36,0.16-1.06,0.09-1.59c-0.43-3.22-0.81-6.45-0.76-9.7
	c0.03-1.99,0.78-2.68,2.76-2.57c0.73,0.04,1.39,0.33,2.03,0.65c0.85,0.43,1.22,1.09,1.18,2.11c-0.06,1.88,0.05,3.77,0.1,5.65
	c0.01,0.37-0.09,0.86,0.43,0.97c0.45,0.09,0.71-0.3,0.93-0.61c1.55-2.21,3.1-4.41,4.61-6.64c1.18-1.74,4.17-1.88,5.5-0.25
	c0.59,0.72,0.53,1.48,0.15,2.23c-0.6,1.21-1.31,2.35-2.19,3.39c-1.63,1.94-3.25,3.89-4.87,5.84c-0.36,0.43-0.74,0.88-0.46,1.49
	c0.35,0.75,1.04,0.62,1.66,0.52c3.46-0.54,6.97-0.06,10.44-0.68c0.97-0.17,2.05,0.12,3.05,0.34c1.16,0.26,1.88,1.25,1.77,2.19
	c-0.13,1.05-0.87,1.88-2.08,1.93c-2.38,0.09-4.76,0.03-7.14,0.03C37.69,19.16,37.69,19.17,37.69,19.18z"/>
</svg>
