<?xml version="1.0" encoding="utf-8"?>
<!-- Generator: Adobe Illustrator 27.9.0, SVG Export Plug-In . SVG Version: 6.00 Build 0)  -->
<svg version="1.1" id="Layer_1" xmlns="http://www.w3.org/2000/svg" xmlns:xlink="http://www.w3.org/1999/xlink" x="0px" y="0px"
	 viewBox="0 0 66.24 117.85" style="enable-background:new 0 0 66.24 117.85;" xml:space="preserve">
<path d="M24.22,45.42c-3.58,0.44-7.13-0.03-10.67-0.38c-2.85-0.29-5.7-0.36-8.55-0.32c-1.42,0.02-2.63-0.49-3.86-1.01
	c-0.78-0.33-1.25-0.97-1.12-1.89c0.11-0.85,0.71-1.12,1.45-1.34c1.4-0.41,2.83-0.46,4.25-0.33c2.53,0.24,5.06,0.21,7.59,0.38
	c4.67,0.31,9.32,0.77,14.01,0.64c0.37-0.01,0.8,0.25,1.04-0.22c0.24-0.47-0.17-0.73-0.43-0.99c-2.6-2.56-5.21-5.1-7.64-7.83
	c-2.01-2.26-3.9-4.59-5.49-7.16c-0.33-0.53-0.76-1.01-1.2-1.47c-0.61-0.63-0.93-1.35-0.52-2.15c0.47-0.92,1.38-1.05,2.28-0.82
	c1.96,0.49,3.7,1.34,4.89,3.11c1.72,2.56,3.49,5.1,5.58,7.38c1.66,1.81,3.36,3.59,5.07,5.36c0.28,0.29,0.54,0.9,1.13,0.5
	c0.35-0.25,0.32-0.68,0.3-1.09c-0.41-7.28-0.75-14.57-0.66-21.87c0.05-3.97,0.28-7.93,0.47-11.89c0.08-1.63,0.96-2.27,2.52-1.95
	c2.29,0.48,3.06,1.45,3.04,3.79c-0.02,3.09,0.1,6.18-0.03,9.27c-0.22,5.15,0.15,10.28,0.24,15.41c0.04,2.21,0.49,4.41-0.02,6.62
	c-0.09,0.37-0.01,0.79,0.06,1.18c0.05,0.31,0.2,0.64,0.57,0.62c0.19-0.01,0.41-0.21,0.54-0.39c0.94-1.28,1.82-2.59,2.79-3.85
	c3.52-4.59,6.9-9.3,11.07-13.35c1.38-1.33,2.41-1.75,3.76-0.95c2.16,1.28,2.86,2.36,0.91,4.46c-2.22,2.38-4.46,4.74-6.45,7.32
	c-2.71,3.5-5.45,6.99-8.34,10.35c-0.53,0.62-0.27,1.19,0.56,1.32c0.7,0.11,1.42,0.16,2.14,0.17c5.37,0.02,10.75,0.36,16.12-0.12
	c1.03-0.09,2.07-0.01,3.03,0.46c1.24,0.61,1.78,1.4,1.61,2.35c-0.19,1.02-0.91,1.72-2.17,1.87c-1.49,0.18-3.01,0.37-4.51,0.32
	c-5.86-0.2-11.74-0.22-17.57-1.03c-0.39-0.05-0.83-0.32-1.1,0.04c-0.35,0.46,0,0.9,0.33,1.24c2.48,2.57,4.95,5.15,7.45,7.7
	c2.01,2.04,3.89,4.19,5.66,6.43c0.2,0.25,0.4,0.5,0.55,0.77c0.67,1.15,0.42,1.97-0.8,2.46c-1.78,0.7-3.4,0.4-4.8-0.91
	c-0.4-0.37-0.75-0.82-1.05-1.28c-2.61-3.92-6.06-7.12-9.15-10.63c-0.25-0.29-0.52-0.67-0.97-0.54c-0.5,0.15-0.38,0.64-0.37,1.01
	c0.19,7.69,0.56,15.38,0.55,23.08c-0.01,6.91,0.46,13.79,0.89,20.67c0.22,3.48,0.24,6.98,0.29,10.45c0.04,2.75,0.18,5.52,0.24,8.27
	c0.04,1.58-0.78,2.24-1.99,2.85c-1.32,0.66-2.45,0.28-3.56-0.42c-0.5-0.32-0.62-0.89-0.69-1.46c-0.26-2.04-0.4-4.06-0.21-6.15
	c0.22-2.42-0.09-4.89-0.2-7.34c-0.2-4.67-0.26-9.36-0.65-14.01c-0.43-5.07-0.28-10.14-0.55-15.21c-0.26-4.97,0.03-9.97,0.08-14.96
	c0.01-0.64,0.01-1.27,0-1.91c-0.01-0.32-0.11-0.66-0.48-0.69c-0.19-0.01-0.46,0.13-0.6,0.29c-1.13,1.33-2.22,2.69-3.38,4
	c-2.83,3.2-5.77,6.32-8.36,9.73c-0.59,0.78-1.28,1.6-2.32,1.38c-1.29-0.28-2.68-0.55-3.62-1.6c-0.79-0.88-0.35-1.79,0.33-2.54
	c1.01-1.12,2.07-2.19,3.09-3.31c3.37-3.69,6.76-7.36,10.09-11.09c1.53-1.71,2.93-3.54,4.38-5.32c0.31-0.38,0.53-0.79,0.19-1.29
	c-0.3-0.42-0.68-0.22-1.06-0.21C28.18,45.44,26.2,45.42,24.22,45.42z"/>
</svg>
