<?xml version="1.0" encoding="utf-8"?>
<!-- Generator: Adobe Illustrator 27.9.0, SVG Export Plug-In . SVG Version: 6.00 Build 0)  -->
<svg version="1.1" id="Layer_1" xmlns="http://www.w3.org/2000/svg" xmlns:xlink="http://www.w3.org/1999/xlink" x="0px" y="0px"
	 viewBox="0 0 50.07 101.38" style="enable-background:new 0 0 50.07 101.38;" xml:space="preserve">
<path d="M40.44,40.79c2.17,0.1,4.34,0.29,6.51,0.1c0.62-0.06,1.14,0.16,1.69,0.34c0.87,0.29,1.63,0.73,1.38,1.75
	c-0.23,0.92-0.89,1.8-1.95,1.59c-2.89-0.55-5.83-0.19-8.72-0.64c-1.23-0.19-2.49-0.22-3.74-0.26c-0.63-0.02-0.92,0.32-0.63,0.96
	c0.13,0.3,0.25,0.63,0.45,0.89c2.9,3.87,5.2,8.13,7.75,12.23c0.62,0.99,1.34,1.91,2.03,2.85c0.51,0.69,0.56,1.37,0.06,2.08
	c-0.59,0.84-1.46,0.83-2.25,0.53c-1.3-0.48-2.19-1.51-2.84-2.71c-2.01-3.65-4.45-7.05-6.3-10.8c-0.22-0.45-0.45-0.9-0.72-1.32
	c-0.26-0.42-0.54-0.95-1.13-0.76c-0.63,0.21-0.4,0.81-0.38,1.29c0.12,3,0.44,6.01,0.32,9.01c-0.14,3.33,0.09,6.65-0.07,9.99
	c-0.16,3.31-0.02,6.66,0.23,9.97c0.51,6.83,0.75,13.65,0.59,20.49c-0.05,2.25-1.36,3.41-3.27,2.91c-0.79-0.21-1.32-0.63-1.28-1.58
	c0.05-1.17-0.12-2.36,0.05-3.51c0.67-4.44,0.08-8.85-0.26-13.25c-0.58-7.68-0.49-15.36-0.38-23.04c0.04-3-0.06-6.01-0.07-9.01
	c0-1.17-0.11-2.35,0.24-3.49c0.1-0.33,0.16-0.7-0.12-0.92c-0.41-0.33-0.83-0.07-1.09,0.24c-1.39,1.68-3.03,3.1-4.64,4.55
	c-2.24,2.01-4.75,3.68-6.9,5.8c-1.09,1.08-2.98,0.67-4-0.56c-0.51-0.61-0.27-1.13,0.16-1.54c1.15-1.09,2.29-2.2,3.55-3.14
	c2.75-2.04,5.42-4.17,7.99-6.43c0.25-0.22,0.49-0.46,0.7-0.72c0.36-0.44,0.9-0.85,0.58-1.52c-0.27-0.57-0.86-0.38-1.33-0.41
	c-6.16-0.37-12.3-1.12-18.48-1.17c-1.27-0.01-2.45-0.44-3.54-1.1c-0.47-0.28-0.73-0.68-0.58-1.25c0.14-0.53,0.45-0.95,1.03-0.92
	c0.92,0.05,1.78-0.28,2.73-0.2c7.3,0.63,14.64,0.97,21.89,2.1c0.4,0.06,0.88,0.17,1.07-0.33c0.17-0.46-0.2-0.77-0.46-1.09
	c-2.34-2.82-4.84-5.53-6.99-8.5c-2.21-3.05-4.69-5.85-7.13-8.7c-0.22-0.25-0.48-0.48-0.66-0.75c-0.66-0.98-0.31-1.76,0.89-1.93
	c1.51-0.22,2.79,0.2,3.81,1.39c2.77,3.23,5.66,6.36,7.87,10.03c0.42,0.71,0.97,1.36,1.57,1.93c0.47,0.44,0.96,0.28,0.98-0.43
	c0.04-1.34-0.07-2.68,0.02-4.01c0.48-7.18,0.33-14.36,0.34-21.55c0-1.5,0.05-2.99-0.27-4.49c-0.34-1.56,0.08-1.89,1.73-1.77
	c2.27,0.18,2.62,0.56,2.77,2.93c0.35,5.66,0.4,11.32,0.28,16.98c-0.09,4.16-0.52,8.31-0.79,12.47c-0.02,0.25-0.01,0.5-0.01,0.75
	c0.01,0.64-0.28,1.46,0.54,1.75c0.68,0.24,1.01-0.47,1.35-0.91c2.21-2.85,4.88-5.24,7.52-7.67c1.03-0.96,2.01-1.98,2.76-3.22
	c0.66-1.08,2.27-1.27,3.29-0.5c0.73,0.55,0.99,1.24,0.53,2.17c-0.86,1.77-2.08,3.26-3.58,4.46c-3.14,2.52-5.9,5.43-8.55,8.44
	c-0.5,0.57-1.02,1.09-1.65,1.51c-0.37,0.25-0.62,0.59-0.49,1.05c0.14,0.48,0.57,0.54,1.01,0.54C35.76,40.78,38.1,40.78,40.44,40.79z
	"/>
</svg>
