<?xml version="1.0" encoding="utf-8"?>
<!-- Generator: Adobe Illustrator 27.9.0, SVG Export Plug-In . SVG Version: 6.00 Build 0)  -->
<svg version="1.1" id="Layer_1" xmlns="http://www.w3.org/2000/svg" xmlns:xlink="http://www.w3.org/1999/xlink" x="0px" y="0px"
	 viewBox="0 0 49.55 70.94" style="enable-background:new 0 0 49.55 70.94;" xml:space="preserve">
<path d="M27.64,14.78c0,3.49,0,6.98,0,10.47c0,0.4-0.01,0.79,0,1.19c0.01,0.43,0.18,0.81,0.59,0.94c0.32,0.1,0.59-0.16,0.79-0.41
	c0.25-0.31,0.47-0.64,0.71-0.96c2.18-2.92,4.41-5.8,6.37-8.88c1.31-2.08,3.16-2.1,4.8-0.24c0.73,0.83,0.81,1.62,0.3,2.6
	c-0.89,1.7-1.95,3.3-3.25,4.66c-1.43,1.49-2.49,3.28-4.02,4.68c-0.48,0.44-0.91,0.95-0.53,1.66c0.33,0.61,0.95,0.46,1.49,0.47
	c3.65,0.02,7.3,0.06,10.95,0.02c1.02-0.01,1.86,0.25,2.61,0.92c0.6,0.53,1.3,1.07,1.07,1.97c-0.24,0.91-1.01,1.42-1.87,1.67
	c-0.93,0.27-1.88,0.1-2.83-0.05c-3.53-0.56-7.08-0.78-10.65-0.81c-0.32,0-0.67-0.03-0.85,0.27c-0.24,0.4-0.05,0.79,0.24,1.06
	c0.75,0.71,1.47,1.46,2.3,2.06c2.91,2.09,5.24,4.83,8.05,7.05c0.99,0.78,1.79,1.8,2.63,2.74c0.6,0.67,0.88,1.5,0.87,2.41
	c-0.01,0.84-0.44,1.36-1.25,1.49c-1.71,0.28-3.26,0.19-4.45-1.42c-1.79-2.43-3.91-4.58-6.19-6.56c-2.1-1.82-4.23-3.6-6.09-5.67
	c-0.27-0.3-0.58-0.59-1.02-0.48c-0.61,0.15-0.61,0.69-0.59,1.15c0.09,2.45,0.22,4.9,0.33,7.36c0.11,2.45,0.25,4.89,0.16,7.36
	c-0.17,4.91,0.31,9.82,0.56,14.72c0.06,1.26-0.26,1.94-1.37,2.44c-2.08,0.94-4.49-0.53-4.55-2.82c-0.16-6.27-0.17-12.54-0.01-18.81
	c0.04-1.5-0.06-3.01-0.11-4.52c-0.01-0.4-0.14-0.8-0.61-0.89c-0.35-0.07-0.6,0.19-0.8,0.43c-1.23,1.45-2.43,2.92-3.67,4.36
	c-1.5,1.75-3,3.49-4.53,5.2c-0.97,1.09-3.06,1.55-4.31,1.02c-1.83-0.78-2.21-2.3-0.86-3.77c4.08-4.44,8.2-8.84,12.29-13.27
	c0.66-0.72,1.84-1.33,1.26-2.53c-0.48-1-1.59-0.44-2.4-0.44c-4.83,0.01-9.67,0.1-14.5,0.14c-1.1,0.01-2.22,0.07-3.28-0.38
	C0.52,34.01,0,33.43,0,32.42c0-1.09,0.75-1.57,1.62-1.78c1.78-0.42,3.6-0.62,5.43-0.47c3.7,0.31,7.43,0.12,11.12,0.69
	c0.31,0.05,0.67,0.05,0.77-0.33c0.05-0.2,0.01-0.51-0.11-0.66c-0.34-0.43-0.7-0.87-1.14-1.2c-3.15-2.3-5.94-4.99-8.68-7.74
	c-1.75-1.75-3.15-3.76-4.55-5.78c-1.03-1.48-0.46-2.81,1.3-3.14c1.95-0.37,3.5,0.37,4.44,2.03c2.43,4.29,6.23,7.35,9.46,10.93
	c0.16,0.18,0.31,0.41,0.52,0.48c0.65,0.22,1.12,1.19,1.8,0.86c0.77-0.37,0.35-1.29,0.3-1.97c-0.42-5.38-0.05-10.76,0.08-16.14
	c0.05-1.82-0.23-3.64-0.26-5.46c-0.03-1.93,0.28-2.43,1.34-2.66c1.5-0.32,3.04,0.27,3.73,1.47c0.32,0.55,0.51,1.14,0.51,1.81
	C27.7,7.17,28.14,10.97,27.64,14.78z"/>
</svg>
